SplineFontDB: 3.2
FontName: NerdFontCloud
FullName: Nerd Font File Cloud Services
FamilyName: Nerd Font Cloud
Weight: Regular
Copyright: copyright missing
Version: 000.000
ItalicAngle: 0
UnderlinePosition: -150
UnderlineWidth: 50
Ascent: 800
Descent: 200
InvalidEm: 0
sfntRevision: 0x00000000
LayerCount: 2
Layer: 0 0 "Back" 1
Layer: 1 0 "Fore" 0
XUID: [1021 382 560324961 11469538]
StyleMap: 0x0040
FSType: 8
OS2Version: 3
OS2_WeightWidthSlopeOnly: 0
OS2_UseTypoMetrics: 0
CreationTime: 1522789984
ModificationTime: 1613208752
PfmFamily: 81
TTFWeight: 400
TTFWidth: 5
LineGap: 0
VLineGap: 0
Panose: 0 0 0 0 0 0 0 0 0 0
OS2TypoAscent: 960
OS2TypoAOffset: 0
OS2TypoDescent: -64
OS2TypoDOffset: 0
OS2TypoLinegap: 64
OS2WinAscent: 960
OS2WinAOffset: 0
OS2WinDescent: 64
OS2WinDOffset: 0
HheadAscent: 960
HheadAOffset: 0
HheadDescent: -64
HheadDOffset: 0
OS2SubXSize: 650
OS2SubYSize: 600
OS2SubXOff: 0
OS2SubYOff: 75
OS2SupXSize: 650
OS2SupYSize: 600
OS2SupXOff: 0
OS2SupYOff: 350
OS2StrikeYSize: 50
OS2StrikeYPos: 220
OS2Vendor: '    '
OS2CodePages: 00000001.00000000
OS2UnicodeRanges: 00000001.10000000.00000000.00000000
MarkAttachClasses: 1
DEI: 91125
LangName: 1033 "" "" "" "0.000;    ;NerdFontCloudServices-R" "" "Version 0.000;PS 000.000;hotconv 1.0.88;makeotf.lib2.5.64775"
Encoding: UnicodeBmp
UnicodeInterp: none
NameList: AGL For New Fonts
DisplaySize: -48
AntiAlias: 1
FitToEm: 0
WinInfo: 59280 38 14
BeginPrivate: 7
BlueScale 5 0.037
BlueShift 2 20
BlueFuzz 1 0
StdHW 5 [182]
StdVW 4 [49]
StemSnapH 11 [48 62 182]
StemSnapV 4 [49]
EndPrivate
BeginChars: 65538 65

StartChar: uniE900
Encoding: 59648 59648 4
Width: 1166
GlyphClass: 2
Flags: MW
HStem: 1.58594 173.164<332.629 582.123> 629.25 172.856<575.998 575.998>
LayerCount: 2
Fore
SplineSet
590.915039062 802 m 0
 685.984375 799.822265625 773.016601562 763.426757812 839.540039062 704.75 c 1
 839.290039062 702.666992188 l 1
 841.081054688 704.458984375 l 1
 897.07421875 654.748046875 938.459960938 589.137695312 958.623046875 514.791992188 c 1
 1189.49804688 358.75 1077.45605469 -2 798.831054688 0.208984375 c 2
 582.498046875 0.208984375 l 1
 581.248046875 1.458984375 l 1
 365.706054688 1.458984375 l 2
 365.282226562 1.45703125 364.650390625 1.5859375 364.2265625 1.5859375 c 0
 301.03125 1.5859375 242.701171875 22.576171875 195.831054688 57.958984375 c 1
 196.123046875 59.208984375 l 1
 195.873046875 58.9169921875 l 1
 42.748046875 176.875 44.7060546875 408.5 206.165039062 514.791992188 c 1
 203.873046875 514.25 208.373046875 515.625 206.165039062 514.791992188 c 1
 251.077148438 680.198242188 402.1953125 802.106445312 581.73828125 802.106445312 c 0
 584.805664062 802.106445312 587.864257812 802.071289062 590.915039062 802 c 0
575.998046875 629.25 m 1
 576.081054688 629.208984375 l 1
 515.595703125 627.30859375 461.254882812 600.58203125 423.165039062 558.791992188 c 0
 422.581054688 558.916992188 421.665039062 558.25 420.915039062 557.833984375 c 1
 489.395507812 544.44921875 549.111328125 506.393554688 590.040039062 453.041992188 c 1
 464.498046875 327.541992188 l 1
 447.504882812 365.0703125 409.680664062 391.171875 365.834960938 391.171875 c 0
 306.11328125 391.171875 257.626953125 342.684570312 257.626953125 282.962890625 c 0
 257.626953125 239.1171875 283.76171875 201.326171875 321.290039062 184.333984375 c 1
 321.248046875 184.333984375 l 1
 334.78515625 178.212890625 349.895507812 174.75 365.706054688 174.75 c 2
 582.123046875 174.75 l 1
 582.123046875 173.083984375 l 1
 582.456054688 173.458984375 l 1
 798.831054688 173.458984375 l 2
 945.915039062 170.583984375 945.915039062 392.75 798.831054688 389.833984375 c 1
 798.831054688 411.416992188 l 2
 798.856445312 412.779296875 799.000976562 414.009765625 799.000976562 415.37890625 c 0
 799.000976562 482.03515625 768.75390625 541.682617188 721.248046875 581.333984375 c 0
 680.915039062 613.916992188 627.831054688 630.916992188 575.998046875 629.25 c 1
EndSplineSet
Validated: 524325
EndChar

StartChar: uniE901
Encoding: 59649 59649 5
Width: 1080
GlyphClass: 2
Flags: HMW
HStem: 147.625 71.833<448.69 595.357> 434.333 43.542<167.148 180.106> 577 39.583<182.294 186.773 163.981 193.44> 678.458 66.4902 700.708 44.917<876.419 883.877 872.919 885.898>
VStem: 69.398 58.208<517.646 533.771 517.646 536.25> 254.606 54.542<606.583 630.875 630.875 636.208 528.458 643.521> 770.773 55.25<658.5 665.479> 931.49 55.1582<519.312 520.057>
LayerCount: 2
Fore
SplineSet
321.799804688 380.833007812 m 5xf780
 321.799804688 368.5 323.1328125 358.541992188 325.465820312 351.25 c 4
 328.1328125 343.916992188 331.465820312 335.916992188 336.1328125 327.25 c 4
 337.799804688 324.625 338.465820312 321.958007812 338.465820312 319.625 c 4
 338.465820312 316.291992188 336.465820312 312.958007812 332.1328125 309.625 c 6
 311.174804688 295.666992188 l 6
 308.72265625 293.899414062 305.725585938 292.80078125 302.5078125 292.666992188 c 4
 299.174804688 292.666992188 295.840820312 294.333007812 292.549804688 297.333007812 c 4
 288.063476562 302.159179688 284.09375 307.340820312 280.590820312 312.958007812 c 4
 276.884765625 319.317382812 273.419921875 325.89453125 270.2578125 332.583007812 c 5
 244.340820312 302 211.715820312 286.708007812 172.465820312 286.708007812 c 4
 144.549804688 286.708007812 122.2578125 294.666992188 105.965820312 310.625 c 4
 89.6748046875 326.625 81.3828125 347.875 81.3828125 374.5 c 4
 81.3828125 402.75 91.3408203125 425.75 111.6328125 443 c 4
 131.924804688 460.291992188 158.840820312 468.958007812 193.090820312 468.958007812 c 4
 204.424804688 468.958007812 216.049804688 467.958007812 228.340820312 466.291992188 c 4
 240.674804688 464.625 253.340820312 461.958007812 266.590820312 458.958007812 c 5
 266.590820312 483.25 l 6
 266.590820312 508.541992188 261.299804688 526.166992188 250.965820312 536.458007812 c 4
 240.340820312 546.791992188 222.3828125 551.75 196.799804688 551.75 c 4
 185.1328125 551.75 173.1328125 550.458007812 160.840820312 547.458007812 c 4
 148.549804688 544.458007812 136.549804688 540.791992188 124.924804688 536.125 c 4
 121.184570312 534.450195312 117.233398438 532.979492188 113.2578125 531.791992188 c 4
 111.583007812 531.251953125 109.797851562 530.918945312 107.965820312 530.833007812 c 4
 103.299804688 530.833007812 100.965820312 534.166992188 100.965820312 541.125 c 6
 100.965820312 557.416992188 l 6
 100.965820312 562.75 101.6328125 566.75 103.299804688 569.083007812 c 4
 105.8046875 572.094726562 108.982421875 574.478515625 112.6328125 576.041992188 c 4
 124.2578125 582.041992188 138.215820312 587.041992188 154.5078125 591.041992188 c 4
 170.52734375 595.142578125 187.3125 597.323242188 204.603515625 597.323242188 c 4
 205.25 597.323242188 205.779296875 597.33984375 206.424804688 597.333007812 c 4
 246.0078125 597.333007812 274.924804688 588.333007812 293.549804688 570.375 c 4
 311.840820312 552.458007812 321.1328125 525.166992188 321.1328125 488.583007812 c 6
 321.1328125 380.833007812 l 5
 321.799804688 380.833007812 l 5xf780
186.799804688 330.25 m 4
 197.7578125 330.25 209.049804688 332.25 221.049804688 336.25 c 4
 233.0078125 340.25 243.674804688 347.541992188 252.6328125 357.5 c 4
 257.965820312 363.833007812 261.965820312 370.833007812 263.965820312 378.833007812 c 4
 265.924804688 386.791992188 267.299804688 396.458007812 267.299804688 407.75 c 6
 267.299804688 421.708007812 l 5
 257.340820312 424.135742188 247.020507812 426.055664062 236.674804688 427.375 c 4
 226.35546875 428.686523438 216.09375 429.359375 205.424804688 429.375 c 4
 183.1328125 429.375 166.840820312 425.041992188 155.840820312 416.041992188 c 4
 144.8828125 407.083007812 139.590820312 394.458007812 139.590820312 377.833007812 c 4
 139.590820312 362.208007812 143.549804688 350.541992188 151.8828125 342.583007812 c 4
 159.840820312 334.25 171.465820312 330.25 186.799804688 330.25 c 4
453.8828125 294.333007812 m 6
 447.8828125 294.333007812 443.8828125 295.333007812 441.215820312 297.666992188 c 4
 438.549804688 299.666992188 436.215820312 304.333007812 434.215820312 310.625 c 6
 356.090820312 567.75 l 6
 354.604492188 571.967773438 353.5703125 576.485351562 353.090820312 581.083007812 c 4
 353.090820312 586.416992188 355.7578125 589.416992188 361.049804688 589.416992188 c 6
 393.674804688 589.416992188 l 6
 399.965820312 589.416992188 404.299804688 588.375 406.590820312 586.083007812 c 4
 409.299804688 584.083007812 411.299804688 579.416992188 413.2578125 573.083007812 c 6
 469.174804688 352.916992188 l 5
 521.049804688 573.083007812 l 6
 522.715820312 579.75 524.715820312 584.083007812 527.340820312 586.083007812 c 4
 530.81640625 588.21484375 534.903320312 589.443359375 539.275390625 589.443359375 c 4
 539.743164062 589.443359375 540.213867188 589.444335938 540.674804688 589.416992188 c 6
 567.2578125 589.416992188 l 6
 573.590820312 589.416992188 577.924804688 588.375 580.590820312 586.083007812 c 4
 583.215820312 584.083007812 585.590820312 579.416992188 586.8828125 573.083007812 c 6
 639.424804688 350.25 l 5
 696.965820312 573.083007812 l 6
 698.965820312 579.75 701.299804688 584.083007812 703.6328125 586.083007812 c 4
 706.985351562 588.211914062 710.961914062 589.4453125 715.223632812 589.4453125 c 4
 715.680664062 589.4453125 716.140625 589.444335938 716.590820312 589.416992188 c 6
 747.549804688 589.416992188 l 6
 752.840820312 589.416992188 755.8828125 586.708007812 755.8828125 581.083007812 c 4
 755.8828125 579.416992188 755.5078125 577.75 755.174804688 575.75 c 4
 754.650390625 572.895507812 753.852539062 570.067382812 752.840820312 567.416992188 c 6
 672.715820312 310.333007812 l 6
 670.715820312 303.666992188 668.3828125 299.375 665.715820312 297.375 c 4
 662.41015625 295.25390625 658.479492188 294.0234375 654.263671875 294.0234375 c 4
 653.872070312 294.0234375 653.477539062 294.020507812 653.090820312 294.041992188 c 6
 624.465820312 294.041992188 l 6
 618.174804688 294.041992188 613.840820312 295.041992188 611.1328125 297.375 c 4
 608.5078125 299.708007812 606.174804688 304.041992188 604.8828125 310.708007812 c 6
 553.299804688 525.208007812 l 5
 502.049804688 311.041992188 l 6
 500.3828125 304.375 498.424804688 300.041992188 495.799804688 297.708007812 c 4
 493.090820312 295.375 488.424804688 294.375 482.465820312 294.375 c 6
 453.8828125 294.333007812 l 6
881.215820312 285.375 m 4
 863.924804688 285.375 846.6328125 287.375 830.0078125 291.333007812 c 4
 813.3828125 295.333007812 800.424804688 299.666992188 791.7578125 304.666992188 c 4
 786.424804688 307.625 782.799804688 310.958007812 781.465820312 313.958007812 c 4
 780.206054688 316.810546875 779.486328125 319.98046875 779.465820312 323.291992188 c 6
 779.465820312 340.25 l 6
 779.465820312 347.208007812 782.1328125 350.541992188 787.090820312 350.541992188 c 4
 789.090820312 350.541992188 791.090820312 350.208007812 793.090820312 349.541992188 c 4
 795.090820312 348.875 798.090820312 347.541992188 801.424804688 346.208007812 c 4
 812.715820312 341.208007812 825.0078125 337.25 838.0078125 334.583007812 c 4
 851.299804688 331.916992188 864.2578125 330.583007812 877.590820312 330.583007812 c 4
 898.5078125 330.583007812 914.840820312 334.25 926.1328125 341.583007812 c 4
 936.522460938 347.860351562 943.474609375 359.262695312 943.474609375 372.276367188 c 4
 943.474609375 372.586914062 943.432617188 372.858398438 943.424804688 373.166992188 c 4
 943.43359375 373.477539062 943.4375 373.790039062 943.4375 374.103515625 c 4
 943.4375 382.7734375 940.0234375 390.64453125 934.465820312 396.458007812 c 4
 928.465820312 402.75 917.1328125 408.416992188 900.840820312 413.75 c 6
 852.6328125 428.75 l 6
 828.340820312 436.375 810.3828125 447.666992188 799.424804688 462.625 c 4
 789.072265625 475.950195312 782.842773438 492.73046875 782.7578125 510.875 c 4
 782.7578125 524.833007812 785.799804688 537.125 791.7578125 547.791992188 c 4
 797.7578125 558.416992188 805.715820312 567.75 815.715820312 575.041992188 c 4
 825.715820312 582.708007812 836.965820312 588.375 850.299804688 592.333007812 c 4
 863.6328125 596.333007812 877.590820312 598 892.215820312 598 c 4
 899.5078125 598 907.174804688 597.666992188 914.5078125 596.666992188 c 4
 922.1328125 595.666992188 929.090820312 594.333007812 936.090820312 593 c 4
 942.7578125 591.333007812 949.090820312 589.666992188 955.049804688 587.708007812 c 4
 961.049804688 585.708007812 965.715820312 583.708007812 969.049804688 581.708007812 c 4
 973.005859375 579.716796875 976.3984375 576.87890625 979.049804688 573.375 c 4
 980.931640625 570.540039062 982.028320312 567.139648438 982.028320312 563.484375 c 4
 982.028320312 563.127929688 982.028320312 562.768554688 982.0078125 562.416992188 c 6
 982.0078125 546.791992188 l 6
 982.0078125 539.791992188 979.340820312 536.125 974.340820312 536.125 c 4
 969.837890625 536.641601562 965.524414062 538.046875 961.715820312 540.125 c 4
 942.940429688 548.418945312 922.177734375 553.026367188 900.346679688 553.026367188 c 4
 899.549804688 553.026367188 898.676757812 553.095703125 897.8828125 553.083007812 c 4xef80
 878.924804688 553.083007812 863.924804688 550.125 853.6328125 543.791992188 c 4
 843.299804688 537.458007812 838.0078125 527.833007812 838.0078125 514.208007812 c 4
 838.0078125 504.875 841.340820312 496.875 848.0078125 490.583007812 c 4
 854.6328125 484.25 866.924804688 477.916992188 884.549804688 472.25 c 6
 931.799804688 457.333007812 l 6
 955.715820312 449.666992188 973.049804688 439 983.340820312 425.375 c 4
 993.6328125 411.75 998.6328125 396.125 998.6328125 378.833007812 c 4
 998.6328125 364.541992188 995.6328125 351.541992188 990.0078125 340.25 c 4
 984.0078125 328.916992188 976.0078125 318.958007812 965.715820312 310.958007812 c 4
 955.3828125 302.625 943.090820312 296.666992188 928.799804688 292.333007812 c 4
 913.799804688 287.708007812 898.215820312 285.375 881.215820312 285.375 c 4
944.090820312 123.708007812 m 4
 834.674804688 42.875 675.674804688 0 539.0078125 0 c 4
 347.424804688 0 174.840820312 70.8330078125 44.4248046875 188.583007812 c 4
 34.1328125 197.875 43.4248046875 210.541992188 55.7578125 203.208007812 c 4
 196.7578125 121.416992188 370.715820312 71.8330078125 550.6328125 71.8330078125 c 4
 672.049804688 71.8330078125 805.3828125 97.125 928.1328125 149 c 4
 946.424804688 157.333007812 962.049804688 137.041992188 944.090820312 123.708007812 c 4
989.674804688 175.625 m 4
 975.674804688 193.541992188 897.174804688 184.25 861.590820312 179.916992188 c 4
 850.965820312 178.583007812 849.299804688 187.916992188 858.965820312 194.916992188 c 4
 921.465820312 238.791992188 1024.2578125 226.166992188 1036.21582031 211.541992188 c 4
 1048.17480469 196.541992188 1032.8828125 93.7919921875 974.340820312 44.5830078125 c 4
 965.3828125 36.9169921875 956.715820312 40.9169921875 960.715820312 50.875 c 4
 974.049804688 83.7919921875 1003.6328125 157.958007812 989.674804688 175.625 c 4
EndSplineSet
Validated: 524321
EndChar

StartChar: uniE902
Encoding: 59650 59650 6
Width: 1032
GlyphClass: 2
Flags: HMW
HStem: 10.5537 183.13<334.256 697.473 334.256 845.855 185.738 697.473 334.256 845.994> 10.5537 252.859<738.236 845.855 845.855 845.994> 315.803 183.197<110.398 293.561 110.398 293.561 738.236 921.365> 621.153 183.13<334.393 697.607 334.393 334.393>
VStem: 110.398 183.162<85.9287 499 263.446 499 315.803 499 315.803 499> 738.236 183.129<234.446 499 263.413 499 315.803 499 315.803 499>
LayerCount: 2
Fore
SplineSet
738.236328125 499 m 1x3c
 921.365234375 499 l 1
 921.365234375 315.802734375 l 1
 738.236328125 315.802734375 l 1
 738.236328125 499 l 1x3c
110.3984375 499 m 1
 293.560546875 499 l 1
 293.560546875 315.802734375 l 1
 110.3984375 315.802734375 l 1
 110.3984375 499 l 1
733 220 m 2
 738.236328125 263.413085938 l 1
 921.6015625 263.413085938 l 1
 921.6015625 85.89453125 l 2
 921.453125 44.2900390625 887.6328125 10.5537109375 845.994140625 10.5537109375 c 2
 845.85546875 10.5537109375 l 1
 185.73828125 10.5537109375 l 2x7c
 144.205078125 10.68359375 110.509765625 44.390625 110.3984375 85.9287109375 c 2
 110.3984375 263.446289062 l 1
 293.52734375 263.446289062 l 1
 293.52734375 234.446289062 l 2
 293.544921875 211.96875 311.783203125 193.720703125 334.255859375 193.68359375 c 2
 697.47265625 193.68359375 l 2xbc
 719.962890625 193.68359375 732.98046875 197.510742188 733 220 c 2
845.990234375 804.283203125 m 2
 887.62890625 804.283203125 921.453125 770.546875 921.6015625 728.942382812 c 2
 921.6015625 551.389648438 l 1
 738.337890625 551.389648438 l 1
 738.337890625 580.390625 l 2
 738.337890625 602.876953125 720.08984375 621.134765625 697.607421875 621.153320312 c 2
 334.392578125 621.153320312 l 2
 311.91015625 621.134765625 293.662109375 602.876953125 293.662109375 580.390625 c 2
 293.662109375 551.389648438 l 1
 110.5 551.389648438 l 1
 110.5 728.908203125 l 2
 110.611328125 770.45703125 144.326171875 804.171875 185.873046875 804.283203125 c 2
 845.990234375 804.283203125 l 2
EndSplineSet
Validated: 524289
EndChar

StartChar: uniE903
Encoding: 59651 59651 7
Width: 1112
GlyphClass: 2
Flags: HMW
HStem: 91 83.417<799.458 799.458 799.458 1098.5>
LayerCount: 2
Fore
SplineSet
284.458007812 12.7080078125 m 5
 756.958007812 96.125 l 5
 513.791992188 385.208007812 l 5
 640.375 733 l 5
 1056 12.7080078125 l 5
 284.458007812 12.7080078125 l 5
607.25 787.708007812 m 5
 285.375 97.416015625 l 5
 285.375 98 l 5
 56 98 l 5
 310.375 538.666015625 l 5
 607.25 787.708007812 l 5
EndSplineSet
Validated: 524289
EndChar

StartChar: uniE904
Encoding: 59652 59652 8
Width: 1098
GlyphClass: 2
Flags: HMW
LayerCount: 2
Fore
SplineSet
877.375 389 m 5
 984.166992188 574.416992188 l 5
 1025.41699219 501.75 1049 417.791992188 1049 328.166992188 c 4
 1049 208.166992188 1006.625 98.0419921875 936.083007812 11.75 c 6
 660.25 11.75 l 5
 745.25 159.291992188 l 5
 632.916992188 159.291992188 l 5
 765.25 389 l 5
 877.375 389 l 5
780.708007812 607.458007812 m 5
 437.875 12.125 l 5
 438 11.75 l 5
 161.875 11.75 l 6
 91.25 98.0830078125 49 208.166992188 49 328.166992188 c 4
 49 417.833007812 72.75 501.916992188 114.041992188 574.75 c 5
 292.958007812 263.791992188 l 5
 490.666992188 607.458007812 l 5
 780.708007812 607.458007812 l 5
EndSplineSet
Validated: 524289
EndChar

StartChar: uniE905
Encoding: 59653 59653 9
Width: 1000
GlyphClass: 2
Flags: W
VStem: 501.096 9.66602<565.092 720.699> 509.43 10.332<523.633 681.24> 515.096 11.3672<392.933 439.933> 521.762 11.668<120.689 181.166 194.166 222.199 294.899 300.566> 526.43 7<112.866 181.166 194.166 222.199> 575.762 10.3672<158.199 265.233> 623.129 10.0332<401.6 440.933>
LayerCount: 2
Fore
SplineSet
833.529296875 444.932617188 m 6x26
 819.529296875 331.899414062 l 6
 819.45703125 330.563476562 818.826171875 329.373046875 817.861328125 328.56640625 c 6
 732.162109375 261.866210938 l 6
 731.376953125 261.266601562 730.388671875 260.91015625 729.32421875 260.91015625 c 4
 728.26171875 260.91015625 727.28125 261.266601562 726.49609375 261.866210938 c 6
 693.162109375 284.19921875 l 5
 690.162109375 231.866210938 l 6
 689.826171875 230.467773438 689.125 229.205078125 688.162109375 228.19921875 c 6
 583.4296875 144.5 l 6
 582.6171875 143.819335938 581.56640625 143.409179688 580.42578125 143.409179688 c 4
 579.28515625 143.409179688 578.240234375 143.819335938 577.4296875 144.5 c 6
 533.4296875 181.166015625 l 5
 535.76171875 110.5 l 6
 535.7109375 108.881835938 534.943359375 107.444335938 533.76171875 106.5 c 6
 403.0625 2.466796875 l 6
 402.21484375 1.6015625 401.033203125 1.064453125 399.728515625 1.064453125 c 4
 398.423828125 1.064453125 397.2421875 1.6015625 396.39453125 2.466796875 c 6
 296.328125 109.833007812 l 6
 296.205078125 110.19921875 296.138671875 110.592773438 296.138671875 111 c 4
 296.138671875 111.408203125 296.205078125 111.799804688 296.328125 112.166015625 c 6
 271.328125 233.56640625 l 6
 271.23046875 233.958984375 271.171875 234.364257812 271.171875 234.787109375 c 4
 271.171875 236.491210938 272.025390625 237.997070312 273.328125 238.899414062 c 6
 299.99609375 255.233398438 l 5
 258.662109375 293.233398438 l 6
 258.587890625 293.612304688 258.546875 293.994140625 258.546875 294.39453125 c 4
 258.546875 294.795898438 258.587890625 295.1875 258.662109375 295.56640625 c 6
 225.328125 452.299804688 l 6
 225.267578125 452.623046875 225.228515625 452.950195312 225.228515625 453.291015625 c 4
 225.228515625 455.3046875 226.34765625 457.05859375 227.99609375 457.966796875 c 6
 269.99609375 477.966796875 l 5
 208.99609375 523.966796875 l 6
 208.916015625 524.400390625 208.873046875 524.8359375 208.873046875 525.29296875 c 4
 208.873046875 525.750976562 208.916015625 526.198242188 208.99609375 526.6328125 c 6
 166.662109375 734.399414062 l 6
 166.505859375 734.900390625 166.416015625 735.428710938 166.416015625 735.98046875 c 4
 166.416015625 738.052734375 167.599609375 739.850585938 169.328125 740.733398438 c 6
 363.328125 801.06640625 l 5
 366.662109375 801.06640625 l 5
 508.095703125 732.033203125 l 6
 509.6171875 731.158203125 510.66015625 729.553710938 510.76171875 727.69921875 c 6x96
 519.76171875 518.6328125 l 6
 519.76171875 518.6171875 519.767578125 518.604492188 519.767578125 518.588867188 c 4
 519.767578125 516.614257812 518.69140625 514.888671875 517.095703125 513.966796875 c 6
 466.76171875 487.932617188 l 5
 521.76171875 451.599609375 l 6x56
 522.98828125 450.630859375 523.845703125 449.213867188 524.095703125 447.599609375 c 6
 526.462890625 392.932617188 l 5
 580.462890625 426.266601562 l 6
 581.18359375 426.724609375 582.048828125 426.989257812 582.966796875 426.989257812 c 4
 583.884765625 426.989257812 584.740234375 426.724609375 585.462890625 426.266601562 c 6
 623.12890625 401.599609375 l 5
 623.12890625 449.966796875 l 6
 623.208984375 451.747070312 624.107421875 453.31640625 625.462890625 454.299804688 c 6
 717.828125 510.6328125 l 6
 718.513671875 511.028320312 719.3203125 511.254882812 720.16796875 511.254882812 c 4
 721.015625 511.254882812 721.810546875 511.028320312 722.49609375 510.6328125 c 6
 831.1953125 449.932617188 l 6
 832.630859375 449.053710938 833.583984375 447.479492188 833.583984375 445.674804688 c 4
 833.583984375 445.422851562 833.564453125 445.174804688 833.529296875 444.932617188 c 6x26
512.76171875 439.932617188 m 5
 356.0625 350.266601562 l 5
 378.0625 199.19921875 l 5
 519.095703125 294.899414062 l 5
 515.095703125 387.599609375 l 5x26
 512.76171875 439.932617188 l 5
501.095703125 720.69921875 m 5x86
 312.6953125 648 l 5
 342.6953125 437.299804688 l 5
 509.4296875 523.6328125 l 5x46
 501.095703125 720.69921875 l 5x86
217.99609375 530.299804688 m 5
 280.6953125 481.6328125 l 5
 333.361328125 441.6328125 l 5
 302.328125 648.399414062 l 5
 177.662109375 725.733398438 l 5
 217.99609375 530.299804688 l 5
266.662109375 299.233398438 m 5
 310.6953125 257.866210938 l 5
 366.6953125 203.866210938 l 5
 346.6953125 349.932617188 l 5
 237.328125 441.266601562 l 5
 266.662109375 299.233398438 l 5
304.662109375 115.5 m 5
 395.0625 19.7998046875 l 5
 379.39453125 125.19921875 l 5
 282.99609375 220.19921875 l 5
 304.662109375 115.5 l 5
404.728515625 15.5 m 5
 526.4296875 112.866210938 l 5x0e
 521.76171875 222.19921875 l 5x16
 388.39453125 126.5 l 5
 404.728515625 15.5 l 5
533.4296875 194.166015625 m 5x16
 575.76171875 158.19921875 l 5
 575.76171875 265.233398438 l 5
 529.4296875 300.56640625 l 5
 529.4296875 291.866210938 l 6
 529.431640625 291.809570312 529.435546875 291.7578125 529.435546875 291.701171875 c 4
 529.435546875 290.11328125 528.642578125 288.708984375 527.4296875 287.866210938 c 6
 494.095703125 264.533203125 l 5
 531.76171875 233.866210938 l 6
 532.744140625 232.939453125 533.37109375 231.640625 533.4296875 230.19921875 c 6x0e
 533.4296875 194.166015625 l 5x16
681.49609375 234.19921875 m 5
 688.462890625 338.899414062 l 5
 586.12890625 265.533203125 l 5
 586.12890625 158.19921875 l 5
 681.49609375 234.19921875 l 5
724.49609375 274.533203125 m 5
 733.162109375 377.932617188 l 5
 633.162109375 440.932617188 l 5
 633.162109375 394.56640625 l 5
 697.49609375 352.233398438 l 6
 697.564453125 351.965820312 697.6015625 351.689453125 697.6015625 351.401367188 c 4
 697.6015625 351.112304688 697.564453125 350.833007812 697.49609375 350.56640625 c 4
 697.5859375 350.248046875 697.634765625 349.9140625 697.634765625 349.567382812 c 4
 697.634765625 349.219726562 697.5859375 348.884765625 697.49609375 348.56640625 c 6
 694.49609375 295.56640625 l 5
 724.49609375 274.533203125 l 5
809.49609375 336.56640625 m 5
 823.1953125 434.266601562 l 5
 742.162109375 378.233398438 l 5
 733.49609375 276.233398438 l 5
 809.49609375 336.56640625 l 5
EndSplineSet
Validated: 524289
EndChar

StartChar: glyph1
Encoding: 65537 -1 10
Width: 0
GlyphClass: 2
Flags: W
LayerCount: 2
Fore
SplineSet
0 0 m 1024
EndSplineSet
Validated: 1
EndChar

StartChar: uniE906
Encoding: 59654 59654 11
Width: 1000
Flags: W
HStem: -30.9277 164.723<498.098 597.994> 7.11035 126.225<208.177 334.331> 133.335 163.731<334.367 497.638> 133.335 105.471<102.706 208.142>
VStem: 72.7793 164.263<394.355 490.297> 102.706 105.436<133.335 238.806> 208.177 126.154<7.11035 133.335> 334.367 163.73<133.795 297.066>
LayerCount: 2
Fore
SplineSet
499.018554688 819.072265625 m 1x89
 498.983398438 819.072265625 l 1
 545.630859375 818.802734375 590.688476562 811.374023438 633 798 c 0
 760.145507812 758.013671875 861.791992188 656.864257812 901.28125 529.71875 c 0
 992.301757812 237.814453125 776.012695312 -30.927734375 497.637695312 -30.927734375 c 1x89
 497.637695312 133.334960938 l 1
 334.3671875 133.334960938 l 1
 334.3671875 297.06640625 l 1
 498.09765625 297.06640625 l 1x29
 498.09765625 133.794921875 l 1
 672.206054688 134.114257812 807.25 306.876953125 740.34765625 490.228515625 c 0
 715.508789062 558.350585938 661.588867188 612.28125 593.475585938 637.13671875 c 0
 409.946289062 703.579101562 237.041992188 568.711914062 237.041992188 394.35546875 c 1
 72.779296875 394.35546875 l 1
 72.779296875 628.884765625 264.135742188 819.78125 499.018554688 819.072265625 c 1x89
334.331054688 133.334960938 m 1x43
 334.331054688 7.1103515625 l 1
 208.176757812 7.1103515625 l 1
 208.176757812 133.334960938 l 1
 334.331054688 133.334960938 l 1x43
208.141601562 133.334960938 m 1x15
 102.706054688 133.334960938 l 1
 102.706054688 238.805664062 l 1
 208.141601562 238.805664062 l 1
 208.141601562 133.334960938 l 1x15
EndSplineSet
Validated: 524321
EndChar

StartChar: uniE907
Encoding: 59655 59655 12
Width: 1000
Flags: W
HStem: 7.86426 157.963<424.507 575.903> 351.23 58.334<486.548 513.349> 451.719 101.545<450.629 473.796 525.869 549.067>
LayerCount: 2
Fore
SplineSet
440.115234375 317.564453125 m 5
 440.348632812 317.23046875 l 5
 407.047851562 236.796875 l 5
 375.309570312 257.116210938 350.890625 287.379882812 337.881835938 323.364257812 c 5
 423.815429688 337.930664062 l 5
 423.948242188 337.763671875 l 6
 424.8125 337.922851562 425.703125 338.005859375 426.612304688 338.005859375 c 4
 434.70703125 338.005859375 441.279296875 331.43359375 441.279296875 323.338867188 c 4
 441.279296875 321.29296875 440.83984375 319.333984375 440.08203125 317.564453125 c 5
 440.115234375 317.564453125 l 5
412.348632812 388.530273438 m 6
 412.28125 388.23046875 l 5
 328.481445312 364.064453125 l 5
 327.796875 370.283203125 327.560546875 376.608398438 327.560546875 383.008789062 c 4
 327.560546875 415.822265625 336.798828125 446.494140625 352.815429688 472.564453125 c 5
 418.181640625 414.09765625 l 5
 418.115234375 413.73046875 l 6
 421.19921875 411.041015625 423.137695312 407.087890625 423.137695312 402.678710938 c 4
 423.137695312 395.92578125 418.564453125 390.232421875 412.348632812 388.530273438 c 6
450.514648438 454.530273438 m 5
 450.514648438 454.497070312 l 5
 450.381835938 454.430664062 l 5
 378.815429688 505.197265625 l 5
 405.275390625 531.225585938 440.346679688 548.728515625 479.1484375 553.263671875 c 5
 474.1484375 465.930664062 l 5
 473.815429688 465.763671875 l 6
 473.48828125 457.958007812 467.034179688 451.71875 459.1484375 451.71875 c 4
 455.921875 451.71875 452.9375 452.762695312 450.514648438 454.530273438 c 5
475.848632812 362.864257812 m 5
 475.848632812 362.831054688 l 5
 469.881835938 388.796875 l 5
 486.547851562 409.564453125 l 5
 513.348632812 409.564453125 l 5
 530.014648438 388.796875 l 5
 524.014648438 362.796875 l 5
 499.948242188 351.23046875 l 5
 475.848632812 362.864257812 l 5
525.848632812 466.030273438 m 6
 525.78125 466.064453125 l 5
 520.848632812 553.23046875 l 5
 559.373046875 548.458007812 594.198242188 531.000976562 620.58203125 505.1640625 c 5
 549.448242188 454.73046875 l 5
 549.181640625 454.831054688 l 6
 546.752929688 453.047851562 543.743164062 451.99609375 540.501953125 451.99609375 c 4
 532.618164062 451.99609375 526.1796875 458.228515625 525.848632812 466.030273438 c 6
888.381835938 267.030273438 m 6
 695.948242188 27.6640625 l 6
 686.16796875 15.5673828125 671.208984375 7.8271484375 654.45703125 7.8271484375 c 4
 654.4140625 7.8271484375 654.391601562 7.8642578125 654.348632812 7.8642578125 c 6
 345.6484375 7.763671875 l 5
 345.607421875 7.763671875 l 6
 328.82421875 7.763671875 313.861328125 15.49609375 304.08203125 27.630859375 c 6
 111.547851562 266.963867188 l 6
 104.333007812 275.989257812 100.016601562 287.432617188 100.016601562 299.875 c 4
 100.016601562 303.913085938 100.454101562 307.8515625 101.315429688 311.630859375 c 6
 169.981445312 610.130859375 l 6
 173.58203125 625.796875 184.1484375 638.930664062 198.748046875 645.897460938 c 6
 476.815429688 778.796875 l 6
 483.79296875 782.1328125 491.60546875 784 499.849609375 784 c 4
 508.09375 784 516.002929688 782.1328125 522.981445312 778.796875 c 6
 801.1484375 645.963867188 l 6
 815.748046875 638.997070312 826.315429688 625.831054688 829.915039062 610.197265625 c 6
 898.6484375 311.697265625 l 6
 902.248046875 296.030273438 898.481445312 279.59765625 888.381835938 267.030273438 c 6
778.748046875 335.59765625 m 4
 777.348632812 335.930664062 775.315429688 336.463867188 773.915039062 336.73046875 c 4
 768.115234375 337.831054688 763.415039062 337.564453125 757.948242188 337.997070312 c 4
 746.28125 339.23046875 736.681640625 340.23046875 728.115234375 342.930664062 c 4
 724.615234375 344.263671875 722.115234375 348.430664062 720.915039062 350.130859375 c 6
 714.21484375 352.09765625 l 6
 715.547851562 361.766601562 716.236328125 371.639648438 716.236328125 381.672851562 c 4
 716.236328125 398.348632812 714.315429688 414.241210938 710.71484375 429.831054688 c 4
 704.755859375 455.856445312 693.9609375 480.434570312 679.514648438 501.930664062 c 4
 681.248046875 503.497070312 684.514648438 506.364257812 685.415039062 507.23046875 c 4
 685.681640625 510.23046875 685.448242188 513.331054688 688.547851562 516.630859375 c 4
 695.115234375 522.796875 703.348632812 527.897460938 713.315429688 534.030273438 c 4
 718.047851562 536.831054688 722.415039062 538.59765625 727.1484375 542.09765625 c 4
 728.21484375 542.897460938 729.681640625 544.1640625 730.815429688 545.064453125 c 4
 738.815429688 551.430664062 740.6484375 562.397460938 734.915039062 569.59765625 c 4
 729.181640625 576.796875 718.047851562 577.463867188 710.08203125 571.09765625 c 4
 708.948242188 570.197265625 707.415039062 569.030273438 706.381835938 568.1640625 c 4
 701.915039062 564.296875 699.1484375 560.497070312 695.381835938 556.497070312 c 4
 687.181640625 548.1640625 680.381835938 541.23046875 672.948242188 536.197265625 c 4
 669.71484375 534.331054688 664.981445312 534.963867188 662.848632812 535.09765625 c 6
 656.514648438 530.59765625 l 6
 621.072265625 567.791015625 572.423828125 592.448242188 518.315429688 597.364257812 c 6
 517.915039062 604.796875 l 6
 515.748046875 606.864257812 513.1484375 608.630859375 512.481445312 613.130859375 c 4
 511.748046875 622.064453125 512.981445312 631.697265625 514.381835938 643.296875 c 4
 515.1484375 648.73046875 516.415039062 653.23046875 516.6484375 659.130859375 c 4
 516.681640625 660.463867188 516.615234375 662.430664062 516.615234375 663.864257812 c 4
 516.615234375 674.064453125 509.1484375 682.364257812 499.948242188 682.364257812 c 4
 490.78125 682.364257812 483.315429688 674.064453125 483.315429688 663.864257812 c 6
 483.348632812 663.397460938 l 6
 483.348632812 662.030273438 483.28125 660.331054688 483.348632812 659.130859375 c 4
 483.547851562 653.23046875 484.815429688 648.73046875 485.58203125 643.296875 c 4
 486.981445312 631.697265625 488.181640625 622.064453125 487.448242188 613.09765625 c 4
 486.489257812 609.731445312 484.594726562 606.76171875 482.047851562 604.497070312 c 6
 481.6484375 597.463867188 l 6
 427.125976562 593.0859375 378.140625 568.3046875 342.78125 530.697265625 c 4
 340.75390625 532.098632812 338.76953125 533.510742188 336.78125 534.963867188 c 4
 333.78125 534.564453125 330.78125 533.630859375 326.881835938 535.930664062 c 4
 319.448242188 540.930664062 312.6484375 547.864257812 304.448242188 556.197265625 c 4
 300.681640625 560.197265625 297.948242188 563.997070312 293.481445312 567.831054688 c 4
 292.481445312 568.697265625 290.915039062 569.897460938 289.78125 570.763671875 c 4
 286.591796875 573.349609375 282.556640625 574.971679688 278.181640625 575.1640625 c 4
 277.896484375 575.178710938 277.608398438 575.186523438 277.319335938 575.186523438 c 4
 272.3125 575.186523438 267.856445312 572.897460938 264.915039062 569.296875 c 4
 259.181640625 562.09765625 261.014648438 551.09765625 269.014648438 544.73046875 c 6
 269.248046875 544.564453125 l 5
 272.71484375 541.796875 l 6
 277.448242188 538.296875 281.78125 536.497070312 286.514648438 533.73046875 c 4
 296.481445312 527.564453125 304.71484375 522.463867188 311.28125 516.331054688 c 4
 313.815429688 513.59765625 314.28125 508.796875 314.615234375 506.73046875 c 6
 319.948242188 501.963867188 l 6
 297.165039062 467.801757812 283.879882812 426.774414062 283.879882812 382.66796875 c 4
 283.879882812 372.17578125 284.49609375 361.857421875 285.948242188 351.763671875 c 6
 279.014648438 349.763671875 l 6
 277.181640625 347.364257812 274.58203125 343.630859375 271.848632812 342.530273438 c 4
 263.28125 339.831054688 253.6484375 338.864257812 242.014648438 337.630859375 c 4
 236.547851562 337.1640625 231.848632812 337.430664062 226.014648438 336.331054688 c 4
 224.78125 336.09765625 223.014648438 335.6640625 221.58203125 335.331054688 c 6
 221.448242188 335.263671875 l 5
 221.21484375 335.197265625 l 6
 211.381835938 332.831054688 205.08203125 323.796875 207.115234375 314.930664062 c 4
 209.1484375 306.030273438 218.748046875 300.630859375 228.615234375 302.763671875 c 6
 228.848632812 302.796875 l 5
 229.181640625 302.897460938 l 5
 233.481445312 303.864257812 l 6
 239.1484375 305.397460938 243.28125 307.630859375 248.415039062 309.59765625 c 4
 259.415039062 313.530273438 268.547851562 316.831054688 277.415039062 318.130859375 c 4
 281.1484375 318.430664062 285.08203125 315.831054688 287.014648438 314.763671875 c 6
 294.248046875 315.997070312 l 6
 310.6796875 265.228515625 345.073242188 222.796875 390.248046875 196.130859375 c 6
 387.248046875 188.864257812 l 6
 388.348632812 186.064453125 389.547851562 182.23046875 388.71484375 179.463867188 c 4
 385.481445312 171.064453125 379.948242188 162.23046875 373.6484375 152.364257812 c 4
 370.615234375 147.831054688 367.481445312 144.296875 364.71484375 139.064453125 c 4
 364.047851562 137.831054688 363.21484375 135.897460938 362.58203125 134.59765625 c 4
 358.315429688 125.430664062 361.448242188 114.897460938 369.681640625 110.930664062 c 4
 377.948242188 106.930664062 388.21484375 111.1640625 392.681640625 120.331054688 c 6
 392.681640625 120.397460938 l 6
 393.348632812 121.697265625 394.21484375 123.397460938 394.748046875 124.630859375 c 4
 397.08203125 130.030273438 397.881835938 134.6640625 399.547851562 139.897460938 c 4
 403.948242188 150.963867188 406.381835938 162.564453125 412.448242188 169.796875 c 4
 414.115234375 171.796875 416.78125 172.530273438 419.615234375 173.296875 c 6
 423.381835938 180.130859375 l 6
 447.357421875 170.892578125 473.3984375 165.827148438 500.614257812 165.827148438 c 4
 527.436523438 165.827148438 553.326171875 170.744140625 577.014648438 179.73046875 c 6
 580.547851562 173.331054688 l 6
 583.415039062 172.397460938 586.547851562 171.930664062 589.08203125 168.1640625 c 4
 593.615234375 160.430664062 596.71484375 151.263671875 600.481445312 140.1640625 c 4
 602.1484375 134.963867188 602.948242188 130.331054688 605.315429688 124.930664062 c 4
 605.848632812 123.697265625 606.748046875 121.930664062 607.381835938 120.630859375 c 4
 611.815429688 111.430664062 622.115234375 107.23046875 630.381835938 111.23046875 c 4
 638.615234375 115.1640625 641.748046875 125.73046875 637.481445312 134.897460938 c 4
 636.815429688 136.197265625 635.981445312 138.09765625 635.315429688 139.364257812 c 4
 632.547851562 144.564453125 629.415039062 148.064453125 626.381835938 152.630859375 c 4
 620.047851562 162.497070312 614.848632812 170.6640625 611.615234375 179.064453125 c 4
 610.28125 183.397460938 611.848632812 186.064453125 612.881835938 188.864257812 c 4
 612.28125 189.59765625 610.915039062 193.6640625 610.115234375 195.59765625 c 4
 655.438476562 222.459960938 689.869140625 265.221679688 706.115234375 316.331054688 c 4
 708.248046875 315.997070312 711.981445312 315.331054688 713.21484375 315.064453125 c 4
 715.71484375 316.73046875 718.014648438 318.864257812 722.547851562 318.530273438 c 4
 731.415039062 317.23046875 740.547851562 313.930664062 751.547851562 309.997070312 c 4
 756.681640625 307.997070312 760.78125 305.73046875 766.481445312 304.23046875 c 4
 767.681640625 303.897460938 769.415039062 303.59765625 770.815429688 303.296875 c 6
 771.115234375 303.197265625 l 5
 771.348632812 303.1640625 l 6
 781.248046875 301.030273438 790.815429688 306.430664062 792.848632812 315.331054688 c 4
 794.848632812 324.197265625 788.58203125 333.23046875 778.748046875 335.59765625 c 4
646.6484375 472.530273438 m 5
 646.6484375 472.564453125 l 5
 656.434570312 456.69140625 663.838867188 438.841796875 668.115234375 420.130859375 c 4
 671.004882812 407.590820312 672.545898438 394.806640625 672.545898438 381.39453125 c 4
 672.545898438 375.63671875 672.264648438 369.944335938 671.71484375 364.331054688 c 5
 587.514648438 388.59765625 l 5
 587.415039062 388.930664062 l 6
 581.184570312 390.623046875 576.584960938 396.318359375 576.584960938 403.08203125 c 4
 576.584960938 407.504882812 578.546875 411.473632812 581.6484375 414.1640625 c 6
 581.6484375 414.331054688 l 5
 646.6484375 472.530273438 l 5
512.881835938 295.030273438 m 6
 513.21484375 295.030273438 l 5
 555.547851562 218.497070312 l 5
 538.203125 212.614257812 519.546875 209.424804688 500.223632812 209.424804688 c 4
 480.79296875 209.424804688 462.110351562 212.651367188 444.681640625 218.59765625 c 5
 486.948242188 294.997070312 l 5
 487.014648438 294.997070312 l 6
 489.399414062 299.477539062 494.0390625 302.563476562 499.415039062 302.763671875 c 4
 499.615234375 302.772460938 499.798828125 302.791015625 500.001953125 302.791015625 c 4
 505.583984375 302.791015625 510.436523438 299.64453125 512.881835938 295.030273438 c 6
575.815429688 338.130859375 m 6
 575.948242188 338.296875 l 5
 662.615234375 323.630859375 l 5
 649.71484375 287.362304688 625.189453125 256.85546875 593.248046875 236.463867188 c 5
 559.58203125 317.73046875 l 5
 559.681640625 317.864257812 l 6
 558.908203125 319.649414062 558.458007812 321.62109375 558.458007812 323.689453125 c 4
 558.458007812 329.525390625 561.875 334.5703125 566.815429688 336.930664062 c 4
 568.731445312 337.849609375 570.879882812 338.373046875 573.145507812 338.373046875 c 4
 574.056640625 338.373046875 574.94921875 338.290039062 575.815429688 338.130859375 c 6
EndSplineSet
Validated: 524321
EndChar

StartChar: uniE908
Encoding: 59656 59656 13
Width: 1000
Flags: W
LayerCount: 2
Fore
SplineSet
822.166992188 381 m 5
 882.400390625 402.80078125 l 5
 887.5 339.900390625 876.099609375 276.733398438 849.366210938 219.567382812 c 4
 822.599609375 161.833984375 781.233398438 112.067382812 729.400390625 75.1669921875 c 4
 564.366210938 -42.3662109375 335.299804688 -3.8330078125 217.766601562 161.166992188 c 5
 157.366210938 139.200195312 l 6
 130.733398438 176.766601562 111.266601562 218.93359375 100 263.567382812 c 6
 214 305.30078125 l 6
 208.93359375 325.233398438 205.533203125 345.534179688 203.833007812 366.034179688 c 5
 150.366210938 346.567382812 l 5
 140.333007812 474.93359375 198.299804688 599.200195312 303.099609375 674 c 4
 468.133789062 791.766601562 697.400390625 753.5 815.200195312 588.5 c 5
 868.56640625 607.93359375 l 6
 880.5 591.166992188 891.06640625 573.30078125 900 554.766601562 c 5
 786.166992188 513.200195312 l 5
 806.299804688 471.80078125 818.5 426.900390625 822.166992188 381 c 5
664.166992188 468.833984375 m 5
 777.900390625 510.333984375 l 5
 767.633789062 528.766601562 755 545.80078125 740.299804688 560.93359375 c 4
 740.233398438 561 740.166992188 561.034179688 740.099609375 561.100585938 c 6
 686.799804688 541.700195312 l 6
 666.833007812 562.233398438 643.333007812 579 617.400390625 591.133789062 c 5
 617.400390625 590.93359375 l 5
 591.133789062 603.266601562 562.866210938 610.700195312 533.93359375 612.8671875 c 4
 402.866210938 622.666992188 288.666992188 524.3671875 278.866210938 393.30078125 c 5
 332.333007812 412.733398438 l 5
 332.533203125 412.733398438 l 5
 330.93359375 391.600585938 332.200195312 370.333984375 336.233398438 349.534179688 c 6
 222.033203125 308.133789062 l 6
 230.799804688 262.067382812 252.833007812 219.567382812 285.466796875 185.900390625 c 6
 345.900390625 207.900390625 l 6
 365.93359375 187.233398438 389.56640625 170.400390625 415.633789062 158.233398438 c 4
 535.166992188 102.700195312 677.099609375 154.5 732.766601562 273.966796875 c 4
 744.900390625 299.8671875 752.200195312 327.80078125 754.299804688 356.333984375 c 5
 694 334.43359375 l 5
 697.43359375 381.200195312 687.06640625 427.93359375 664.166992188 468.833984375 c 5
EndSplineSet
Validated: 524321
EndChar

StartChar: uniE909
Encoding: 59657 59657 14
Width: 868
Flags: W
HStem: 103.366 46.8525<335.588 421.888 469.594 540.43> 305.1 48.2383<490.384 556.259> 305.1 39.2422<323.96 389.588> 374.8 48.0254<114.612 172.625 323.96 382.044> 448.184 39.7373<323.96 389.588> 644.545 48.0137<334.998 421.923 469.629 540.447>
VStem: 66.5166 48.0957<305.1 374.8 422.825 487.921> 172.696 48.0596<305.1 374.8 422.825 487.921> 275.9 113.688<305.1 344.342 448.184 487.921> 275.9 48.0596<344.342 377.987 418.434 448.184> 415.441 61.0234<-24.0264 101.451 693.2 818.747> 442.287 113.972<305.1 353.338> 442.287 48.0967<353.338 487.921> 608.958 48.3086<305.1 398.706> 753.14 48.3438<305.1 398.954>
LayerCount: 2
Fore
SplineSet
445.935546875 822.360351562 m 0x9f26
 462.793945312 822.360351562 476.46484375 786.376953125 476.46484375 742 c 0
 476.46484375 722.803710938 473.87890625 705.202148438 469.62890625 691.389648438 c 1
 520.19921875 686.1484375 567.685546875 668.208007812 607.71875 641.09765625 c 1
 613.3046875 657.9921875 621.466796875 673.873046875 631.66015625 688.025390625 c 0
 653.123046875 718.731445312 679.119140625 738.918945312 695.056640625 738.670898438 c 0
 695.102539062 738.670898438 695.159179688 738.663085938 695.205078125 738.663085938 c 0
 697.994140625 738.663085938 700.586914062 737.817382812 702.741210938 736.369140625 c 0
 716.553710938 726.700195312 707.09765625 689.40625 681.633789062 653.033203125 c 0
 669.485351562 635.678710938 655.849609375 621.724609375 643.454101562 612.90625 c 1
 661.16796875 596.654296875 676.681640625 578.686523438 690.204101562 558.71875 c 1
 628.827148438 558.71875 l 2
 582.223632812 611.346679688 514.208007812 644.426757812 438.453125 644.426757812 c 0
 438.374023438 644.426757812 438.293945312 644.426757812 438.21484375 644.426757812 c 0
 438.15234375 644.426757812 438.135742188 644.544921875 438.073242188 644.544921875 c 0
 362.306640625 644.544921875 294.235351562 611.33203125 247.637695312 558.68359375 c 2
 186.224609375 558.68359375 l 1
 201.604492188 581.415039062 219.598632812 601.607421875 240.341796875 619.458007812 c 1
 230.389648438 628.064453125 220.047851562 639.5390625 210.591796875 653.033203125 c 0
 185.126953125 689.40625 175.670898438 726.700195312 189.483398438 736.369140625 c 0
 191.64453125 737.838867188 194.264648438 738.706054688 197.073242188 738.706054688 c 0
 197.104492188 738.706054688 197.13671875 738.706054688 197.168945312 738.706054688 c 0
 213.106445312 738.918945312 239.102539062 718.731445312 260.564453125 688.060546875 c 0
 269.03125 676.14453125 276.149414062 663.120117188 281.637695312 649.349609375 c 1
 322.814453125 674.293945312 370.974609375 689.860351562 421.922851562 692.55859375 c 1
 417.885742188 706.193359375 415.44140625 723.334960938 415.44140625 742 c 0
 415.44140625 786.376953125 429.112304688 822.360351562 445.935546875 822.360351562 c 0x9f26
66.5166015625 487.920898438 m 1
 114.541992188 487.920898438 l 1
 114.541992188 422.825195312 l 1
 172.625 422.825195312 l 1
 172.625 487.920898438 l 1
 220.755859375 487.920898438 l 1
 220.755859375 305.099609375 l 1
 172.696289062 305.099609375 l 1
 172.696289062 374.799804688 l 1
 114.612304688 374.799804688 l 1
 114.612304688 305.099609375 l 1
 66.5166015625 305.099609375 l 1xbf06
 66.5166015625 487.920898438 l 1
275.900390625 487.920898438 m 1xbf86
 389.587890625 487.920898438 l 1
 389.587890625 448.18359375 l 1xbf86
 323.959960938 448.18359375 l 1
 323.959960938 418.43359375 l 1
 382.043945312 418.43359375 l 1
 382.043945312 377.987304688 l 1
 323.959960938 377.987304688 l 1
 323.959960938 344.341796875 l 1xbf46
 389.587890625 344.341796875 l 1
 389.587890625 305.099609375 l 1
 275.900390625 305.099609375 l 1
 275.900390625 487.920898438 l 1xbf86
442.287109375 487.920898438 m 1xbf0e
 490.383789062 487.920898438 l 1
 490.383789062 353.337890625 l 1xdf0e
 556.258789062 353.337890625 l 1
 556.258789062 305.099609375 l 1xdf16
 442.287109375 305.099609375 l 1xbf16
 442.287109375 487.920898438 l 1xbf0e
608.958007812 487.920898438 m 1
 630.668945312 487.920898438 l 1
 705.362304688 420.1328125 l 1
 779.737304688 487.920898438 l 1
 801.483398438 487.920898438 l 1
 801.483398438 305.099609375 l 1
 753.139648438 305.099609375 l 1
 753.139648438 398.954101562 l 1
 705.327148438 355.3203125 l 1
 657.266601562 398.706054688 l 1
 657.266601562 305.099609375 l 1
 608.958007812 305.099609375 l 1xbf06
 608.958007812 487.920898438 l 1
190.333007812 230.087890625 m 1
 253.091796875 230.051757812 l 2
 299.434570312 180.911132812 365.124023438 150.293945312 437.934570312 150.293945312 c 0
 438.015625 150.293945312 438.09765625 150.293945312 438.178710938 150.293945312 c 0
 438.272460938 150.293945312 438.357421875 150.21875 438.451171875 150.21875 c 0
 511.26171875 150.21875 576.958984375 180.911132812 623.301757812 230.051757812 c 2
 686.025390625 230.051757812 l 1
 673.461914062 212.423828125 659.3671875 196.484375 643.454101562 181.885742188 c 1
 655.849609375 173.03125 669.450195312 159.041992188 681.59765625 141.6875 c 0
 707.0625 105.314453125 716.518554688 68.0205078125 702.706054688 58.3515625 c 0
 688.893554688 48.68359375 657.08984375 70.3232421875 631.625 106.66015625 c 0
 620.185546875 123.022460938 612.00390625 139.491210938 607.71875 153.658203125 c 1
 567.67578125 126.54296875 520.176757812 108.602539062 469.59375 103.366210938 c 1
 473.87890625 89.5537109375 476.428710938 71.9169921875 476.428710938 52.720703125 c 0
 476.428710938 8.34375 462.758789062 -27.6396484375 445.900390625 -27.6396484375 c 0
 429.077148438 -27.6396484375 415.40625 8.34375 415.40625 52.720703125 c 0
 415.399414062 53.3603515625 415.419921875 53.9248046875 415.419921875 54.56640625 c 0
 415.419921875 71.05078125 417.672851562 87.013671875 421.887695312 102.162109375 c 1
 370.94140625 104.849609375 322.782226562 120.404296875 281.602539062 145.334960938 c 1
 276.111328125 131.578125 268.994140625 118.565429688 260.529296875 106.66015625 c 0
 235.099609375 70.3232421875 203.260742188 48.68359375 189.448242188 58.3515625 c 0
 175.670898438 68.0205078125 185.091796875 105.314453125 210.556640625 141.6875 c 0
 219.143554688 154.141601562 229.030273438 165.279296875 240.341796875 175.262695312 c 1
 221.423828125 191.537109375 204.834960938 209.71484375 190.333007812 230.087890625 c 1
EndSplineSet
Validated: 524321
EndChar

StartChar: uniE90A
Encoding: 59658 59658 15
Width: 1000
Flags: W
VStem: 383.833 232.334<108.042 242.2 405.719 539.842>
LayerCount: 2
Fore
SplineSet
126 823.8125 m 1
 358.369140625 689.689453125 l 1
 358.369140625 421.301757812 l 1
 126 555.53125 l 1
 126 823.8125 l 1
874 674.106445312 m 1
 873.96484375 405.71875 l 1
 641.630859375 271.595703125 l 1
 641.630859375 539.841796875 l 1
 874 674.106445312 l 1
383.833007812 674 m 1
 616.202148438 539.841796875 l 1
 616.202148438 271.595703125 l 1
 383.833007812 405.71875 l 1
 383.833007812 674 l 1
383.833007812 376.323242188 m 1
 616.166992188 242.200195312 l 1
 616.166992188 -26.1875 l 1
 383.833007812 108.041992188 l 1
 383.833007812 376.323242188 l 1
EndSplineSet
Validated: 524289
EndChar

StartChar: uniE90B
Encoding: 59659 59659 16
Width: 1000
Flags: W
HStem: -17.1768 82.6484<369.725 603.589> 157.123 81.9111<791.242 863.339> 286.407 81.958<733.062 804.892 849.137 919.05> 304.495 177.505<426.686 542.819> 352.311 81.8516<621.657 693.64> 421.865 81.7061<731.896 803.896 848.695 919.042> 548.633 82.1738<790.375 862.46> 723.042 82.6445<371.195 602.596>
VStem: 75 82.6484<277.319 510.99> 396.003 177.501<335.18 451.313> 616.712 81.873<357.254 429.218> 728.129 81.6963<291.357 363.415 427.281 498.154> 786.291 82<162.069 234.088 554.081 625.36> 843.216 81.7559<289.267 361.124 425.09 497.153>
LayerCount: 2
Fore
SplineSet
573.50390625 393.245117188 m 5xd3e0
 573.50390625 393.249023438 l 5
 573.50390625 344.266601562 533.736328125 304.495117188 484.752929688 304.495117188 c 4
 435.770507812 304.495117188 396.002929688 344.262695312 396.002929688 393.245117188 c 4
 396.002929688 442.227539062 435.768554688 481.998046875 484.75 482 c 4
 533.732421875 482 573.50390625 442.228515625 573.50390625 393.245117188 c 5xd3e0
698.584960938 393.235351562 m 4
 698.583007812 370.649414062 680.2421875 352.3125 657.650390625 352.310546875 c 4
 635.056640625 352.310546875 616.713867188 370.6484375 616.711914062 393.235351562 c 4
 616.711914062 415.823242188 635.055664062 434.162109375 657.650390625 434.162109375 c 4xcbe0
 680.243164062 434.16015625 698.584960938 415.822265625 698.584960938 393.235351562 c 4
868.291015625 198.078125 m 4xc3e8
 868.291015625 175.474609375 849.916992188 157.123046875 827.2890625 157.123046875 c 4
 804.661132812 157.123046875 786.291015625 175.474609375 786.291015625 198.078125 c 4
 786.291015625 220.682617188 804.661132812 239.034179688 827.2890625 239.034179688 c 4
 849.916992188 239.034179688 868.291015625 220.682617188 868.291015625 198.078125 c 4xc3e8
809.825195312 327.388671875 m 6xe3f0
 809.825195312 327.384765625 l 6
 809.825195312 304.76953125 791.522460938 286.409179688 768.978515625 286.407226562 c 4
 746.43359375 286.407226562 728.12890625 304.772460938 728.12890625 327.388671875 c 4
 728.12890625 350.00390625 746.43359375 368.365234375 768.978515625 368.365234375 c 4
 791.522460938 368.36328125 809.825195312 350.002929688 809.825195312 327.388671875 c 6xe3f0
924.971679688 325.1953125 m 4xc3e4
 924.971679688 302.642578125 906.655273438 284.33203125 884.09375 284.33203125 c 4
 861.532226562 284.33203125 843.215820312 302.642578125 843.215820312 325.1953125 c 4
 843.215820312 347.749023438 861.532226562 366.059570312 884.09375 366.059570312 c 4
 906.655273438 366.059570312 924.971679688 347.749023438 924.971679688 325.1953125 c 4xc3e4
808.840820312 462.71875 m 5
 808.84375 462.71875 l 5
 808.84375 440.170898438 790.493164062 421.865234375 767.895507812 421.865234375 c 4
 745.296875 421.865234375 726.950195312 440.170898438 726.950195312 462.71875 c 4
 726.950195312 485.265625 745.30078125 503.571289062 767.8984375 503.571289062 c 4xc7e0
 790.495117188 503.569335938 808.840820312 485.264648438 808.840820312 462.71875 c 5
925 461.125 m 5
 925 461.118164062 l 6
 925 438.501953125 906.569335938 420.140625 883.8671875 420.140625 c 4
 861.166992188 420.142578125 842.737304688 438.502929688 842.737304688 461.118164062 c 6
 842.737304688 461.125 l 6
 842.737304688 483.740234375 861.166992188 502.100585938 883.8671875 502.102539062 c 4
 906.569335938 502.102539062 925 483.741210938 925 461.125 c 5
867.412109375 589.72265625 m 6
 867.412109375 589.719726562 l 6
 867.412109375 567.04296875 849.04296875 548.6328125 826.41796875 548.6328125 c 4
 803.791992188 548.6328125 785.422851562 567.046875 785.422851562 589.72265625 c 4
 785.424804688 612.397460938 803.79296875 630.806640625 826.41796875 630.806640625 c 4
 849.041992188 630.806640625 867.41015625 612.397460938 867.412109375 589.72265625 c 6
486.438476562 805.68359375 m 5
 486.435546875 805.686523438 l 5
 577.640625 805.686523438 664.028320312 776.4609375 736.282226562 721.2109375 c 5
 686.065429688 655.548828125 l 5
 628.349609375 699.702148438 559.326171875 723.041992188 486.438476562 723.041992188 c 4
 398.393554688 723.041992188 315.755859375 688.893554688 253.833007812 626.95703125 c 4
 191.807617188 564.68359375 157.6484375 482.03515625 157.6484375 394.258789062 c 4
 157.6484375 306.241210938 191.783203125 223.578125 253.69140625 161.641601562 c 4
 316.041992188 99.6162109375 398.690429688 65.4716796875 486.438476562 65.4716796875 c 4
 559.418945312 65.4716796875 628.427734375 88.8037109375 686.026367188 132.932617188 c 6
 736.303710938 67.3271484375 l 5
 664.145507812 12.048828125 577.743164062 -17.1767578125 486.438476562 -17.1767578125 c 4
 376.704101562 -17.1767578125 273.340820312 25.521484375 195.32421875 103.162109375 c 4
 117.737304688 180.7734375 75 284.151367188 75 394.26171875 c 4
 75 504.021484375 117.712890625 607.385742188 195.32421875 685.358398438 c 4
 272.912109375 762.959960938 376.299804688 805.68359375 486.438476562 805.68359375 c 5
EndSplineSet
Validated: 524293
EndChar

StartChar: uniE90C
Encoding: 59660 59660 17
Width: 1000
Flags: W
HStem: -24.917 35.417<429.926 534.243 748.671 852.993> 81.333 35.417<301.11 363.286 429.173 464.577 500.006 535.411 642.011 678.488> 187.583 35.417<429.911 534.243 748.625 852.993> 258.416 35.417<429.926 534.655 748.679 852.993> 335.058 61.9473<435.024 463.8 753.752 782.515> 364.666 35.417<288.265 363.286 601.288 682.049> 470.916 35.417<253.783 318.08 429.911 534.657 748.679 852.993> 789.666 35.417<185.911 318.256>
VStem: 75 35.417<580.311 714.172> 181.25 35.417<591.262 704.454> 216.667 35.416<165.777 401.57> 359.75 34<49.2879 81.333 116.75 148.821 332.621 364.666 400.083 432.154> 393.75 35.417<580.025 714.172> 429.167 35.416<81.3388 116.744> 500 35.417<81.3388 116.744> 570.833 35.417<47.0902 150.993 330.126 364.666 400.083 434.628> 641.988 70.5117<82.4593 115.332> 678.5 34<49.3453 81.4043 116.362 150.255 332.625 364.666 400.083 432.124> 889.583 35.417<47.0902 150.993 330.424 434.326>
LayerCount: 2
Fore
SplineSet
464.016601562 335.057617188 m 4xfb8320
 459.139648438 335.05859375 454.717773438 337.033203125 451.514648438 340.228515625 c 6
 425.12890625 366.54296875 l 6
 421.784179688 369.765625 419.701171875 374.290039062 419.701171875 379.296875 c 4
 419.701171875 389.0703125 427.63671875 397.004882812 437.41015625 397.004882812 c 4
 442.3984375 397.004882812 446.913085938 394.942382812 450.133789062 391.618164062 c 6
 464.016601562 377.770507812 l 5
 505.84375 419.5625 l 6
 509.051757812 422.7734375 513.484375 424.76171875 518.376953125 424.76171875 c 4
 528.15625 424.76171875 536.095703125 416.822265625 536.095703125 407.04296875 c 4
 536.095703125 402.159179688 534.120117188 397.728515625 530.918945312 394.522460938 c 6
 476.553710938 340.228515625 l 6
 473.333984375 337.038085938 468.90234375 335.065429688 464.016601562 335.057617188 c 4xfb8320
795.268554688 340.264648438 m 6
 792.077148438 337.034179688 787.641601562 335.032226562 782.747070312 335.032226562 c 4
 777.870117188 335.032226562 773.454101562 337.020507812 770.264648438 340.228515625 c 6
 743.84375 366.54296875 l 6
 740.498046875 369.765625 738.420898438 374.294921875 738.420898438 379.301757812 c 4
 738.420898438 389.075195312 746.356445312 397.009765625 756.129882812 397.009765625 c 4
 761.118164062 397.009765625 765.627929688 394.942382812 768.84765625 391.618164062 c 6
 782.731445312 377.770507812 l 5
 824.55859375 419.5625 l 6
 827.745117188 422.639648438 832.0859375 424.529296875 836.861328125 424.529296875 c 4
 846.634765625 424.529296875 854.569335938 416.59375 854.569335938 406.8203125 c 4
 854.569335938 402.044921875 852.67578125 397.708984375 849.59765625 394.522460938 c 6
 795.268554688 340.264648438 l 6
235.331054688 561.158203125 m 6
 229.924804688 557.818359375 223.517578125 555.870117188 216.702148438 555.870117188 c 4
 197.155273438 555.870117188 181.282226562 571.72265625 181.25 591.26171875 c 6
 181.25 704.454101562 l 6xf3c320
 181.251953125 723.999023438 197.158203125 739.844726562 216.704101562 739.844726562 c 4
 223.625 739.844726562 230.0859375 737.854492188 235.543945312 734.416015625 c 6
 326.104492188 677.395507812 l 6
 336.076171875 671.126953125 342.709960938 660.071289062 342.709960938 647.432617188 c 4
 342.709960938 634.706054688 335.982421875 623.537109375 325.891601562 617.29296875 c 6
 235.331054688 561.158203125 l 6
307.227539062 647.432617188 m 5
 216.666992188 704.454101562 l 5
 216.666992188 591.26171875 l 5
 307.227539062 647.432617188 l 5
925 382.375 m 4
 925 314.020507812 869.395507812 258.416015625 801.041992188 258.416015625 c 4
 738.768554688 258.53515625 687.192382812 304.758789062 678.5 364.666015625 c 6
 604.833007812 364.666015625 l 6
 596.141601562 304.758789062 544.564453125 258.53515625 482.291992188 258.416015625 c 4
 420.01171875 258.520507812 368.427734375 304.750976562 359.75 364.666015625 c 6
 339.987304688 364.666015625 l 6
 305.5625 364.666015625 274.466796875 378.797851562 252.083007812 401.5703125 c 5
 252.083007812 223 l 6
 252.083007812 164.420898438 299.75390625 116.75 358.333007812 116.75 c 6
 359.75 116.75 l 6
 368.391601562 176.709960938 419.958007812 223 482.291992188 223 c 4
 550.645507812 223 606.25 167.395507812 606.25 99.041015625 c 4
 606.25 30.6875 550.645507812 -24.9169921875 482.291992188 -24.9169921875 c 4
 420.01171875 -24.8134765625 368.427734375 21.41796875 359.75 81.3330078125 c 6xf7b360
 358.333007812 81.3330078125 l 6
 280.204101562 81.3330078125 216.666992188 144.870117188 216.666992188 223 c 6
 216.666992188 474.493164062 l 6
 136.000976562 491.068359375 75.111328125 562.485351562 75 648 c 4
 75 745.643554688 154.439453125 825.083007812 252.083007812 825.083007812 c 4
 349.727539062 825.083007812 429.166992188 745.643554688 429.166992188 648 c 4xf7ab20
 429.036132812 550.916015625 350.65625 472.012695312 253.783203125 470.987304688 c 5
 261.735351562 430.642578125 297.330078125 400.102539062 339.987304688 400.083007812 c 6
 359.75 400.083007812 l 6
 368.391601562 460.04296875 419.958007812 506.333007812 482.291992188 506.333007812 c 4
 544.571289062 506.229492188 596.155273438 459.998046875 604.833007812 400.083007812 c 6
 678.5 400.083007812 l 6xf79360
 687.192382812 459.991210938 738.768554688 506.213867188 801.041992188 506.333007812 c 4
 869.395507812 506.333007812 925 450.728515625 925 382.375 c 4
393.75 99.041015625 m 4xf38b20
 393.75 50.2373046875 433.487304688 10.5 482.291992188 10.5 c 4
 531.095703125 10.5 570.833007812 50.2373046875 570.833007812 99.041015625 c 4
 570.833007812 147.845703125 531.095703125 187.583007812 482.291992188 187.583007812 c 4
 433.487304688 187.583007812 393.75 147.845703125 393.75 99.041015625 c 4xf38b20
252.083007812 506.333007812 m 4xf3ab20
 330.212890625 506.333007812 393.75 569.870117188 393.75 648 c 4
 393.75 726.12890625 330.212890625 789.666015625 252.083007812 789.666015625 c 4
 173.954101562 789.666015625 110.416992188 726.12890625 110.416992188 648 c 4
 110.416992188 569.870117188 173.954101562 506.333007812 252.083007812 506.333007812 c 4xf3ab20
570.833007812 382.375 m 4
 570.833007812 431.178710938 531.095703125 470.916015625 482.291992188 470.916015625 c 4
 433.487304688 470.916015625 393.75 431.178710938 393.75 382.375 c 4
 393.75 333.5703125 433.487304688 293.833007812 482.291992188 293.833007812 c 4
 531.095703125 293.833007812 570.833007812 333.5703125 570.833007812 382.375 c 4
889.583007812 382.375 m 4
 889.583007812 431.178710938 849.845703125 470.916015625 801.041992188 470.916015625 c 4
 752.237304688 470.916015625 712.5 431.178710938 712.5 382.375 c 4xf38360
 712.5 333.5703125 752.237304688 293.833007812 801.041992188 293.833007812 c 4
 849.845703125 293.833007812 889.583007812 333.5703125 889.583007812 382.375 c 4
429.166992188 99.041015625 m 4xf38720
 429.166992188 108.814453125 437.1015625 116.75 446.875 116.75 c 4
 456.6484375 116.75 464.583007812 108.814453125 464.583007812 99.041015625 c 4
 464.583007812 89.267578125 456.6484375 81.3330078125 446.875 81.3330078125 c 4
 437.1015625 81.3330078125 429.166992188 89.267578125 429.166992188 99.041015625 c 4xf38720
500 99.041015625 m 4
 500 108.814453125 507.934570312 116.75 517.708007812 116.75 c 4
 527.481445312 116.75 535.416992188 108.814453125 535.416992188 99.041015625 c 4
 535.416992188 89.267578125 527.481445312 81.3330078125 517.708007812 81.3330078125 c 4
 507.934570312 81.3330078125 500 89.267578125 500 99.041015625 c 4
925 99.041015625 m 4
 925 30.6875 869.395507812 -24.9169921875 801.041992188 -24.9169921875 c 4
 738.749023438 -24.79296875 687.161132812 21.46484375 678.5 81.404296875 c 4xf38360
 678.25390625 81.3681640625 678.040039062 81.224609375 677.755859375 81.224609375 c 6
 659.834960938 80.625 l 5
 659.233398438 80.625 l 6
 649.673828125 80.87109375 641.98828125 88.708984375 641.98828125 98.3271484375 c 4xf383a0
 641.98828125 107.752929688 649.375 115.46875 658.666992188 116.005859375 c 6
 676.587890625 116.608398438 l 6
 677.224609375 116.678710938 677.827148438 116.395507812 678.428710938 116.362304688 c 4
 686.956054688 176.462890625 738.627929688 222.887695312 801.041992188 223 c 4
 869.395507812 223 925 167.395507812 925 99.041015625 c 4
889.583007812 99.041015625 m 4
 889.583007812 147.845703125 849.845703125 187.583007812 801.041992188 187.583007812 c 4
 752.237304688 187.583007812 712.5 147.845703125 712.5 99.041015625 c 4xf383a0
 712.5 50.2373046875 752.237304688 10.5 801.041992188 10.5 c 4
 849.845703125 10.5 889.583007812 50.2373046875 889.583007812 99.041015625 c 4
EndSplineSet
Validated: 524289
EndChar

StartChar: uniE90D
Encoding: 59661 59661 18
Width: 878
InSpiro: 1
Flags: W
HStem: -1.66699 30.5332<583.532 602.972> -1.66699 21.0674<123.854 411.008 517.175 517.175 549.366 593.251 602.975 624.541 638.074 638.074 708.841 753.286> 96.2998 3.06641<612.358 627.443> 240 17.167<530.253 635.403> 283.833 30.4336<531.046 622.528 634.627 677.974> 422.566 22.667<276.908 286.127>
VStem: 154.574 26.2334<491.7 594.281> 261.508 42<428.039 445.392> 391.475 19.5664<110.634 135.976>
LayerCount: 2
Fore
SplineSet
134.741210938 -2.2001953125 m 1x7f80
 102.241210938 -2.2001953125 l 2
 101.413085938 -0.0546875 100.623046875 2.16796875 99.908203125 4.3662109375 c 0
 92.7412109375 26.56640625 80.107421875 54.033203125 76.8408203125 76.1669921875 c 0
 71.974609375 108.966796875 102.840820312 110.799804688 122.641601562 125 c 0
 153.141601562 147 177.141601562 159.166992188 210.208007812 179 c 0
 220.041015625 184.966796875 249.607421875 199.799804688 252.908203125 206.633789062 c 0
 259.607421875 220.233398438 241.408203125 239.366210938 236.57421875 249.966796875 c 0
 229.07421875 266.866210938 225.07421875 281.200195312 224.041015625 297.799804688 c 0
 196.57421875 302.133789062 175.541015625 318.700195312 162.57421875 337.299804688 c 0
 141.57421875 368.133789062 127.041015625 425.133789062 145.07421875 468.5 c 0
 146.57421875 471.93359375 153.541015625 478.666992188 154.57421875 483.93359375 c 0
 156.57421875 494.200195312 151.07421875 507.93359375 150.57421875 518.866210938 c 0
 148.57421875 575.266601562 160.041015625 623.866210938 198.07421875 640.866210938 c 0
 213.5078125 702.200195312 268.5078125 722.633789062 320.5078125 753.099609375 c 0
 339.840820312 764.5 361.307617188 771.833007812 383.5078125 780 c 0
 462.57421875 809.233398438 584.408203125 803.733398438 649.974609375 753.900390625 c 0
 677.840820312 732.799804688 722.5078125 688.233398438 738.5078125 655.93359375 c 0
 780.57421875 570.766601562 777.5078125 428.43359375 748.07421875 324.799804688 c 0
 744.07421875 310.766601562 738.408203125 290.400390625 730.307617188 273.700195312 c 0
 724.708007812 262.033203125 707.340820312 238.700195312 709.474609375 228.366210938 c 0
 711.607421875 217.900390625 749.141601562 189.366210938 757.208007812 181.866210938 c 0
 771.674804688 167.799804688 799.208007812 149.366210938 801.340820312 131.866210938 c 0
 803.674804688 113.299804688 793.07421875 87.3330078125 787.674804688 69.3662109375 c 0
 780.44140625 45.3330078125 773.141601562 21.3330078125 765.874023438 -1.6669921875 c 2
 134.674804688 -1.6669921875 l 1
 134.741210938 -2.2001953125 l 1x7f80
  Spiro
    134.742 -2.2002 v
    102.242 -2.2002 ]
    101.429 -0.0349186 o
    100.647 2.1658 o
    99.9088 4.36621 o
    91.4781 27.9048 o
    82.6732 52.6726 o
    76.8414 76.167 o
    82.139 100.233 o
    100.908 113.328 o
    122.642 125 o
    151.524 144.353 o
    179.617 161.091 o
    210.209 179 o
    224.898 187.288 o
    242.572 197.768 o
    252.909 206.634 o
    252.731 221.541 o
    244.437 237.058 o
    236.575 249.967 o
    230.227 266.174 o
    226.08 281.792 o
    224.042 297.8 o
    198.803 305.822 o
    178.152 319.772 o
    162.575 337.3 o
    144.711 375.338 o
    136.93 422.111 o
    145.075 468.5 o
    147.971 472.852 o
    151.99 478.36 o
    154.575 483.934 o
    154.539 495.112 o
    152.276 507.244 o
    150.575 518.866 o
    153.541 571.736 o
    168.434 614.25 o
    198.075 640.866 o
    225.084 690.413 o
    269.134 724.121 o
    320.508 753.1 o
    340.48 763.317 o
    361.626 771.938 o
    383.508 780 o
    473.066 797.295 o
    569.413 789.29 o
    649.975 753.9 o
    681.724 726.334 o
    714.667 690.962 o
    738.508 655.934 o
    766.212 555.374 o
    768.015 437.664 o
    748.075 324.8 o
    743.496 309.043 o
    737.619 291.234 o
    730.308 273.7 o
    721.954 259.075 o
    712.676 242.103 o
    709.475 228.366 o
    720.987 213.344 o
    741.743 194.912 o
    757.209 181.866 o
    774.587 166.557 o
    792.181 149.464 o
    801.341 131.866 o
    800.04 111.425 o
    794.13 89.4077 o
    787.675 69.3662 o
    780.431 45.4038 o
    773.142 21.607 o
    765.875 -1.66699 [
    134.675 -1.66699 v
    0 0 z
  EndSpiro
504.874023438 115.799804688 m 2
 486.708007812 125.799804688 459.5078125 136.533203125 436.041015625 141.033203125 c 0
 407.041015625 146.5 410.041015625 101.43359375 411.041015625 74.56640625 c 0
 412.041015625 53.1337890625 423.041015625 30.7001953125 428.041015625 16.43359375 c 0
 430.57421875 9.8662109375 431.041015625 2.7666015625 436.57421875 1.466796875 c 0
 446.57421875 -0.7998046875 479.57421875 12.3330078125 489.07421875 17.43359375 c 0
 509.07421875 28.3662109375 524.541015625 45.56640625 541.541015625 57.06640625 c 0
 542.07421875 62.7333984375 542.07421875 68.400390625 542.541015625 74 c 0
 531.526367188 79.494140625 519.073242188 82.8046875 506.041015625 83.2333984375 c 1
 516.5078125 88.2333984375 531.041015625 88.2333984375 540.541015625 94.2998046875 c 2
 541.07421875 100.733398438 l 1
 524.541015625 101.733398438 518.07421875 109.200195312 507.041015625 115.266601562 c 2
 504.874023438 115.799804688 l 2
  Spiro
    504.875 115.8 ]
    484.193 125.777 o
    460.255 134.721 o
    436.042 141.033 o
    416.46 132.222 o
    410.633 104.923 o
    411.042 74.5664 o
    414.776 53.1608 o
    421.641 33.0643 o
    428.042 16.4336 o
    430.148 9.92954 o
    432.469 4.46089 o
    436.575 1.4668 o
    452.499 3.4601 o
    473.484 10.5313 o
    489.075 17.4336 o
    507.771 29.9984 o
    524.845 44.1236 o
    541.542 57.0664 o
    541.934 62.7252 o
    542.194 68.3861 o
    542.542 74 o
    531.091 78.7365 o
    518.836 81.8722 o
    506.042 83.2334 v
    517.515 86.9737 o
    529.713 89.8489 o
    540.542 94.2998 [
    541.075 100.733 v
    527.367 103.593 o
    517.085 109.031 o
    507.042 115.267 [
    0 0 z
  EndSpiro
753.340820312 17.966796875 m 2
 759.41015625 36.8837890625 764.676757812 56.6767578125 768.840820312 76.3662109375 c 0
 770.840820312 85.93359375 776.0078125 106.966796875 774.774414062 115.56640625 c 0
 772.807617188 130.866210938 751.974609375 142.200195312 741.307617188 151.766601562 c 0
 721.840820312 169.266601562 709.641601562 184.266601562 689.307617188 200.733398438 c 1
 681.0078125 188.233398438 663.307617188 180.233398438 656.541015625 170.266601562 c 1
 704.774414062 193.233398438 713.541015625 82.7666015625 694.57421875 47.2666015625 c 0
 697.57421875 36.2998046875 707.607421875 32.2666015625 711.708007812 22.7666015625 c 2
 708.840820312 17.2333984375 l 1
 751.840820312 17.2333984375 l 2
 752.274414062 17.2333984375 752.840820312 17.2333984375 753.307617188 16.7666015625 c 1
 753.340820312 17.966796875 l 2
  Spiro
    753.341 17.9668 ]
    759.127 37.1201 o
    764.326 56.6982 o
    768.841 76.3662 o
    771.54 88.8558 o
    774.231 103.722 o
    774.775 115.566 o
    767.606 129.613 o
    754.274 141.541 o
    741.308 151.767 o
    723.71 168.564 o
    707.484 184.625 o
    689.308 200.733 v
    678.64 189.504 o
    666.188 179.808 o
    656.542 170.267 v
    692.031 156.517 o
    703.863 99.9747 o
    694.575 47.2666 o
    699.433 38.1595 o
    706.117 30.8964 o
    711.709 22.7666 [
    708.841 17.2334 v
    751.841 17.2334 ]
    752.31 17.2162 o
    752.817 17.0949 o
    753.308 16.7666 v
    0 0 z
  EndSpiro
532.208007812 18.3662109375 m 1
 530.541015625 20.8330078125 528.874023438 22.8662109375 527.208007812 25.3330078125 c 2
 517.174804688 18.8330078125 l 1
 532.174804688 18.8330078125 l 1
 532.208007812 18.3662109375 l 1
  Spiro
    532.209 18.3662 v
    530.543 20.7183 o
    528.873 22.9809 o
    527.209 25.333 [
    517.175 18.833 v
    532.175 18.833 v
    0 0 z
  EndSpiro
624.541015625 18.3662109375 m 1
 624.807617188 25.3330078125 625.141601562 31.8330078125 625.541015625 38.2998046875 c 1
 607.874023438 37.3330078125 598.041015625 54.2998046875 585.674804688 55.8662109375 c 0
 574.874023438 57.3662109375 565.674804688 43.8330078125 551.674804688 49.3662109375 c 0
 548.5078125 45.8662109375 545.57421875 41.7998046875 542.208007812 38.8330078125 c 0
 547.340820312 32.8330078125 552.041015625 26.3330078125 556.340820312 19.3662109375 c 2
 583.5078125 19.3662109375 l 2
 583.974609375 24.8330078125 588.0078125 28.8662109375 593.5078125 28.8662109375 c 0xbf80
 599.0078125 28.8662109375 602.974609375 24.8330078125 602.974609375 19.8662109375 c 1
 624.974609375 19.8662109375 l 1
 624.541015625 18.3662109375 l 1
  Spiro
    624.542 18.3662 v
    624.83 25.1868 o
    625.164 31.8124 o
    625.542 38.2998 v
    610.116 42.069 o
    597.569 50.4091 o
    585.675 55.8662 o
    575.182 53.6228 o
    564.301 48.9221 o
    551.675 49.3662 o
    548.565 45.7428 o
    545.452 42.1011 o
    542.209 38.833 o
    547.194 32.6739 o
    551.912 26.1695 o
    556.341 19.3662 [
    583.508 19.3662 ]
    585.084 24.2546 o
    588.579 27.6205 o
    593.508 28.8662 o
    598.403 27.639 o
    601.745 24.403 o
    602.975 19.8662 v
    624.975 19.8662 v
    0 0 z
  EndSpiro
695.07421875 18.3662109375 m 1
 684.607421875 34.3330078125 663.5078125 48.2998046875 639.07421875 36.8662109375 c 2
 638.07421875 18.8330078125 l 1
 695.07421875 18.8330078125 l 1
 695.07421875 18.3662109375 l 1
  Spiro
    695.075 18.3662 v
    681.351 32.7876 o
    662.105 40.7026 o
    639.075 36.8662 [
    638.075 18.833 v
    695.075 18.833 v
    0 0 z
  EndSpiro
411.408203125 18.3662109375 m 1
 407.94140625 29.8330078125 l 2
 400.44140625 53.8330078125 395.94140625 71.8330078125 394.44140625 85.8330078125 c 0
 363.974609375 100.366210938 331.94140625 114.833007812 305.974609375 133.366210938 c 0
 300.974609375 136.866210938 269.0078125 178.366210938 264.974609375 176.866210938 c 0
 207.0078125 154.333007812 153.0078125 114.866210938 104.5078125 77.400390625 c 0
 113.041015625 58.8330078125 120.5078125 39.3662109375 127.5078125 19.400390625 c 2
 411.0078125 19.400390625 l 1x7f80
 411.408203125 18.3662109375 l 1
  Spiro
    411.409 18.3662 v
    407.942 29.833 ]
    401.448 51.8869 o
    396.939 70.4425 o
    394.442 85.833 o
    363.766 100.482 o
    333.652 116.052 o
    305.975 133.366 o
    294.037 146.513 o
    276.27 167.051 o
    264.975 176.866 o
    208.443 149.421 o
    154.733 114.795 o
    104.508 77.4004 o
    112.7 58.5672 o
    120.338 39.1655 o
    127.508 19.4004 [
    411.008 19.4004 v
    0 0 z
  EndSpiro
686.908203125 88.7998046875 m 1
 685.94140625 105.866210938 681.44140625 140.799804688 670.908203125 146.799804688 c 0
 648.908203125 159.799804688 609.374023438 120.799804688 592.908203125 115.366210938 c 0
 594.408203125 110.366210938 597.408203125 106.333007812 597.908203125 99.3662109375 c 1
 607.408203125 101.833007812 619.408203125 100.333007812 627.840820312 96.2998046875 c 1
 617.874023438 95.2998046875 606.874023438 95.2998046875 600.374023438 90.8330078125 c 0
 597.908203125 84.3330078125 600.908203125 74.8330078125 599.408203125 65.3662109375 c 0
 622.408203125 58.7998046875 649.408203125 55.2666015625 678.908203125 54.2998046875 c 0
 684.374023438 61.8662109375 686.408203125 75.7998046875 685.94140625 90.3662109375 c 1
 686.908203125 88.7998046875 l 1
  Spiro
    686.909 88.7998 v
    684.675 110.065 o
    679.517 132.909 o
    670.909 146.8 o
    644.597 145.648 o
    615.533 128.801 o
    592.909 115.366 o
    594.759 110.549 o
    596.725 105.494 o
    597.909 99.3662 v
    608.007 100.564 o
    618.455 99.4333 o
    627.841 96.2998 v
    617.745 95.4316 o
    608.161 94.0112 o
    600.375 90.833 o
    599.362 83.4535 o
    599.778 74.7226 o
    599.409 65.3662 o
    623.661 59.7982 o
    650.325 56.1366 o
    678.909 54.2998 o
    683.262 63.765 o
    685.542 76.2366 o
    685.942 90.3662 v
    0 0 z
  EndSpiro
550.908203125 100.799804688 m 2
 549.44140625 88.2998046875 552.44140625 83.7998046875 554.908203125 69.3662109375 c 0
 596.908203125 56.3330078125 589.374023438 127.366210938 550.408203125 101.333007812 c 1
 550.908203125 100.799804688 l 2
  Spiro
    550.909 100.8 ]
    550.745 90.3114 o
    552.452 81.143 o
    554.909 69.3662 o
    581.057 77.6236 o
    578.211 101.738 o
    550.409 101.333 v
    0 0 z
  EndSpiro
331.0078125 147.799804688 m 2
 316.0078125 132.56640625 373.340820312 111.733398438 391.474609375 110.633789062 c 1
 391.474609375 120.299804688 396.974609375 129.43359375 395.974609375 136.299804688 c 0
 374.307617188 140.233398438 345.908203125 137.700195312 331.141601562 147.866210938 c 2
 331.0078125 147.799804688 l 2
  Spiro
    331.008 147.8 ]
    335.968 131.654 o
    364.438 117.362 o
    391.475 110.634 v
    392.862 120.049 o
    395.255 128.75 o
    395.975 136.3 o
    372.842 138.786 o
    349.677 141.227 o
    331.142 147.866 [
    0 0 z
  EndSpiro
516.5078125 140.633789062 m 2
 516.5078125 139.200195312 514.474609375 139.633789062 514.241210938 138.5 c 0
 533.57421875 123.466796875 548.041015625 120.333007812 574.307617188 121.5 c 0
 586.107421875 130.233398438 596.641601562 140.266601562 609.07421875 148.400390625 c 1
 580.57421875 145.93359375 544.708007812 128.166992188 516.607421875 140.733398438 c 2
 516.5078125 140.633789062 l 2
  Spiro
    516.508 140.634 ]
    515.974 139.696 o
    514.932 139.238 o
    514.242 138.5 o
    532.552 127.16 o
    551.378 122.045 o
    574.308 121.5 o
    585.792 130.539 o
    597.169 139.761 o
    609.075 148.4 v
    578.712 142.531 o
    546.705 136.585 o
    516.608 140.733 [
    0 0 z
  EndSpiro
630.5078125 731.5 m 1
 576.974609375 761.700195312 485.5078125 784.533203125 427.974609375 755.866210938 c 0
 381.974609375 732.799804688 318.974609375 694.533203125 298.0078125 646.133789062 c 0
 318.0078125 599.400390625 292.474609375 556.599609375 290.474609375 509.166992188 c 0
 289.874023438 483.93359375 302.474609375 461.833007812 303.5078125 434.43359375 c 0
 296.840820312 423.166992188 276.0078125 421.766601562 261.5078125 422.56640625 c 0
 256.641601562 446.866210938 248.174804688 474.200195312 223.0078125 476.900390625 c 0
 187.541015625 480.766601562 161.5078125 451.43359375 160.0078125 420.799804688 c 0
 158.0078125 384.799804688 187.774414062 325.333007812 229.5078125 329.299804688 c 0
 245.774414062 330.833007812 249.774414062 347.299804688 267.474609375 347.299804688 c 0
 276.974609375 328.299804688 252.641601562 322.299804688 250.041015625 308.833007812 c 0
 249.5078125 305.333007812 252.041015625 291.799804688 253.5078125 285.333007812 c 0
 261.274414062 253.866210938 278.307617188 213.333007812 295.0078125 189.333007812 c 0
 316.174804688 159.333007812 357.807617188 154.299804688 402.641601562 151.299804688 c 0
 410.641601562 168.799804688 440.141601562 167.299804688 459.5078125 162.833007812 c 1
 436.474609375 171.833007812 414.974609375 194.333007812 397.0078125 213.799804688 c 0
 376.5078125 236.333007812 356.0078125 260.799804688 354.974609375 289.799804688 c 1
 393.474609375 236.333007812 424.974609375 189.799804688 494.974609375 166.333007812 c 0
 547.974609375 148.833007812 609.974609375 174.799804688 650.44140625 203.299804688 c 0
 667.44140625 215.266601562 677.474609375 234.299804688 689.44140625 251.266601562 c 0
 734.44140625 315.799804688 755.44140625 408.266601562 750.974609375 497.733398438 c 0
 748.974609375 534.766601562 748.974609375 571.766601562 736.44140625 596.233398438 c 0
 723.474609375 622.266601562 679.94140625 645.266601562 653.94140625 622.266601562 c 1
 648.94140625 647.733398438 674.94140625 663.266601562 705.44140625 654.266601562 c 1
 683.44140625 682.733398438 660.908203125 716.200195312 629.908203125 733.733398438 c 1
 630.5078125 731.5 l 1
  Spiro
    630.508 731.5 v
    567.063 757.59 o
    494.086 769.002 o
    427.975 755.866 o
    378.546 727.953 o
    330.757 690.927 o
    298.008 646.134 o
    305.391 600.439 o
    297.752 555.328 o
    290.475 509.167 o
    293.352 484.69 o
    299.543 460.354 o
    303.508 434.434 o
    292.892 426.177 o
    277.344 422.782 o
    261.508 422.566 o
    254.966 446.83 o
    243.078 467.03 o
    223.008 476.9 o
    191.273 470.896 o
    169.111 449.792 o
    160.008 420.8 o
    167.847 380.238 o
    192.529 343.23 o
    229.508 329.3 o
    242.637 334.64 o
    253.391 342.981 o
    267.475 347.3 o
    267.762 331.888 o
    257.817 320.558 o
    250.042 308.833 o
    250.376 302.63 o
    251.841 293.513 o
    253.508 285.333 o
    263.995 251.827 o
    278.569 217.864 o
    295.008 189.333 o
    322.325 166.822 o
    359.556 155.82 o
    402.642 151.3 o
    416.618 163.054 o
    437.959 165.716 o
    459.508 162.833 v
    437.082 175.705 o
    416.059 193.954 o
    397.008 213.8 o
    377.248 237.05 o
    361.765 262.241 o
    354.975 289.8 v
    392.788 239.289 o
    436.173 196.854 o
    494.975 166.333 o
    549.789 161.799 o
    603.98 177.183 o
    650.442 203.3 o
    665.436 217.268 o
    677.802 233.967 o
    689.442 251.267 o
    726.359 323.886 o
    747.02 408.5 o
    750.975 497.733 o
    749.106 534.257 o
    745.33 568.083 o
    736.442 596.233 o
    715.096 619.645 o
    683.973 631.528 o
    653.942 622.267 v
    658.281 643.864 o
    677.448 655.635 o
    705.442 654.267 v
    682.994 683.595 o
    658.354 711.69 o
    629.909 733.733 v
    0 0 z
  EndSpiro
491.674804688 301.266601562 m 2
 512.174804688 249.799804688 582.474609375 255.833007812 641.840820312 257.166992188 c 1
 639.041015625 250.700195312 633.307617188 242.666992188 626.340820312 240 c 0
 607.340820312 232.266601562 554.840820312 226.400390625 528.44140625 240.400390625 c 0
 511.57421875 249.400390625 500.974609375 269.5 491.708007812 281.299804688 c 0
 487.141601562 287.033203125 465.208007812 301.56640625 491.307617188 301.599609375 c 2
 491.674804688 301.266601562 l 2
  Spiro
    491.675 301.267 ]
    526.479 266.683 o
    581.14 256.568 o
    641.841 257.167 v
    638.131 250.442 o
    632.828 244.193 o
    626.341 240 o
    598.417 233.56 o
    561.297 232.359 o
    528.442 240.4 o
    513.494 252.368 o
    501.592 267.467 o
    491.709 281.3 o
    483.784 289.095 o
    478.799 297.603 o
    491.308 301.6 [
    0 0 z
  EndSpiro
497.141601562 330.266601562 m 2
 526.908203125 314.799804688 581.141601562 313.033203125 621.5078125 314.266601562 c 0
 623.708007812 305.366210938 623.708007812 294.5 623.774414062 283.833007812 c 0
 572.107421875 281.166992188 510.908203125 293.966796875 497.307617188 330.333007812 c 2
 497.141601562 330.333007812 l 1
 497.141601562 330.266601562 l 2
  Spiro
    497.142 330.267 ]
    533.603 318.978 o
    577.985 314.428 o
    621.508 314.267 o
    623.058 304.801 o
    623.647 294.476 o
    623.775 283.833 o
    571.098 286.614 o
    524.62 301.544 o
    497.308 330.333 [
    497.142 330.333 v
    0 0 z
  EndSpiro
719.641601562 349.799804688 m 1
 703.874023438 319.799804688 681.474609375 286.56640625 635.0078125 285.533203125 c 0
 634.241210938 295 633.5078125 310.033203125 635.0078125 315.666992188 c 0
 670.474609375 319.099609375 692.57421875 337.200195312 719.774414062 349.56640625 c 1
 719.641601562 349.799804688 l 1
  Spiro
    719.642 349.8 v
    701.04 320.063 o
    674.066 295.969 o
    635.008 285.533 o
    634.335 296.29 o
    634.172 307.465 o
    635.008 315.667 o
    666.675 323.222 o
    693.617 336.058 o
    719.775 349.566 v
    0 0 z
  EndSpiro
698.0078125 372.033203125 m 1
 664.0078125 350.033203125 626.208007812 326.200195312 570.541015625 331.700195312 c 0
 558.840820312 342.033203125 554.374023438 365.033203125 565.874023438 380.299804688 c 1
 571.908203125 369.866210938 567.874023438 350.799804688 584.874023438 347.966796875 c 0
 616.340820312 342.466796875 652.807617188 367.266601562 675.874023438 375.966796875 c 0
 689.874023438 399.733398438 674.340820312 408.5 661.874023438 423.733398438 c 0
 635.807617188 454.733398438 600.874023438 493.733398438 601.807617188 540.733398438 c 0
 612.274414062 548.200195312 613.340820312 529.200195312 614.840820312 525.733398438 c 0
 628.307617188 493.733398438 662.307617188 453.233398438 687.307617188 425.733398438 c 0
 693.307617188 418.733398438 703.307617188 412.733398438 704.307617188 408.266601562 c 0
 707.374023438 395.266601562 695.840820312 379.799804688 697.340820312 371.266601562 c 1
 698.0078125 372.033203125 l 1
  Spiro
    698.008 372.033 v
    662.259 350.596 o
    620.729 334.813 o
    570.542 331.7 o
    561.582 345.483 o
    559.375 363.229 o
    565.875 380.3 v
    569.702 367.923 o
    573.741 355.279 o
    584.875 347.967 o
    617.294 350.839 o
    649.053 363.633 o
    675.875 375.967 o
    681.24 395.512 o
    674.145 409.874 o
    661.875 423.733 o
    634.536 457.364 o
    611.156 496.442 o
    601.808 540.733 o
    609.5 540.939 o
    613.124 532.813 o
    614.841 525.733 o
    634.035 491.732 o
    660.43 456.737 o
    687.308 425.733 o
    694.153 419.093 o
    700.795 413.219 o
    704.308 408.267 o
    703.535 394.806 o
    699.158 381.751 o
    697.341 371.267 v
    0 0 z
  EndSpiro
250.041015625 394.533203125 m 2
 239.57421875 400.666992188 236.94140625 427.533203125 224.44140625 428.200195312 c 0
 206.607421875 429.200195312 209.840820312 393.200195312 209.908203125 372.200195312 c 1
 197.57421875 383.200195312 195.408203125 417.700195312 204.44140625 435.200195312 c 1
 194.174804688 440.200195312 189.607421875 429.733398438 183.840820312 425.733398438 c 1
 191.174804688 478.733398438 261.840820312 450.200195312 250.174804688 393.733398438 c 1
 250.041015625 394.533203125 l 2
  Spiro
    250.042 394.533 ]
    241.538 405.825 o
    234.301 420.551 o
    224.442 428.2 o
    212.739 418.811 o
    209.683 396.249 o
    209.909 372.2 v
    201.008 389.511 o
    199.105 413.558 o
    204.442 435.2 v
    195.827 435.86 o
    189.458 431.071 o
    183.841 425.733 v
    206.858 453.536 o
    239.819 438.872 o
    250.175 393.733 v
    0 0 z
  EndSpiro
196.107421875 597.966796875 m 2
 173.274414062 572.766601562 178.107421875 525.5 180.807617188 491.700195312 c 1
 222.274414062 517.866210938 277.408203125 489.700195312 276.908203125 445.233398438 c 1
 296.741210938 445.766601562 284.340820312 470.033203125 280.741210938 485.733398438 c 0
 268.974609375 536.666992188 300.474609375 591.966796875 282.107421875 638.733398438 c 0
 246.641601562 635.93359375 217.474609375 621.400390625 196.174804688 598.233398438 c 2
 196.107421875 597.966796875 l 2
  Spiro
    196.108 597.967 ]
    181.401 566.763 o
    178.502 528.634 o
    180.808 491.7 v
    224.221 501.17 o
    261.46 482.829 o
    276.909 445.233 v
    287.514 452.469 o
    285.75 468.392 o
    280.742 485.733 o
    279.941 537.592 o
    287.307 589.651 o
    282.108 638.733 o
    248.831 632.148 o
    220.013 618.391 o
    196.175 598.233 [
    0 0 z
  EndSpiro
500.107421875 560.866210938 m 2
 510.340820312 542.133789062 513.57421875 522.599609375 528.107421875 508.533203125 c 0
 534.607421875 502.200195312 547.241210938 494.400390625 541.0078125 476.866210938 c 0
 539.5078125 472.833007812 528.840820312 463.833007812 522.641601562 461.866210938 c 0
 500.174804688 455.366210938 447.5078125 460.866210938 465.274414062 488.866210938 c 0
 484.041015625 488.366210938 509.07421875 476.866210938 523.0078125 490.366210938 c 0
 512.541015625 507.833007812 493.5078125 541.366210938 500.541015625 561.366210938 c 1
 500.107421875 560.866210938 l 2
  Spiro
    500.108 560.866 ]
    508.678 542.117 o
    516.673 524.173 o
    528.108 508.533 o
    535.719 501.413 o
    541.882 491.45 o
    541.008 476.866 o
    536.964 471.628 o
    529.818 465.728 o
    522.642 461.866 o
    493.867 459.752 o
    467.241 467.991 o
    465.275 488.866 o
    485.466 486.037 o
    506.038 483.867 o
    523.008 490.366 o
    510.981 512.067 o
    500.908 537.977 o
    500.542 561.366 v
    0 0 z
  EndSpiro
706.708007812 561.299804688 m 1
 708.974609375 561.299804688 l 2
 719.974609375 539.033203125 728.974609375 515.466796875 742.44140625 495.799804688 c 0
 733.44140625 474.866210938 674.0078125 456.133789062 675.0078125 493.900390625 c 0
 688.0078125 499.56640625 710.0078125 495.06640625 721.5078125 502.233398438 c 0
 715.07421875 520.766601562 705.5078125 535.766601562 707.041015625 561.266601562 c 2
 706.708007812 561.299804688 l 1
  Spiro
    706.709 561.3 v
    708.975 561.3 ]
    719.538 538.815 o
    730.236 516.552 o
    742.442 495.8 o
    720.767 477.624 o
    690.02 472.962 o
    675.008 493.9 o
    690.269 496.985 o
    707.247 498.149 o
    721.508 502.233 o
    714.565 520.091 o
    708.677 538.767 o
    707.042 561.267 [
    0 0 z
  EndSpiro
475.807617188 615.200195312 m 1
 428.408203125 626.200195312 404.774414062 595.466796875 390.474609375 563.43359375 c 0
 377.674804688 566.56640625 382.774414062 583.93359375 385.974609375 592.866210938 c 0
 394.474609375 616.233398438 428.641601562 647.299804688 456.607421875 643.06640625 c 0
 468.57421875 641.166992188 484.874023438 630.200195312 475.807617188 615.266601562 c 2
 475.807617188 615.200195312 l 1
  Spiro
    475.808 615.2 v
    435.829 613.799 o
    408.399 593.509 o
    390.475 563.434 o
    382.912 570.462 o
    382.877 581.974 o
    385.975 592.866 o
    401.829 617.184 o
    427.784 637.14 o
    456.608 643.066 o
    468.908 638.341 o
    477.524 628.677 o
    475.808 615.267 [
    0 0 z
  EndSpiro
360.408203125 744.700195312 m 2
 308.408203125 730.033203125 241.741210938 692.233398438 220.408203125 645.56640625 c 1
 236.908203125 647.900390625 248.408203125 656.266601562 264.741210938 657.266601562 c 0
 270.94140625 657.799804688 279.0078125 654.799804688 286.107421875 656.766601562 c 0
 300.241210938 660.233398438 312.107421875 692.266601562 322.840820312 703.766601562 c 0
 333.174804688 715.266601562 345.674804688 720.299804688 354.174804688 730.766601562 c 0
 359.741210938 733.766601562 367.807617188 733.233398438 368.174804688 741.766601562 c 0
 365.741210938 744.266601562 363.174804688 746.266601562 360.44140625 745.266601562 c 2
 360.44140625 744.700195312 l 1
 360.408203125 744.700195312 l 2
  Spiro
    360.409 744.7 ]
    305.797 722.879 o
    254.586 688.71 o
    220.409 645.566 v
    235.592 649.41 o
    249.67 654.312 o
    264.742 657.267 o
    271.452 656.938 o
    278.799 656.14 o
    286.108 656.767 o
    299.515 667.92 o
    311.7 687.26 o
    322.841 703.767 o
    333.658 713.543 o
    344.581 721.678 o
    354.175 730.767 o
    360.191 733.053 o
    365.624 735.793 o
    368.175 741.767 o
    365.699 744.005 o
    363.118 745.36 o
    360.442 745.267 [
    360.442 744.7 v
    0 0 z
  EndSpiro
EndSplineSet
Validated: 524325
EndChar

StartChar: uniE90E
Encoding: 59662 59662 19
Width: 962
Flags: W
LayerCount: 2
Fore
SplineSet
880.051757812 295.666992188 m 2
 880.708984375 291.038085938 881.049804688 286.307617188 881.049804688 281.498046875 c 0
 881.049804688 244.473632812 860.98828125 212.287109375 831.051757812 195 c 2
 531.051757812 21.6669921875 l 2
 516.36328125 13.1865234375 499.323242188 8.3330078125 481.159179688 8.3330078125 c 0
 462.994140625 8.3330078125 445.740234375 13.1865234375 431.051757812 21.6669921875 c 2
 131.051757812 195 l 2
 101.115234375 212.287109375 80.9501953125 244.638671875 80.9501953125 281.663085938 c 0
 80.9501953125 286.47265625 81.39453125 291.038085938 82.0517578125 295.666992188 c 2
 126.051757812 535.666992188 l 2
 129.486328125 559.653320312 141.404296875 580.990234375 158.71875 596.333007812 c 0
 163.75390625 600.768554688 169.185546875 604.654296875 175.051757812 608 c 2
 426.71875 753.666992188 l 2
 442.322265625 763.670898438 460.872070312 769.473632812 480.767578125 769.473632812 c 0
 501.1015625 769.473632812 520.237304688 763.4140625 536.051757812 753 c 2
 787.051757812 608 l 2
 790.384765625 606.333007812 793.384765625 604.666992188 796.384765625 602.333007812 c 0
 817.543945312 586.719726562 832.255859375 562.916992188 836.051757812 535.666992188 c 2
 880.051757812 295.666992188 l 2
562.051757812 654.666992188 m 1
 304.71875 601.666992188 l 2
 290.384765625 599 287.71875 580.333007812 300.051757812 573 c 2
 486.71875 465.333007812 l 2
 494.384765625 461 503.384765625 463 507.71875 471.666992188 c 2
 560.384765625 591.666992188 l 1
 578.051757812 632.333007812 l 2
 583.384765625 644 574.384765625 657.333007812 561.384765625 654.666992188 c 1
 562.051757812 654.666992188 l 1
EndSplineSet
Validated: 524289
EndChar

StartChar: uniE90F
Encoding: 59663 59663 20
Width: 1086
Flags: W
HStem: 41.208 282.25<125.008 435.572 650.428 964.17> 270.25 53.208<501.958 584.042>
LayerCount: 2
Fore
SplineSet
1043 323.416992188 m 1x40
 1042.95800781 323.375 l 1
 1042.95800781 168.333007812 l 2
 1042.95800781 98.2919921875 975.458007812 41.2080078125 892.541992188 41.2080078125 c 2
 734.458007812 41.2080078125 l 2x80
 651.541992188 41.2080078125 584.041992188 98.3330078125 584.041992188 168.333007812 c 2
 584.041992188 270.25 l 1
 501.958007812 270.25 l 1x40
 501.958007812 168.333007812 l 2
 501.958007812 98.2919921875 434.458007812 41.2080078125 351.541992188 41.2080078125 c 2
 193.416992188 41.2080078125 l 2x80
 110.5 41.2080078125 43 98.2919921875 43 168.416992188 c 2
 43 323.416992188 l 1
 43.1669921875 323.416992188 l 1
 299.583007812 558.791992188 l 1
 335.625 519.5 l 1
 121.958007812 323.458007812 l 1
 964.208007812 323.458007812 l 1
 750.541992188 519.291992188 l 1
 786.583007812 558.625 l 1
 1043 323.416992188 l 1x40
EndSplineSet
Validated: 524289
EndChar

StartChar: uniE910
Encoding: 59664 59664 21
Width: 902
Flags: W
HStem: 1.59961 101.567<225.1 450.434>
LayerCount: 2
Fore
SplineSet
225.099609375 103.166992188 m 1
 450.43359375 103.166992188 l 1
 508.133789062 1.599609375 l 1
 51 1.599609375 l 1
 211.5 279.733398438 l 1
 278.766601562 396.200195312 l 1
 336.533203125 296.133789062 l 1
 225.099609375 103.166992188 l 1
309.099609375 448.866210938 m 1
 364.599609375 545 l 1
 678.43359375 1.6337890625 l 1
 567.299804688 1.6337890625 l 1
 309.099609375 448.866210938 l 1
395.43359375 598.400390625 m 1
 506.43359375 598.400390625 l 1
 851 1.599609375 l 1
 739.866210938 1.599609375 l 1
 395.43359375 598.400390625 l 1
EndSplineSet
Validated: 524289
EndChar

StartChar: uniE911
Encoding: 59665 59665 22
Width: 726
Flags: HMW
LayerCount: 2
Fore
SplineSet
92.6669921875 284.190429688 m 1
 171.5 791.223632812 l 2
 172.806640625 799.915039062 180.3125 806.586914062 189.365234375 806.586914062 c 0
 196.291015625 806.586914062 202.301757812 802.717773438 205.333007812 796.990234375 c 2
 290.099609375 637.95703125 l 1
 92.6669921875 284.190429688 l 1
652.466796875 161.124023438 m 1
 388.333007812 13.5244140625 l 2
 380.522460938 9.1357421875 371.3984375 6.6318359375 361.809570312 6.6318359375 c 0
 352.219726562 6.6318359375 343.2109375 9.1357421875 335.400390625 13.5244140625 c 2
 73.533203125 161.090820312 l 1
 546.833007812 637.624023438 l 2
 550.100585938 640.954101562 554.653320312 643 559.681640625 643 c 0
 568.66796875 643 576.124023438 636.401367188 577.466796875 627.791015625 c 2
 652.466796875 161.124023438 l 1
439.666992188 568.357421875 m 1
 80.6669921875 207.124023438 l 1
 347 684.423828125 l 2
 350.021484375 690.184570312 356.038085938 694.118164062 362.989257812 694.118164062 c 0
 369.939453125 694.118164062 375.978515625 690.184570312 379 684.423828125 c 2
 439.666992188 568.357421875 l 1
EndSplineSet
Validated: 524289
EndChar

StartChar: uniE912
Encoding: 59666 59666 23
Width: 927
Flags: W
LayerCount: 2
Fore
SplineSet
643.08984375 521.893554688 m 2
 642.797851562 522.016601562 l 2
 642.631835938 522.083984375 642.46484375 522.143554688 642.318359375 522.290039062 c 0
 641.935546875 522.701171875 641.701171875 523.250976562 641.701171875 523.856445312 c 0
 641.701171875 523.984375 641.711914062 524.108398438 641.731445312 524.23046875 c 2
 657.861328125 622.833984375 l 1
 733.495117188 547.180664062 l 1
 654.834960938 513.713867188 l 2
 654.63671875 513.634765625 654.419921875 513.590820312 654.192382812 513.590820312 c 0
 654.177734375 513.590820312 654.163085938 513.58984375 654.1484375 513.590820312 c 2
 653.833007812 513.590820312 l 2
 653.677734375 513.690429688 653.538085938 513.807617188 653.413085938 513.943359375 c 0
 650.490234375 517.19921875 647.020507812 519.880859375 643.08984375 521.893554688 c 2
752.790039062 527.900390625 m 1
 833.663085938 447.034179688 l 2
 850.459960938 430.216796875 858.866210938 421.827148438 861.93359375 412.103515625 c 0
 862.393554688 410.666992188 862.766601562 409.227539062 863.059570312 407.744140625 c 1
 669.79296875 489.59375 l 2
 669.69140625 489.63671875 669.587890625 489.6796875 669.485351562 489.720703125 c 0
 668.711914062 490.034179688 667.815429688 490.38671875 667.815429688 491.18359375 c 0
 667.815429688 491.973632812 668.731445312 492.350585938 669.504882812 492.6640625 c 2
 669.754882812 492.766601562 l 1
 752.790039062 527.900390625 l 1
859.763671875 381.790039062 m 1
 855.58984375 373.943359375 847.453125 365.806640625 833.68359375 352.016601562 c 2
 742.506835938 260.860351562 l 1
 624.583007812 285.416992188 l 1
 623.95703125 285.541992188 l 2
 622.913085938 285.708984375 621.806640625 285.900390625 621.806640625 286.834960938 c 0
 620.875976562 296.939453125 615.7421875 305.845703125 608.139648438 311.725585938 c 0
 607.66015625 312.205078125 607.786132812 312.958984375 607.931640625 313.645507812 c 0
 607.931640625 313.745117188 607.931640625 313.853515625 607.973632812 313.9375 c 2
 630.153320312 450.096679688 l 1
 630.236328125 450.556640625 l 2
 630.361328125 451.600585938 630.548828125 452.810546875 631.490234375 452.810546875 c 0
 641.3203125 454.034179688 649.951171875 459.189453125 655.690429688 466.68359375 c 0
 655.877929688 466.891601562 656.002929688 467.120117188 656.256835938 467.247070312 c 0
 656.922851562 467.559570312 657.712890625 467.247070312 658.403320312 466.955078125 c 2
 859.743164062 381.7890625 l 1
 859.763671875 381.790039062 l 1
721.540039062 239.890625 m 1
 571.606445312 89.9599609375 l 1
 597.2734375 247.693359375 l 1
 597.313476562 247.90234375 l 2
 597.33203125 248.110351562 597.375 248.31640625 597.438476562 248.508789062 c 0
 597.646484375 249.008789062 598.19140625 249.21875 598.711914062 249.42578125 c 2
 598.961914062 249.529296875 l 2
 604.631835938 251.94921875 609.568359375 255.645507812 613.461914062 260.31640625 c 0
 613.961914062 260.903320312 614.568359375 261.465820312 615.341796875 261.569335938 c 0
 615.440429688 261.5859375 615.541992188 261.59375 615.645507812 261.59375 c 0
 615.748046875 261.59375 615.846679688 261.5859375 615.9453125 261.569335938 c 2
 721.518554688 239.869140625 l 1
 721.540039062 239.890625 l 1
539.873046875 58.2275390625 m 1
 522.973632812 41.3271484375 l 1
 336.133789062 311.350585938 l 2
 336.06640625 311.44921875 335.998046875 311.545898438 335.926757812 311.641601562 c 0
 335.633789062 312.041992188 335.3203125 312.435546875 335.383789062 312.895507812 c 0
 335.403320312 313.228515625 335.61328125 313.522460938 335.84375 313.772460938 c 2
 336.049804688 314.04296875 l 2
 336.616210938 314.875976562 337.09375 315.709960938 337.616210938 316.609375 c 2
 338.033203125 317.33984375 l 1
 338.096679688 317.40234375 l 2
 338.38671875 317.90234375 338.66015625 318.381835938 339.16015625 318.655273438 c 0
 339.596679688 318.86328125 340.203125 318.780273438 340.68359375 318.67578125 c 2
 547.676757812 275.985351562 l 2
 548.266601562 275.89453125 548.813476562 275.650390625 549.263671875 275.298828125 c 0
 549.530273438 275.028320312 549.596679688 274.732421875 549.659179688 274.3984375 c 0
 552.600585938 263.2734375 560.618164062 254.217773438 571.10546875 249.885742188 c 0
 571.689453125 249.59375 571.439453125 248.9453125 571.172851562 248.258789062 c 0
 571.038085938 247.961914062 570.9296875 247.642578125 570.85546875 247.318359375 c 0
 568.249023438 231.461914062 545.8828125 95.0517578125 539.872070312 58.2255859375 c 1
 539.873046875 58.2275390625 l 1
504.573242188 22.947265625 m 1
 492.116210938 10.61328125 484.7734375 4.083984375 476.466796875 1.45703125 c 0
 472.49609375 0.201171875 468.270507812 -0.4755859375 463.88671875 -0.4755859375 c 0
 459.50390625 -0.4755859375 455.2734375 0.201171875 451.303710938 1.45703125 c 0
 441.583007812 4.5439453125 433.172851562 12.9306640625 416.376953125 29.7470703125 c 2
 228.743164062 217.380859375 l 1
 277.756835938 293.38671875 l 2
 277.96484375 293.770507812 278.247070312 294.1015625 278.58984375 294.3671875 c 0
 279.11328125 294.7421875 279.86328125 294.575195312 280.490234375 294.3671875 c 0
 285.134765625 292.965820312 290.059570312 292.212890625 295.159179688 292.212890625 c 0
 302.057617188 292.212890625 308.66796875 293.604492188 314.666992188 296.100585938 c 0
 315.23046875 296.30859375 315.79296875 296.454101562 316.23046875 296.05859375 c 0
 316.450195312 295.858398438 316.643554688 295.637695312 316.813476562 295.391601562 c 2
 504.5703125 22.92578125 l 1
 504.573242188 22.947265625 l 1
210.65625 235.466796875 m 1
 167.61328125 278.513671875 l 1
 252.61328125 314.77734375 l 2
 252.82421875 314.869140625 253.05859375 314.921875 253.303710938 314.922851562 c 0
 254.013671875 314.922851562 254.4296875 314.212890625 254.803710938 313.56640625 c 0
 255.662109375 312.245117188 256.560546875 310.973632812 257.516601562 309.7265625 c 2
 257.790039062 309.392578125 l 2
 258.040039062 309.0390625 257.873046875 308.682617188 257.623046875 308.349609375 c 2
 210.676757812 235.469726562 l 1
 210.65625 235.466796875 l 1
148.563476562 297.560546875 m 1
 94.1103515625 352.016601562 l 2
 84.84375 361.280273438 78.126953125 367.997070312 73.453125 373.77734375 c 1
 239.033203125 339.43359375 l 2
 239.239257812 339.396484375 239.448242188 339.36328125 239.65625 339.333984375 c 0
 240.6796875 339.166992188 241.806640625 338.975585938 241.806640625 338.016601562 c 0
 241.806640625 336.973632812 240.573242188 336.494140625 239.533203125 336.096679688 c 2
 239.053710938 335.888671875 l 1
 148.563476562 297.560546875 l 1
63.9404296875 401.780273438 m 1
 64.1318359375 405.348632812 64.7822265625 408.83203125 65.81640625 412.107421875 c 0
 68.90625 421.830078125 77.29296875 430.220703125 94.1103515625 447.034179688 c 2
 163.796875 516.720703125 l 1
 195.9921875 469.995117188 227.948242188 423.801757812 260.313476562 377.204101562 c 0
 260.879882812 376.450195312 261.502929688 375.6171875 260.856445312 374.990234375 c 0
 257.809570312 371.630859375 254.763671875 367.95703125 252.61328125 363.973632812 c 0
 252.377929688 363.45703125 252.020507812 363.015625 251.5703125 362.680664062 c 0
 251.303710938 362.513671875 251.006835938 362.580078125 250.696289062 362.638671875 c 2
 250.653320312 362.638671875 l 1
 63.9404296875 401.805664062 l 1
 63.9404296875 401.780273438 l 1
182.450195312 535.374023438 m 1
 276.150390625 629.07421875 l 2
 284.953125 625.216796875 317.002929688 611.673828125 345.669921875 599.57421875 c 0
 367.370117188 590.393554688 387.146484375 582.046875 393.36328125 579.336914062 c 0
 393.990234375 579.083984375 394.553710938 578.836914062 394.827148438 578.209960938 c 0
 394.993164062 577.833984375 394.91015625 577.353515625 394.827148438 576.95703125 c 0
 394.192382812 574.063476562 393.857421875 571.05859375 393.857421875 567.975585938 c 0
 393.857421875 556.62890625 398.385742188 546.350585938 405.736328125 538.817382812 c 0
 406.36328125 538.190429688 405.736328125 537.293945312 405.193359375 536.520507812 c 2
 404.901367188 536.083984375 l 1
 309.76171875 388.716796875 l 2
 309.51171875 388.3046875 309.28125 387.950195312 308.865234375 387.676757812 c 0
 308.365234375 387.364257812 307.655273438 387.510742188 307.071289062 387.657226562 c 0
 303.443359375 388.607421875 299.649414062 389.143554688 295.73828125 389.200195312 c 0
 292.318359375 389.200195312 288.60546875 388.57421875 284.8515625 387.883789062 c 2
 284.828125 387.883789062 l 2
 284.412109375 387.821289062 284.03515625 387.73828125 283.702148438 387.98828125 c 0
 283.33203125 388.291015625 283.018554688 388.647460938 282.764648438 389.0546875 c 2
 182.450195312 535.374023438 l 1
295.073242188 648 m 1
 416.376953125 769.30078125 l 2
 433.176757812 786.096679688 441.583007812 794.50390625 451.303710938 797.5703125 c 0
 455.274414062 798.826171875 459.500976562 799.50390625 463.884765625 799.50390625 c 0
 468.268554688 799.50390625 472.499023438 798.826171875 476.469726562 797.5703125 c 0
 486.190429688 794.50390625 494.596679688 786.096679688 511.393554688 769.303710938 c 2
 537.68359375 743.010742188 l 1
 451.41015625 609.397460938 l 2
 451.194335938 609.005859375 450.905273438 608.66796875 450.553710938 608.397460938 c 0
 450.033203125 608.040039062 449.303710938 608.1875 448.676757812 608.397460938 c 0
 444.654296875 609.6171875 440.387695312 610.274414062 435.96875 610.274414062 c 0
 425.635742188 610.274414062 416.106445312 606.676757812 408.616210938 600.676757812 c 0
 408.053710938 600.090820312 407.216796875 600.426757812 406.509765625 600.740234375 c 0
 395.243164062 605.640625 307.610351562 642.673828125 295.077148438 647.997070312 c 2
 295.073242188 648 l 1
556 724.697265625 m 1
 635.66015625 645.037109375 l 1
 616.466796875 526.153320312 l 1
 616.466796875 525.840820312 l 2
 616.44921875 525.564453125 616.391601562 525.295898438 616.299804688 525.046875 c 0
 616.091796875 524.630859375 615.672851562 524.546875 615.256835938 524.419921875 c 0
 611.1171875 523.166015625 607.23828125 521.21484375 603.823242188 518.723632812 c 0
 603.673828125 518.6171875 603.536132812 518.5 603.40625 518.370117188 c 0
 603.172851562 518.120117188 602.946289062 517.890625 602.573242188 517.846679688 c 0
 602.547851562 517.846679688 602.5234375 517.845703125 602.498046875 517.845703125 c 0
 602.208007812 517.845703125 601.930664062 517.8984375 601.672851562 517.994140625 c 2
 480.287109375 569.5703125 l 1
 480.053710938 569.673828125 l 2
 479.283203125 569.987304688 478.366210938 570.36328125 478.366210938 571.157226562 c 0
 477.638671875 578.05859375 475.346679688 584.6015625 471.900390625 590.247070312 c 0
 471.313476562 591.20703125 470.666992188 592.20703125 471.166992188 593.190429688 c 2
 556 724.697265625 l 1
473.966796875 545.13671875 m 1
 587.759765625 496.9375 l 2
 588.38671875 496.647460938 589.073242188 496.376953125 589.346679688 495.73046875 c 0
 589.399414062 495.541015625 589.427734375 495.340820312 589.427734375 495.134765625 c 0
 589.427734375 494.928710938 589.399414062 494.729492188 589.346679688 494.540039062 c 0
 588.96484375 492.763671875 588.75 490.936523438 588.719726562 489.053710938 c 2
 588.719726562 485.860351562 l 2
 588.719726562 485.067382812 587.90625 484.733398438 587.153320312 484.419921875 c 2
 586.923828125 484.336914062 l 2
 568.897460938 476.63671875 333.84375 376.403320312 333.491210938 376.403320312 c 0
 333.133789062 376.403320312 332.7578125 376.403320312 332.404296875 376.76171875 c 0
 331.77734375 377.388671875 332.404296875 378.265625 332.967773438 379.05859375 c 0
 333.06640625 379.196289062 333.163085938 379.333984375 333.2578125 379.475585938 c 2
 426.770507812 524.275390625 l 1
 426.9375 524.522460938 l 2
 427.48046875 525.3984375 428.104492188 526.37890625 429.107421875 526.37890625 c 2
 430.047851562 526.235351562 l 2
 432.173828125 525.942382812 434.053710938 525.668945312 435.951171875 525.668945312 c 0
 450.140625 525.668945312 463.284179688 532.575195312 471.213867188 544.385742188 c 0
 471.403320312 544.702148438 471.640625 544.981445312 471.920898438 545.21875 c 0
 472.487304688 545.638671875 473.321289062 545.428710938 473.967773438 545.138671875 c 1
 473.966796875 545.13671875 l 1
343.650390625 353.497070312 m 1
 599.860351562 462.763671875 l 1
 599.860351562 462.763671875 600.235351562 462.763671875 600.59375 462.409179688 c 0
 601.990234375 461.009765625 603.1796875 460.073242188 604.327148438 459.196289062 c 2
 604.889648438 458.837890625 l 2
 605.41015625 458.545898438 605.93359375 458.2109375 605.973632812 457.670898438 c 0
 605.973632812 457.462890625 605.973632812 457.337890625 605.931640625 457.147460938 c 2
 583.985351562 322.32421875 l 1
 583.901367188 321.78125 l 2
 583.755859375 320.73828125 583.610351562 319.547851562 582.627929688 319.547851562 c 0
 570.422851562 318.724609375 559.865234375 311.856445312 553.981445312 301.877929688 c 2
 553.877929688 301.7109375 l 2
 553.5859375 301.231445312 553.310546875 300.771484375 552.833984375 300.521484375 c 0
 552.397460938 300.3125 551.833984375 300.396484375 551.374023438 300.500976562 c 2
 347.047851562 342.64453125 l 2
 346.837890625 342.686523438 343.874023438 353.474609375 343.647460938 353.494140625 c 1
 343.650390625 353.497070312 l 1
EndSplineSet
Validated: 524293
EndChar

StartChar: uniE913
Encoding: 59667 59667 24
Width: 988
Flags: W
HStem: -1.66699 60<153.965 293.965> 698.333 100<632.242 755.688>
VStem: 93.9648 60<58.333 198.333> 793.965 100<536.61 660.056>
LayerCount: 2
Fore
SplineSet
153.96484375 198.333007812 m 1
 153.96484375 58.3330078125 l 1
 293.96484375 58.3330078125 l 1
 293.96484375 -1.6669921875 l 1
 93.96484375 -1.6669921875 l 1
 93.96484375 198.333007812 l 1
 153.96484375 198.333007812 l 1
860.6328125 798.333007812 m 2
 879.029296875 798.333007812 893.96484375 783.396484375 893.96484375 765 c 2
 893.96484375 467.666015625 l 2
 893.966796875 467.482421875 894.03515625 467.348632812 894.03515625 467.1640625 c 0
 894.03515625 444.024414062 882.220703125 423.622070312 864.298828125 411.666015625 c 2
 693.96484375 298.333007812 l 1
 693.96484375 31.666015625 l 2
 693.96484375 13.26953125 679.029296875 -1.6669921875 660.6328125 -1.6669921875 c 2
 477.298828125 -1.6669921875 l 1
 360.6328125 115 l 1
 400.6328125 155 l 1
 350.6328125 205.333007812 l 1
 309.96484375 164.666015625 l 1
 260.6328125 214 l 1
 300.6328125 254.666015625 l 1
 250.6328125 304.666015625 l 1
 210.6328125 261.666015625 l 1
 93.96484375 382 l 1
 93.96484375 565.333007812 l 2
 93.96484375 583.73046875 108.90234375 598.666015625 127.298828125 598.666015625 c 2
 393.96484375 598.666015625 l 1
 507.298828125 768.666015625 l 2
 519.255859375 786.586914062 539.61328125 798.333007812 562.751953125 798.333007812 c 0
 562.822265625 798.333007812 562.89453125 798.333007812 562.96484375 798.333007812 c 2
 860.6328125 798.333007812 l 2
693.96484375 498.333007812 m 0
 749.15625 498.333007812 793.96484375 543.141601562 793.96484375 598.333007812 c 0
 793.96484375 653.524414062 749.15625 698.333007812 693.96484375 698.333007812 c 0
 638.7734375 698.333007812 593.96484375 653.524414062 593.96484375 598.333007812 c 0
 593.96484375 543.141601562 638.7734375 498.333007812 693.96484375 498.333007812 c 0
EndSplineSet
Validated: 524289
EndChar

StartChar: uniE914
Encoding: 59668 59668 25
Width: 1000
VStem: 100 98.8662<280 507.666> 700.767 199.233<191.6 623.066>
LayerCount: 2
Fore
SplineSet
100 507.666015625 m 5
 174.900390625 606.56640625 l 5
 455.06640625 720.432617188 l 5
 455.06640625 802.833007812 l 5
 700.733398438 623.06640625 l 5
 198.866210938 525.6328125 l 5
 198.866210938 251.466796875 l 5
 100 280 l 5
 100 507.666015625 l 5
900 656 m 5
 900 167.6328125 l 5
 708.233398438 4.2998046875 l 5
 398.133789062 106.200195312 l 5
 398.133789062 4.3330078125 l 5
 198.866210938 251.533203125 l 5
 700.766601562 191.599609375 l 5
 700.766601562 623.06640625 l 5
 900 656 l 5
EndSplineSet
Validated: 524293
EndChar

StartChar: uniE915
Encoding: 59669 59669 26
Width: 1000
VStem: 100 12.9004<300.005 557.104>
LayerCount: 2
Fore
SplineSet
887.099609375 428.571289062 m 1
 631.5 557.104492188 l 1
 631.5 300.038085938 l 1
 887.099609375 428.538085938 l 1
 887.099609375 428.571289062 l 1
372.200195312 171.4375 m 1
 372.200195312 428.571289062 l 1
 112.900390625 557.104492188 l 1
 112.900390625 300.004882812 l 1
 372.233398438 171.4375 l 1
 372.200195312 171.4375 l 1
106.099609375 568.071289062 m 0
 108.061523438 569.305664062 110.381835938 570.01953125 112.868164062 570.01953125 c 0
 114.946289062 570.01953125 116.93359375 569.521484375 118.666992188 568.637695312 c 2
 372.200195312 442.9375 l 1
 625.766601562 568.637695312 l 2
 627.499023438 569.505859375 629.453125 569.995117188 631.520507812 569.995117188 c 0
 633.588867188 569.995117188 635.568359375 569.505859375 637.299804688 568.637695312 c 2
 892.900390625 440.071289062 l 2
 897.115234375 437.958007812 899.999023438 433.603515625 900 428.571289062 c 2
 900 171.571289062 l 2
 899.99609375 166.530273438 897.115234375 162.16796875 892.900390625 160.038085938 c 2
 637.299804688 31.37109375 l 2
 635.565429688 30.509765625 633.611328125 30.025390625 631.544921875 30.025390625 c 0
 624.427734375 30.025390625 618.62890625 35.767578125 618.56640625 42.87109375 c 2
 618.56640625 279.204101562 l 1
 377.93359375 159.87109375 l 2
 376.205078125 159.02734375 374.263671875 158.553710938 372.211914062 158.553710938 c 0
 370.161132812 158.553710938 368.1953125 159.02734375 366.466796875 159.87109375 c 2
 107.166992188 288.471679688 l 2
 102.919921875 290.578125 100.008789062 294.948242188 100 300.004882812 c 2
 100 557.104492188 l 2
 100 557.119140625 100 557.1328125 100 557.146484375 c 0
 100 561.766601562 102.432617188 565.811523438 106.099609375 568.071289062 c 0
EndSplineSet
Validated: 524293
EndChar

StartChar: uniE91C
Encoding: 59676 59676 27
Width: 1000
Flags: W
HStem: 38 64.5254<398.606 601.259> 596.09 64.1094<399.79 513.66>
VStem: 100.327 153.432<290.495 409.716> 344.193 102.564<342.836 392.559> 378.394 68.3643<337.358 358.226> 548.561 73.1328<334.459 355.392> 746.031 153.496<288.771 408.751>
LayerCount: 2
Fore
SplineSet
435.860351562 494.291992188 m 4xf6
 444.626953125 497.825195312 452.09375 500.758789062 452.426757812 500.758789062 c 4
 453.959960938 500.825195312 460.793945312 494.591796875 477.02734375 478.4921875 c 6
 488.02734375 467.525390625 l 5
 498.52734375 467.358398438 l 5
 509.02734375 467.192382812 l 5
 514.860351562 473.391601562 l 6
 520.693359375 479.625 528.260742188 487.391601562 534.393554688 493.458984375 c 4
 538.52734375 497.525390625 541.793945312 500.258789062 542.52734375 500.258789062 c 4
 548.158203125 498.083007812 553.841796875 495.752929688 559.360351562 493.358398438 c 6
 575.59375 486.458984375 l 5
 575.926757812 485.225585938 l 6
 576.727539062 481.9921875 577.360351562 466.924804688 577.360351562 449.391601562 c 6
 577.360351562 438.424804688 l 5
 585.02734375 430.891601562 l 5
 592.693359375 423.391601562 l 5
 598.693359375 423.591796875 l 6
 604.5234375 423.75 609.748046875 423.831054688 615.615234375 423.831054688 c 4
 622.624023438 423.831054688 629.606445312 423.717773438 636.560546875 423.4921875 c 4
 637.744140625 423.404296875 638.909179688 423.2109375 640.02734375 422.924804688 c 4
 642.677734375 417.501953125 645.184570312 411.885742188 647.459960938 406.258789062 c 6
 654.494140625 389.825195312 l 5
 653.293945312 388.158203125 l 6
 651.09375 385.125 645.959960938 379.658203125 633.693359375 367.458984375 c 6
 621.560546875 355.391601562 l 5
 621.693359375 344.924804688 l 5
 621.827148438 334.458984375 l 5
 623.393554688 332.958984375 l 5
 631.09375 325.791992188 l 6
 639.126953125 318.325195312 652.193359375 305.391601562 654.193359375 302.924804688 c 4
 654.853515625 302.19921875 655.39453125 301.369140625 655.793945312 300.458984375 c 4
 655.793945312 299.825195312 643.060546875 268.458984375 642.59375 267.9921875 c 4
 641.931640625 267.665039062 641.192382812 267.443359375 640.426757812 267.358398438 c 4
 637.827148438 266.958984375 614.494140625 266.758789062 603.494140625 267.05859375 c 6
 594.560546875 267.291992188 l 5
 587.126953125 259.891601562 l 5
 579.693359375 252.525390625 l 5
 580.16015625 242.791992188 l 6
 580.994140625 224.924804688 581.09375 207.291992188 580.360351562 205.525390625 c 4
 580.16015625 204.9921875 577.626953125 203.891601562 563.860351562 198.391601562 c 4
 554.926757812 194.825195312 547.459960938 191.858398438 547.327148438 191.858398438 c 4
 546.193359375 191.858398438 539.52734375 198.025390625 525.193359375 212.192382812 c 6
 512.126953125 225.192382812 l 5
 501.459960938 225.358398438 l 5
 490.760742188 225.525390625 l 5
 488.426757812 222.891601562 l 6
 476.09375 209.358398438 458.926757812 192.424804688 457.560546875 192.424804688 c 4
 457.393554688 192.424804688 449.827148438 195.55859375 440.760742188 199.358398438 c 6
 424.260742188 206.358398438 l 5
 423.994140625 207.591796875 l 6
 423.227539062 211.225585938 422.626953125 226.458984375 422.626953125 243.225585938 c 6
 422.626953125 254.158203125 l 5
 415.09375 261.692382812 l 5
 407.626953125 269.225585938 l 5
 388.360351562 269.05859375 l 6
 369.926757812 268.924804688 362.693359375 269.05859375 360.360351562 269.725585938 c 4
 359.626953125 269.924804688 359.193359375 270.791992188 352.52734375 286.458984375 c 6
 345.52734375 302.958984375 l 5
 346.459960938 304.358398438 l 6
 348.327148438 307.05859375 352.959960938 311.924804688 365.626953125 324.55859375 c 6
 378.393554688 337.358398438 l 5xee
 378.293945312 347.791992188 l 5
 378.227539062 358.225585938 l 5
 376.327148438 359.958984375 l 5
 368.327148438 367.424804688 l 6
 360.626953125 374.625 346.760742188 388.391601562 345.327148438 390.358398438 c 4
 344.727539062 391.192382812 344.193359375 392.091796875 344.193359375 392.358398438 c 4
 344.193359375 392.758789062 352.52734375 413.55859375 356.52734375 423.091796875 c 4
 357.459960938 425.258789062 357.293945312 425.192382812 361.52734375 425.591796875 c 4
 368.65234375 425.763671875 375.149414062 425.848632812 382.315429688 425.848632812 c 4
 387.8984375 425.848632812 393.46875 425.796875 399.02734375 425.692382812 c 6
 405.426757812 425.525390625 l 5
 412.860351562 432.825195312 l 5
 420.293945312 440.158203125 l 5
 419.793945312 449.9921875 l 6
 419.260742188 461.525390625 419.126953125 486.05859375 419.59375 487.192382812 c 4
 419.860351562 487.758789062 422.260742188 488.791992188 435.860351562 494.291992188 c 4xf6
504.626953125 396.358398438 m 5
 504.626953125 396.325195312 l 5
 500.893554688 396.825195312 494.126953125 396.825195312 490.727539062 396.325195312 c 4
 487.069335938 395.78515625 483.452148438 394.87109375 480.060546875 393.658203125 c 4
 460.623046875 386.618164062 446.7578125 367.97265625 446.7578125 346.118164062 c 4xf6
 446.7578125 339.5546875 448.012695312 333.28125 450.293945312 327.525390625 c 4
 457.116210938 310.8671875 472.493164062 298.619140625 490.926757812 296.158203125 c 4
 493.860351562 295.725585938 501.626953125 295.725585938 504.52734375 296.158203125 c 4
 526.038085938 299.056640625 543.396484375 315.327148438 547.893554688 336.291992188 c 4
 548.727539062 340.258789062 549.060546875 348.192382812 548.560546875 352.391601562 c 4
 545.860351562 375.05859375 527.626953125 393.358398438 504.626953125 396.358398438 c 5
486.260742188 660.025390625 m 6
 486.260742188 660.05859375 l 6
 490.221679688 660.150390625 493.6796875 660.19921875 497.662109375 660.19921875 c 4
 504.52734375 660.19921875 511.361328125 660.0625 518.16015625 659.791992188 c 4
 537.296875 658.610351562 556.088867188 655.696289062 574.16015625 651.258789062 c 4
 626.748046875 638.30859375 674.262695312 611.840820312 712.327148438 575.725585938 c 4
 768.021484375 520.374023438 822.233398438 466.008789062 877.426757812 410.158203125 c 4
 889.310546875 396.435546875 897.272460938 379.059570312 899.494140625 360.091796875 c 4
 900.16015625 354.858398438 900.16015625 343.424804688 899.52734375 338.192382812 c 4
 897.09375 319.125 889.459960938 301.858398438 877.426757812 288.125 c 4
 874.360351562 284.625 717.494140625 127.158203125 711.66015625 121.758789062 c 4
 661.634765625 74.5986328125 595.452148438 43.9970703125 522.66015625 38.7919921875 c 4
 515.08984375 38.2353515625 507.592773438 38 499.880859375 38 c 4
 420.62890625 38 348.3125 67.9296875 293.626953125 117.091796875 c 4
 284.293945312 125.525390625 276.760742188 132.9921875 225.494140625 184.458984375 c 4
 125.060546875 285.291992188 123.393554688 286.958984375 120.393554688 290.725585938 c 4
 109.469726562 304.2890625 102.235351562 321.138671875 100.327148438 339.391601562 c 4
 99.8935546875 343.091796875 99.8935546875 355.225585938 100.327148438 358.891601562 c 4
 102.400390625 378.48046875 110.538085938 396.420898438 122.793945312 410.525390625 c 4
 125.09375 413.05859375 283.193359375 571.791992188 287.494140625 575.858398438 c 4
 315.58984375 602.475585938 348.609375 623.727539062 385.16015625 638.291992188 c 4
 416.5390625 650.806640625 450.822265625 658.46484375 486.260742188 660.025390625 c 6
513.59375 595.758789062 m 5
 513.66015625 595.758789062 l 5
 509.038085938 596.017578125 504.560546875 596.08984375 499.875 596.08984375 c 4
 473.96484375 596.08984375 448.985351562 592.072265625 425.52734375 584.625 c 4
 378.552734375 569.651367188 337.80078125 541.159179688 307.793945312 503.424804688 c 4
 280.122070312 468.811523438 261.49609375 426.14453125 255.793945312 379.958984375 c 4
 254.500976562 369.728515625 253.758789062 359.576171875 253.758789062 348.998046875 c 4
 253.758789062 277.342773438 284.329101562 212.771484375 333.126953125 167.625 c 4
 375.459960938 128.55859375 427.327148438 106.391601562 485.459960938 102.525390625 c 4
 495.66015625 101.791992188 512.260742188 102.125 523.59375 103.192382812 c 4
 627.688476562 113.405273438 713.096679688 188.58984375 738.360351562 287.525390625 c 4
 743.413085938 307.256835938 746.03125 327.955078125 746.03125 349.252929688 c 4
 746.03125 380.499023438 740.247070312 410.405273438 729.693359375 437.958984375 c 4
 709.094726562 491.338867188 670.922851562 535.55078125 621.860351562 563.758789062 c 4
 612.560546875 569.091796875 597.760742188 576.192382812 588.693359375 579.625 c 4
 563.827148438 589.091796875 538.727539062 594.424804688 513.59375 595.758789062 c 5
EndSplineSet
Validated: 524321
EndChar

StartChar: uniE916
Encoding: 59670 59670 28
Width: 906
Flags: W
VStem: 104.5 69.167<232.1 545.1> 243.9 200.733<272.767 388.667> 461.4 60.4658<272.767 353.533> 732.533 68.9668<232.1 473.434>
LayerCount: 2
Fore
SplineSet
252.400390625 519.033203125 m 1
 453.033203125 634.766601562 l 1
 653.766601562 519.099609375 l 1
 453 403.233398438 l 1
 252.400390625 519.033203125 l 1
444.633789062 388.666992188 m 1
 444.633789062 157.766601562 l 1
 243.900390625 272.766601562 l 1
 243.900390625 504.56640625 l 1
 444.633789062 388.666992188 l 1
182.166992188 559.599609375 m 1
 112.866210938 599.599609375 l 1
 453 796 l 1
 793.166992188 599.533203125 l 1
 724.033203125 559.666992188 l 1
 453 715.833007812 l 1
 182.166992188 559.599609375 l 1
444.633789062 76.900390625 m 1
 444.666992188 -4 l 1
 104.5 192.366210938 l 1
 104.5 585.033203125 l 1
 173.666992188 545.099609375 l 1
 173.666992188 232.099609375 l 1
 444.633789062 76.900390625 l 1
461.400390625 388.666992188 m 1
 801.5 585 l 1
 801.5 192.333007812 l 1
 461.400390625 -4 l 1
 461.400390625 76.900390625 l 1
 732.533203125 232.099609375 l 1
 732.533203125 473.43359375 l 1
 521.866210938 353.533203125 l 1
 521.866210938 272.766601562 l 1
 662.333007812 352.700195312 l 1
 662.333007812 272.799804688 l 1
 461.400390625 157.799804688 l 1
 461.400390625 388.666992188 l 1
EndSplineSet
Validated: 524289
EndChar

StartChar: uniE917
Encoding: 59671 59671 29
Width: 956
Flags: W
HStem: 365.166 87.7334<173.326 293.433 659.691 780.868> 680.635 87.4512<368.837 478.199 478.232 593.006>
VStem: 418.539 88.3271<153.959 262.515>
LayerCount: 2
Fore
SplineSet
478.19921875 768 m 2
 478.232421875 768.033203125 l 2
 478.743164062 768.03515625 479.286132812 768.0859375 479.797851562 768.0859375 c 0
 589.48046875 768.0859375 688.879882812 723.703125 760.999023438 651.932617188 c 0
 833.251953125 580.756835938 878.000976562 481.794921875 878.000976562 372.461914062 c 0
 878.000976562 372.029296875 878.000976562 371.59765625 877.999023438 371.166015625 c 2
 877.999023438 370.166015625 l 1
 809.965820312 330.599609375 l 1
 809.06640625 331.233398438 l 2
 777.421875 352.75390625 739.1015625 365.452148438 697.983398438 365.452148438 c 0
 696.451171875 365.452148438 694.922851562 365.434570312 693.399414062 365.399414062 c 2
 686.732421875 365.166015625 l 2
 585.866210938 359.1328125 506.866210938 275.6328125 506.866210938 175.099609375 c 0
 506.866210938 175.041015625 506.978515625 174.795898438 506.978515625 174.737304688 c 0
 506.978515625 143.650390625 514.649414062 114.340820312 528.19921875 88.599609375 c 2
 528.399414062 88.166015625 l 1
 528.399414062 87.666015625 l 2
 525.866210938 60.7666015625 496.19921875 15.8994140625 484.232421875 1.7666015625 c 2
 482.833007812 0.099609375 l 1
 481.465820312 1.7998046875 l 2
 451.465820312 39.3994140625 431.333007812 81.599609375 423.298828125 123.799804688 c 0
 422.499023438 128 421.833007812 132.166015625 421.232421875 136.399414062 c 2
 420.798828125 139.833007812 l 1
 420.6328125 141.233398438 l 2
 420.084960938 145.796875 419.620117188 150.35546875 419.232421875 154.966796875 c 1
 419.298828125 153.733398438 l 1
 418.956054688 158.54296875 418.704101562 163.244140625 418.532226562 168.099609375 c 2
 418.532226562 171.833007812 l 1
 418.532226562 171.599609375 l 1
 418.490234375 173.55859375 418.5390625 175.465820312 418.5390625 177.434570312 c 0
 418.5390625 207.024414062 423.337890625 235.502929688 432.19921875 262.1328125 c 2
 432.765625 263.899414062 l 2
 436.866210938 276.06640625 441.765625 288 447.432617188 299.333007812 c 2
 447.965820312 300.299804688 l 2
 450.43359375 305.168945312 453.043945312 309.987304688 455.765625 314.700195312 c 2
 457.765625 318.166015625 l 2
 461.465820312 324.266601562 464.432617188 328.899414062 467.366210938 333.233398438 c 0
 471.376953125 339.01171875 475.540039062 344.55078125 479.965820312 350 c 2
 482.465820312 353.06640625 l 1
 482.833007812 353.533203125 l 2
 502.734375 377.424804688 526.249023438 397.5390625 553.099609375 413.533203125 c 2
 554.265625 414.266601562 l 2
 559.765625 417.466796875 564.866210938 420.266601562 569.932617188 422.799804688 c 2
 570.833007812 423.233398438 l 2
 582.232421875 428.966796875 594.032226562 433.899414062 605.833007812 437.899414062 c 2
 606.833007812 438.233398438 l 2
 612.09375 439.959960938 617.55078125 441.587890625 622.932617188 443.033203125 c 2
 627.532226562 444.166015625 l 2
 631.81640625 445.262695312 636.236328125 446.278320312 640.599609375 447.166015625 c 0
 642.465820312 447.533203125 644.366210938 447.93359375 646.265625 448.266601562 c 0
 650.551757812 449.033203125 654.913085938 449.705078125 659.265625 450.266601562 c 2
 660.666015625 450.466796875 l 1
 659.166015625 450.299804688 l 1
 670.366210938 451.799804688 681.833007812 452.700195312 693.69921875 452.899414062 c 2
 698.833007812 452.899414062 l 2
 698.895507812 452.899414062 698.958007812 452.841796875 699.021484375 452.841796875 c 0
 727.9453125 452.841796875 755.849609375 448.438476562 782.099609375 440.266601562 c 1
 768.872070312 498.1015625 739.334960938 549.936523438 698.499023438 590.200195312 c 0
 642.362304688 646.1015625 564.944335938 680.634765625 479.541015625 680.634765625 c 0
 479.193359375 680.634765625 478.846679688 680.633789062 478.499023438 680.6328125 c 0
 331.19921875 680.533203125 206.465820312 581.6328125 174.06640625 439.766601562 c 2
 172.06640625 439.233398438 l 1
 198.924804688 447.612304688 227.23828125 452.19140625 256.841796875 452.19140625 c 0
 274.326171875 452.19140625 291.4453125 450.616210938 308.06640625 447.599609375 c 2
 309.798828125 447.333007812 l 2
 357.725585938 438.469726562 401.755859375 417.198242188 437.666015625 387.099609375 c 2
 446.06640625 380.06640625 l 1
 439.232421875 371.5 l 2
 435.099609375 366.299804688 431.499023438 361.43359375 428.166015625 356.6328125 c 0
 419.965820312 344.666015625 412.56640625 331.533203125 406.166015625 317.533203125 c 2
 399.56640625 303.06640625 l 1
 387.899414062 313.93359375 l 1
 388.032226562 313.866210938 l 1
 361.922851562 338.076171875 328.76171875 355.046875 292.232421875 361.533203125 c 1
 293.432617188 361.333007812 l 1
 281.69921875 363.533203125 269.599609375 364.666015625 257.265625 364.666015625 c 0
 257.077148438 364.666992188 256.708984375 364.555664062 256.51953125 364.555664062 c 0
 215.897460938 364.555664062 178.17578125 352.043945312 146.999023438 330.666015625 c 2
 146.06640625 330.06640625 l 1
 77.9990234375 369.733398438 l 1
 77.9990234375 370.733398438 l 2
 78.166015625 589.666015625 257.69921875 767.833007812 478.19921875 768 c 2
EndSplineSet
Validated: 524293
EndChar

StartChar: uniE918
Encoding: 59672 59672 30
Width: 962
Flags: W
HStem: -1.36133 224.958<431.417 530.65> 323.615 62.4521<363.47 389.151 530.16 555.788> 523.606 25<456.033 506.033> 623.606 174.954<456.49 530.65>
VStem: 106.02 175.006<224.461 266.454 266.46 298.597 398.6 523.405> 106.02 150.006<298.597 398.6> 681.039 175.008<224.028 298.597 398.6 523.402> 706.039 150.008<298.597 398.6>
LayerCount: 2
Fore
SplineSet
446 788.146484375 m 2xf4
 456.05078125 794.73046875 468.064453125 798.560546875 480.966796875 798.560546875 c 0
 493.869140625 798.560546875 506.015625 794.73046875 516.06640625 788.146484375 c 2
 827.1796875 584.206054688 l 2
 845.212890625 572.40625 856.046875 552.306640625 856.046875 530.739257812 c 2xf5
 856.046875 266.462890625 l 2
 856.046875 244.896484375 845.1796875 224.795898438 827.1796875 212.99609375 c 2
 516.06640625 9.052734375 l 2
 506.015625 2.46875 494 -1.361328125 481.09765625 -1.361328125 c 0
 468.197265625 -1.361328125 456.05078125 2.46875 446 9.052734375 c 2
 134.88671875 212.993164062 l 2
 117.46875 224.404296875 105.953125 244.094726562 105.953125 266.454101562 c 2
 106.01953125 266.459960938 l 1xfa
 106.01953125 530.739257812 l 2
 106.01953125 552.306640625 116.88671875 572.40625 134.88671875 584.206054688 c 2
 446 788.146484375 l 2xf4
506.033203125 548.606445312 m 1
 506.033203125 523.606445312 l 1
 306.025390625 523.606445312 l 2
 292.228515625 523.606445312 281.025390625 512.400390625 281.025390625 498.602539062 c 2
 281.025390625 398.599609375 l 1xfa
 264.359375 398.599609375 l 2
 259.759765625 398.599609375 256.025390625 394.865234375 256.025390625 390.266601562 c 2
 256.025390625 306.932617188 l 2xf4
 256.025390625 302.330078125 259.759765625 298.596679688 264.359375 298.596679688 c 2
 281.025390625 298.596679688 l 1
 281.025390625 248.596679688 l 2
 281.025390625 234.762695312 292.2265625 223.596679688 306.025390625 223.596679688 c 2
 656.0390625 223.596679688 l 2
 669.837890625 223.596679688 681.0390625 234.798828125 681.0390625 248.596679688 c 2
 681.0390625 298.596679688 l 1xfa
 697.705078125 298.596679688 l 2
 702.3046875 298.596679688 706.0390625 302.330078125 706.0390625 306.9296875 c 2
 706.0390625 390.262695312 l 1
 706.0390625 390.266601562 l 2xf1
 706.0390625 394.865234375 702.3046875 398.599609375 697.705078125 398.599609375 c 2
 681.0390625 398.599609375 l 1
 681.0390625 498.602539062 l 2xf2
 681.0390625 512.400390625 669.837890625 523.602539062 656.0390625 523.602539062 c 2
 531.033203125 523.602539062 l 1
 531.033203125 615.272460938 l 2
 531.033203125 619.872070312 527.298828125 623.606445312 522.69921875 623.606445312 c 2
 464.365234375 623.606445312 l 2
 459.767578125 623.606445312 456.033203125 619.872070312 456.033203125 615.272460938 c 2
 456.033203125 556.939453125 l 2
 456.033203125 552.33984375 459.765625 548.606445312 464.365234375 548.606445312 c 2
 506.033203125 548.606445312 l 1
615.5703125 378.965820312 m 2
 563.169921875 326.56640625 l 2
 561.341796875 324.743164062 558.8203125 323.615234375 556.037109375 323.615234375 c 0
 553.25390625 323.615234375 550.73046875 324.743164062 548.90234375 326.56640625 c 2
 517.3359375 358.1328125 l 2
 515.513671875 359.9609375 514.384765625 362.482421875 514.384765625 365.264648438 c 0
 514.384765625 368.047851562 515.513671875 370.572265625 517.3359375 372.399414062 c 2
 528.0703125 383.1328125 l 2
 529.896484375 384.956054688 532.41796875 386.083984375 535.201171875 386.083984375 c 0
 537.984375 386.083984375 540.5078125 384.956054688 542.3359375 383.1328125 c 2
 556.001953125 369.432617188 l 1
 590.5703125 403.965820312 l 2
 592.396484375 405.7890625 594.91796875 406.916992188 597.701171875 406.916992188 c 0
 600.484375 406.916992188 603.0078125 405.7890625 604.8359375 403.965820312 c 2
 615.5703125 393.233398438 l 2
 617.392578125 391.405273438 618.51953125 388.883789062 618.51953125 386.100585938 c 0
 618.51953125 383.318359375 617.392578125 380.793945312 615.5703125 378.965820312 c 2
396.5 326.599609375 m 1
 396.5 326.56640625 l 2
 394.671875 324.743164062 392.150390625 323.615234375 389.3671875 323.615234375 c 0
 386.583984375 323.615234375 384.060546875 324.743164062 382.232421875 326.56640625 c 2
 350.6328125 358.1328125 l 2
 348.80078125 359.956054688 347.66796875 362.479492188 347.66796875 365.264648438 c 0
 347.66796875 368.05078125 348.80078125 370.576171875 350.6328125 372.399414062 c 2
 361.3984375 383.1328125 l 2
 363.224609375 384.946289062 365.740234375 386.067382812 368.513671875 386.067382812 c 0
 371.2890625 386.067382812 373.806640625 384.946289062 375.6328125 383.1328125 c 2
 389.365234375 369.432617188 l 1
 423.8984375 404 l 2
 425.724609375 405.813476562 428.240234375 406.93359375 431.013671875 406.93359375 c 0
 433.7890625 406.93359375 436.306640625 405.813476562 438.1328125 404 c 2
 448.8984375 393.266601562 l 2
 450.72265625 391.438476562 451.849609375 388.916992188 451.849609375 386.134765625 c 0
 451.849609375 383.3515625 450.72265625 380.827148438 448.8984375 379 c 2
 396.5 326.599609375 l 1
EndSplineSet
Validated: 524289
EndChar

StartChar: uniE91A
Encoding: 59674 59674 31
Width: 896
Flags: W
VStem: 88.667 147.733<307.966 492.133> 659.7 147.666<308.066 492.133>
LayerCount: 2
Fore
SplineSet
781.299804688 177.56640625 m 1
 474.133789062 0.099609375 l 1
 474.133789062 170.6328125 l 1
 633.56640625 262.766601562 l 1
 781.299804688 177.56640625 l 1
421.866210938 0.099609375 m 1
 114.700195312 177.56640625 l 1
 262.366210938 262.799804688 l 1
 421.866210938 170.733398438 l 1
 421.866210938 0.099609375 l 1
447.833007812 215.932617188 m 1
 447.900390625 215.965820312 l 1
 288.533203125 308 l 1
 288.533203125 492.233398438 l 1
 447.966796875 584.233398438 l 1
 607.466796875 492.233398438 l 1
 607.466796875 308.099609375 l 1
 447.833007812 215.932617188 l 1
88.6669921875 577.366210938 m 1
 88.6337890625 577.432617188 l 1
 236.400390625 492.1328125 l 1
 236.400390625 307.965820312 l 1
 88.6669921875 222.666015625 l 1
 88.6669921875 577.366210938 l 1
742.5 540 m 1
 807.366210938 577.5 l 1
 807.366210938 222.766601562 l 1
 659.700195312 308.06640625 l 1
 659.700195312 492.1328125 l 1
 742.5 540 l 1
114.700195312 622.6328125 m 1
 421.900390625 800 l 1
 421.900390625 629.399414062 l 1
 262.533203125 537.333007812 l 1
 114.700195312 622.6328125 l 1
633.56640625 537.333007812 m 1
 474.06640625 629.399414062 l 1
 474.06640625 800.099609375 l 1
 781.366210938 622.6328125 l 1
 633.56640625 537.333007812 l 1
EndSplineSet
Validated: 524293
EndChar

StartChar: uniE92A
Encoding: 59690 59690 32
Width: 930
Flags: W
LayerCount: 2
Fore
SplineSet
265 680.233398438 m 1
 465.033203125 552.833007812 l 1
 265 425.43359375 l 1
 65 552.833007812 l 1
 265 680.233398438 l 1
665 680.233398438 m 1
 865 552.833007812 l 1
 665 425.43359375 l 1
 465 552.833007812 l 1
 665 680.233398438 l 1
65 298 m 1
 265 425.400390625 l 1
 465.033203125 298 l 1
 265 170.600585938 l 1
 65 298 l 1
665 425.400390625 m 1
 865 298 l 1
 665 170.600585938 l 1
 465 298 l 1
 665 425.400390625 l 1
265 128.100585938 m 1
 465.033203125 255.5 l 1
 665.033203125 128.100585938 l 1
 465.033203125 0.7001953125 l 1
 265 128.100585938 l 1
EndSplineSet
Validated: 524293
EndChar

StartChar: uniE92B
Encoding: 59691 59691 33
Width: 1000
Flags: W
HStem: 84.4971 59.9004<194.144 314.08 468.085 588.698> 328.197 59.9004<193.78 313.773 469.955 589.573>
VStem: 100 61.9004<175.907 296.086 358.131 514.265> 347.667 87.8672<177.331 294.393> 623.301 59.8994<181.493 292.853>
LayerCount: 2
Fore
SplineSet
131.966796875 515.897460938 m 0
 148.318359375 515.510742188 161.53125 502.286132812 161.900390625 485.930664062 c 2
 161.900390625 358.130859375 l 1
 187.8671875 376.09765625 219.833984375 388.09765625 255.80078125 388.09765625 c 0
 315.700195312 388.09765625 367.633789062 356.130859375 393.633789062 308.197265625 c 1
 419.600585938 356.130859375 471.5 388.09765625 529.43359375 388.09765625 c 0
 615.30078125 388.09765625 685.200195312 320.1640625 683.200195312 238.263671875 c 0
 683.200195312 152.397460938 613.30078125 84.4970703125 527.400390625 84.4970703125 c 0
 469.5 84.4970703125 417.567382812 118.463867188 391.600585938 166.397460938 c 1
 364.948242188 117.5703125 313.250976562 84.564453125 253.767578125 84.4970703125 c 0
 253.495117188 84.49609375 253.23828125 84.55078125 252.966796875 84.55078125 c 0
 169.610351562 84.55078125 101.734375 151.353515625 100 234.296875 c 2
 100 485.930664062 l 2
 100 501.897460938 113.966796875 515.897460938 131.966796875 515.897460938 c 0
686.733398438 391.330078125 m 0
 694.700195312 390.063476562 702.166992188 386.063476562 707.133789062 380.063476562 c 2
 775.133789062 290.23046875 l 1
 845 376.09765625 l 2
 854.966796875 390.09765625 872.93359375 392.09765625 888.93359375 382.09765625 c 0
 902.900390625 372.09765625 902.966796875 352.130859375 892.966796875 338.1640625 c 2
 815.034179688 236.263671875 l 1
 892.966796875 132.430664062 l 2
 902.93359375 118.463867188 900.93359375 100.463867188 888.93359375 90.4638671875 c 0
 874.966796875 80.4970703125 855 82.4638671875 845 94.4638671875 c 2
 775.133789062 184.364257812 l 1
 707.166992188 96.4970703125 l 2
 697.166992188 82.4970703125 677.267578125 82.4306640625 663.30078125 92.4306640625 c 0
 649.30078125 102.430664062 647.30078125 120.430664062 657.30078125 134.430664062 c 2
 737.166992188 238.263671875 l 1
 657.267578125 342.130859375 l 2
 647.30078125 356.09765625 651.267578125 376.063476562 663.267578125 386.063476562 c 0
 668.40234375 389.655273438 674.650390625 391.78125 681.38671875 391.78125 c 0
 683.208984375 391.78125 684.995117188 391.626953125 686.733398438 391.330078125 c 0
253.767578125 328.197265625 m 0
 201.833984375 328.197265625 159.900390625 286.197265625 159.900390625 236.263671875 c 0
 159.900390625 184.330078125 201.833984375 144.397460938 253.767578125 144.397460938 c 0
 305.700195312 144.397460938 347.666992188 184.330078125 347.666992188 236.263671875 c 0
 347.666992188 286.197265625 305.700195312 328.197265625 253.767578125 328.197265625 c 0
529.43359375 328.197265625 m 0
 477.5 328.197265625 435.534179688 286.197265625 435.534179688 236.263671875 c 0
 435.534179688 184.330078125 477.5 144.397460938 529.43359375 144.397460938 c 0
 579.3671875 144.397460938 621.30078125 184.330078125 623.30078125 236.263671875 c 0
 623.30078125 286.197265625 581.3671875 328.197265625 529.43359375 328.197265625 c 0
EndSplineSet
Validated: 524321
EndChar

StartChar: uniE919
Encoding: 59673 59673 34
Width: 946
Flags: W
LayerCount: 2
Fore
SplineSet
873 6.333984375 m 1
 73 6.333984375 l 1
 473 708 l 1
 873 6.333984375 l 1
EndSplineSet
Validated: 524289
EndChar

StartChar: uniE936
Encoding: 59702 59702 35
Width: 1000
HStem: 1.5332 16.333<182.009 249.566> 785.399 15.9336<376.064 441.95>
LayerCount: 2
Fore
SplineSet
215.611328125 1.3330078125 m 1
 204.01171875 1.3330078125 192.645507812 3.4326171875 181.611328125 7.6328125 c 0
 135.778320312 25.1328125 111.478515625 74.966796875 124.078125 121.033203125 c 2
 123.578125 121.233398438 l 1
 126.578125 128.766601562 l 1
 359.811523438 734.333007812 l 2
 363.311523438 743.333007812 361.711914062 764.666015625 360.01171875 776.56640625 c 0
 359.478515625 779.399414062 359.478515625 781.932617188 360.278320312 784.56640625 c 2
 360.544921875 785.333007812 l 1
 360.745117188 785.833007812 l 1
 360.745117188 786.06640625 l 1
 361.044921875 786.69921875 l 2
 364.645507812 796.432617188 376.044921875 801.333007812 394.645507812 801.333007812 c 0
 417.078125 801.333007812 448.044921875 794.333007812 479.678710938 782.233398438 c 0
 506.245117188 772 530.4453125 759.266601562 547.4453125 746.399414062 c 0
 567.51171875 731.399414062 575.51171875 717.932617188 571.01171875 706.399414062 c 2
 569.978515625 704.899414062 l 1
 569.4453125 704.399414062 l 2
 567.9453125 702.366210938 566.4453125 700.399414062 564.4453125 698.899414062 c 0
 553.978515625 689.866210938 538.978515625 674.399414062 536.4453125 667.399414062 c 2
 301.01171875 53.3662109375 l 1
 300.478515625 53.56640625 l 2
 284.01171875 21.966796875 251.912109375 1.666015625 215.711914062 1.533203125 c 2
 215.51171875 1.533203125 l 1
 215.611328125 1.3330078125 l 1
142.711914062 125.266601562 m 1
 142.044921875 123.599609375 l 2
 127.145507812 83.56640625 147.4453125 38.3662109375 187.51171875 23 c 0
 196.544921875 19.5 205.877929688 17.8662109375 215.412109375 17.8662109375 c 0
 247.778320312 17.8662109375 276.412109375 37.3662109375 288.344726562 67.8662109375 c 2
 289.245117188 69.8994140625 l 1
 521.211914062 672.899414062 l 2
 526.078125 685.899414062 549.211914062 706.899414062 553.844726562 710.899414062 c 2
 554.377929688 711.432617188 l 2
 554.778320312 711.932617188 555.044921875 711.932617188 555.044921875 712.432617188 c 0
 555.044921875 714.432617188 553.01171875 721.432617188 536.478515625 733.932617188 c 0
 520.51171875 745.932617188 498.01171875 757.932617188 473.01171875 767.432617188 c 0
 444.078125 778.366210938 414.078125 785.399414062 394.078125 785.399414062 c 0
 381.078125 785.399414062 376.611328125 782.666015625 375.912109375 781.19921875 c 2
 375.912109375 779.866210938 l 2
 376.4453125 776.399414062 380.811523438 745.366210938 374.778320312 729.366210938 c 2
 142.711914062 125.366210938 l 1
 142.711914062 125.266601562 l 1
441.044921875 508.833007812 m 1
 273.412109375 72.3662109375 l 2
 261.01171875 41.166015625 225.01171875 24.8662109375 193.01171875 37.166015625 c 0
 161.111328125 49.5 143.912109375 86.3662109375 155.51171875 117.833007812 c 2
 262.678710938 396.56640625 l 1
 262.678710938 396.56640625 275.978515625 417.966796875 302.278320312 433.333007812 c 0
 328.645507812 448.766601562 350.278320312 445.266601562 379.611328125 458.533203125 c 0
 408.912109375 471.866210938 441.044921875 508.833007812 441.044921875 508.833007812 c 1
276.678710938 176 m 0
 273.178710938 174.366210938 271.778320312 170.399414062 273.178710938 167.166015625 c 0
 274.544921875 163.69921875 278.578125 162.266601562 282.044921875 163.69921875 c 0
 285.544921875 165.099609375 286.9453125 169.033203125 285.544921875 172.5 c 0
 284.178710938 176 280.145507812 177.366210938 276.678710938 176 c 0
242.877929688 236.06640625 m 2
 242.877929688 236.366210938 l 2
 248.311523438 238.899414062 250.51171875 244.366210938 248.044921875 249.366210938 c 0
 245.9453125 254.466796875 239.912109375 256.799804688 234.778320312 254.466796875 c 0
 229.645507812 252.366210938 227.311523438 246.299804688 229.645507812 241.233398438 c 0
 231.745117188 236.06640625 237.811523438 233.799804688 242.877929688 236.06640625 c 2
252.412109375 272.599609375 m 1
 251.978515625 272.6328125 l 1
 256.51171875 263.1328125 267.478515625 258.932617188 277.478515625 263.1328125 c 0
 286.978515625 267.56640625 291.01171875 278.733398438 286.978515625 288.366210938 c 0
 282.478515625 297.866210938 271.478515625 302 261.978515625 297.866210938 c 0
 252.412109375 293.366210938 248.311523438 282.19921875 252.412109375 272.599609375 c 1
333.278320312 347.866210938 m 1
 333.278320312 347.966796875 l 1
 328.145507812 345.866210938 325.678710938 339.799804688 328.145507812 334.733398438 c 0
 330.211914062 329.56640625 336.278320312 327.233398438 341.4453125 329.56640625 c 0
 346.544921875 331.666015625 348.877929688 337.733398438 346.544921875 342.866210938 c 0
 344.4453125 347.866210938 338.377929688 350.333007812 333.278320312 347.866210938 c 1
290.178710938 393.833007812 m 0
 286.9453125 392.5 285.278320312 388.466796875 286.745117188 384.932617188 c 0
 288.044921875 381.466796875 292.111328125 380.06640625 295.578125 381.466796875 c 0
 299.044921875 382.799804688 300.478515625 386.866210938 299.044921875 390.333007812 c 0
 297.711914062 393.833007812 293.678710938 395.233398438 290.178710938 393.833007812 c 0
402.544921875 763.333007812 m 1
 405.877929688 772.033203125 435.645507812 768.733398438 469.044921875 755.799804688 c 0
 502.344726562 743 526.678710938 725.5 523.377929688 716.799804688 c 0
 519.912109375 708 490.145507812 711.333007812 456.844726562 724.166015625 c 0
 423.344726562 737 399.044921875 754.5 402.4453125 763.366210938 c 2
 402.544921875 763.366210938 l 1
 402.544921875 763.333007812 l 1
EndSplineSet
Validated: 524321
EndChar

StartChar: uniE938
Encoding: 59704 59704 36
Width: 1000
HStem: -2 85.7002<390.818 497.167> 712.333 85.667<390.818 609.182>
VStem: 100 85.7002<288.818 392.3> 814.3 85.7002<288.818 398>
LayerCount: 2
Fore
SplineSet
500 798 m 4
 720 798 900 618 900 398 c 4
 900 178 720 -2 500 -2 c 4
 280 -2 100 178 100 398 c 4
 100 618 280 798 500 798 c 4
500 712.299804688 m 5
 500 712.333007812 l 5
 351.43359375 712.333007812 225.733398438 606.56640625 194.333007812 466.533203125 c 6
 568.56640625 92.3330078125 l 6
 708.56640625 123.733398438 814.299804688 249.43359375 814.299804688 398 c 5
 614.299804688 398 l 5
 614.299804688 340.866210938 l 5
 751.466796875 340.866210938 l 5
 731.466796875 255.133789062 668.56640625 183.700195312 585.700195312 155.133789062 c 6
 257.133789062 483.700195312 l 6
 294.299804688 583.700195312 388.56640625 655.133789062 500 655.133789062 c 4
 585.700195312 655.133789062 662.866210938 612.266601562 711.43359375 546.533203125 c 5
 754.299804688 583.700195312 l 6
 697.166992188 660.866210938 605.700195312 712.299804688 500 712.299804688 c 5
185.700195312 392.299804688 m 5
 185.700195312 315.166992188 217.133789062 235.133789062 277.133789062 175.133789062 c 4
 337.133789062 115.133789062 417.166992188 86.56640625 497.166992188 83.7001953125 c 5
 185.700195312 392.299804688 l 5
EndSplineSet
Validated: 524289
EndChar

StartChar: uniE92C
Encoding: 59692 59692 37
Width: 896
Flags: W
HStem: 3 33.334<275.751 579.706> 296.101 33.8828<720.959 765.678> 403 66.667<400.037 447.564> 513.101 33.333<249.472 604.781> 704.667 33.333<267.844 586.513>
VStem: 166.826 33.3164<73.6275 139.22> 398.01 66.6494<427.23 467.64> 654.226 33.3174<73.8732 139.218>
LayerCount: 2
Fore
SplineSet
720.958984375 335.3671875 m 2
 748.875976562 328.567382812 761.225585938 329.033203125 766.109375 329.983398438 c 1
 763.159179688 334.55078125 753.625976562 345.133789062 724.659179688 362.783203125 c 1
 720.958984375 335.3671875 l 2
654.375976562 90.7333984375 m 2
 684.04296875 311.05078125 l 1
 605.326171875 335.033203125 500.458984375 382.666992188 447.79296875 407.516601562 c 0
 442.909179688 404.716796875 437.342773438 403 431.342773438 403 c 0
 412.975585938 403 398.009765625 417.950195312 398.009765625 436.333984375 c 0
 398.009765625 454.700195312 412.975585938 469.666992188 431.342773438 469.666992188 c 0
 449.692382812 469.666992188 464.609375 454.75 464.659179688 436.416992188 c 0
 510.776367188 414.75 612.375976562 368.466796875 688.559570312 344.55078125 c 1
 718.442382812 566.450195312 l 1
 714.276367188 564.033203125 709.79296875 561.700195312 705.109375 559.450195312 c 0
 703.958984375 558.900390625 702.708984375 558.383789062 701.559570312 557.850585938 c 0
 697.342773438 555.883789062 692.942382812 554.016601562 688.392578125 552.200195312 c 0
 686.659179688 551.516601562 684.942382812 550.833984375 683.17578125 550.18359375 c 0
 678.326171875 548.333984375 673.29296875 546.583984375 668.076171875 544.883789062 c 0
 666.892578125 544.5 665.759765625 544.083984375 664.54296875 543.700195312 c 0
 658.109375 541.666992188 651.409179688 539.75 644.509765625 537.916992188 c 0
 642.842773438 537.483398438 641.125976562 537.083984375 639.442382812 536.633789062 c 0
 633.993164062 535.25 628.42578125 533.916992188 622.725585938 532.650390625 c 0
 620.576171875 532.18359375 618.409179688 531.68359375 616.225585938 531.233398438 c 0
 609.875976562 529.900390625 603.392578125 528.6171875 596.809570312 527.416992188 c 0
 595.642578125 527.216796875 594.54296875 526.983398438 593.392578125 526.766601562 c 0
 585.659179688 525.416992188 577.759765625 524.166992188 569.776367188 523.016601562 c 0
 567.625976562 522.700195312 565.458984375 522.43359375 563.29296875 522.133789062 c 0
 557.142578125 521.283203125 550.942382812 520.5 544.659179688 519.766601562 c 0
 542.225585938 519.5 539.826171875 519.216796875 537.375976562 518.966796875 c 0
 529.859375 518.150390625 522.276367188 517.400390625 514.625976562 516.766601562 c 0
 513.809570312 516.700195312 513.009765625 516.600585938 512.208984375 516.533203125 c 0
 503.776367188 515.850585938 495.276367188 515.30078125 486.759765625 514.817382812 c 0
 484.392578125 514.68359375 482.026367188 514.583984375 479.642578125 514.450195312 c 0
 473.192382812 514.150390625 466.743164062 513.883789062 460.259765625 513.666992188 c 0
 457.776367188 513.583984375 455.29296875 513.5 452.809570312 513.450195312 c 0
 444.243164062 513.233398438 435.692382812 513.100585938 427.159179688 513.100585938 c 0
 418.625976562 513.100585938 410.092773438 513.233398438 401.526367188 513.450195312 c 0
 399.04296875 513.5 396.559570312 513.583984375 394.059570312 513.666992188 c 0
 387.592773438 513.883789062 381.125976562 514.150390625 374.692382812 514.450195312 c 0
 372.309570312 514.583984375 369.92578125 514.68359375 367.559570312 514.817382812 c 0
 359.04296875 515.30078125 350.559570312 515.850585938 342.142578125 516.533203125 c 0
 341.29296875 516.6171875 340.475585938 516.700195312 339.625976562 516.766601562 c 0
 332.009765625 517.416992188 324.475585938 518.150390625 316.975585938 518.950195312 c 0
 314.509765625 519.216796875 312.092773438 519.5 309.625976562 519.766601562 c 0
 303.392578125 520.5 297.243164062 521.283203125 291.125976562 522.1171875 c 0
 288.92578125 522.43359375 286.708984375 522.700195312 284.526367188 523.033203125 c 0
 276.576171875 524.166992188 268.708984375 525.400390625 261.009765625 526.766601562 c 0
 259.759765625 526.983398438 258.54296875 527.25 257.309570312 527.466796875 c 0
 250.826171875 528.650390625 244.475585938 529.900390625 238.225585938 531.216796875 c 0
 235.958984375 531.68359375 233.743164062 532.18359375 231.493164062 532.68359375 c 0
 225.92578125 533.916992188 220.493164062 535.233398438 215.125976562 536.583984375 c 0
 213.342773438 537.05078125 211.509765625 537.483398438 209.743164062 537.93359375 c 0
 202.909179688 539.766601562 196.29296875 541.666992188 189.92578125 543.666992188 c 0
 188.559570312 544.083984375 187.29296875 544.567382812 185.975585938 544.983398438 c 0
 180.942382812 546.633789062 176.059570312 548.350585938 171.326171875 550.1171875 c 0
 169.475585938 550.833984375 167.659179688 551.533203125 165.842773438 552.25 c 0
 161.42578125 554.016601562 157.17578125 555.850585938 153.092773438 557.733398438 c 0
 151.809570312 558.317382812 150.442382812 558.883789062 149.17578125 559.483398438 c 0
 144.526367188 561.733398438 140.076171875 564.05078125 135.942382812 566.450195312 c 1
 199.993164062 90.7333984375 l 2
 200.092773438 89.9833984375 200.142578125 89.25 200.142578125 88.5 c 0
 200.142578125 72.5673828125 285.909179688 36.333984375 427.159179688 36.333984375 c 0
 479.958984375 36.333984375 532.743164062 41.8173828125 575.776367188 51.75 c 0
 592.475585938 55.6171875 607.29296875 60.05078125 619.79296875 64.9833984375 c 0
 647.892578125 76.1005859375 654.225585938 85.93359375 654.225585938 88.5 c 0
 654.225585938 89.25 654.276367188 89.9833984375 654.375976562 90.7333984375 c 2
427.159179688 704.666992188 m 0
 253.375976562 704.666992188 130.942382812 650.817382812 128.625976562 620.900390625 c 2
 129.076171875 617.416992188 l 2
 129.375976562 616.400390625 130.026367188 615.3671875 130.576171875 614.317382812 c 0
 131.026367188 613.450195312 131.342773438 612.583984375 131.975585938 611.68359375 c 0
 132.725585938 610.633789062 133.809570312 609.55078125 134.809570312 608.483398438 c 0
 135.625976562 607.583984375 136.309570312 606.700195312 137.29296875 605.817382812 c 0
 138.526367188 604.700195312 140.076171875 603.583984375 141.526367188 602.450195312 c 0
 142.692382812 601.583984375 143.692382812 600.700195312 144.993164062 599.817382812 c 0
 146.692382812 598.666992188 148.743164062 597.516601562 150.67578125 596.350585938 c 0
 152.125976562 595.483398438 153.42578125 594.650390625 155.009765625 593.783203125 c 0
 157.192382812 592.600585938 159.708984375 591.416992188 162.159179688 590.25 c 0
 163.842773438 589.43359375 165.409179688 588.600585938 167.225585938 587.783203125 c 0
 169.909179688 586.583984375 172.92578125 585.416992188 175.859375 584.25 c 0
 177.79296875 583.466796875 179.576171875 582.666992188 181.625976562 581.900390625 c 0
 184.743164062 580.733398438 188.208984375 579.583984375 191.576171875 578.43359375 c 0
 193.776367188 577.700195312 195.809570312 576.93359375 198.109375 576.200195312 c 0
 201.67578125 575.083984375 205.54296875 573.983398438 209.359375 572.900390625 c 0
 211.759765625 572.200195312 214.04296875 571.466796875 216.576171875 570.783203125 c 0
 220.559570312 569.716796875 224.809570312 568.700195312 229.009765625 567.666992188 c 0
 231.708984375 567.016601562 234.225585938 566.333984375 236.993164062 565.700195312 c 0
 241.42578125 564.700195312 246.142578125 563.766601562 250.776367188 562.80078125 c 0
 253.609375 562.233398438 256.29296875 561.6171875 259.225585938 561.067382812 c 0
 264.092773438 560.133789062 269.243164062 559.30078125 274.359375 558.450195312 c 0
 277.342773438 557.93359375 280.192382812 557.383789062 283.243164062 556.916992188 c 0
 288.442382812 556.100585938 293.92578125 555.400390625 299.326171875 554.666992188 c 0
 302.559570312 554.25 305.67578125 553.766601562 308.975585938 553.350585938 c 0
 314.609375 552.650390625 320.526367188 552.100585938 326.359375 551.5 c 0
 329.692382812 551.150390625 332.892578125 550.75 336.29296875 550.43359375 c 0
 342.109375 549.916992188 348.192382812 549.533203125 354.192382812 549.083984375 c 0
 357.892578125 548.833984375 361.442382812 548.483398438 365.192382812 548.25 c 0
 371.54296875 547.883789062 378.159179688 547.650390625 384.692382812 547.383789062 c 0
 388.326171875 547.25 391.809570312 547.016601562 395.493164062 546.900390625 c 0
 405.826171875 546.600585938 416.392578125 546.43359375 427.159179688 546.43359375 c 0
 437.942382812 546.43359375 448.493164062 546.600585938 458.826171875 546.900390625 c 0
 462.526367188 547.016601562 466.026367188 547.25 469.67578125 547.400390625 c 0
 476.192382812 547.650390625 482.79296875 547.883789062 489.142578125 548.25 c 0
 492.942382812 548.483398438 496.526367188 548.833984375 500.276367188 549.100585938 c 0
 506.225585938 549.533203125 512.276367188 549.916992188 518.04296875 550.43359375 c 0
 521.526367188 550.766601562 524.809570312 551.166992188 528.225585938 551.516601562 c 0
 533.975585938 552.100585938 539.809570312 552.666992188 545.359375 553.350585938 c 0
 548.776367188 553.766601562 551.958984375 554.266601562 555.309570312 554.716796875 c 0
 560.609375 555.43359375 565.993164062 556.1171875 571.092773438 556.916992188 c 0
 574.276367188 557.400390625 577.243164062 557.966796875 580.342773438 558.516601562 c 0
 585.309570312 559.333984375 590.359375 560.150390625 595.092773438 561.067382812 c 0
 598.208984375 561.650390625 601.076171875 562.30078125 604.076171875 562.916992188 c 0
 608.54296875 563.833984375 613.076171875 564.733398438 617.326171875 565.700195312 c 0
 620.29296875 566.3671875 622.993164062 567.100585938 625.842773438 567.80078125 c 0
 629.859375 568.783203125 633.958984375 569.75 637.743164062 570.783203125 c 0
 640.442382812 571.5 642.892578125 572.283203125 645.493164062 573.033203125 c 0
 649.092773438 574.067382812 652.809570312 575.1171875 656.225585938 576.18359375 c 0
 658.67578125 576.983398438 660.892578125 577.80078125 663.225585938 578.600585938 c 0
 666.42578125 579.68359375 669.725585938 580.783203125 672.692382812 581.883789062 c 0
 674.909179688 582.716796875 676.842773438 583.567382812 678.92578125 584.383789062 c 0
 681.692382812 585.516601562 684.54296875 586.633789062 687.109375 587.783203125 c 0
 689.059570312 588.633789062 690.743164062 589.533203125 692.526367188 590.400390625 c 0
 694.842773438 591.516601562 697.243164062 592.650390625 699.326171875 593.766601562 c 0
 701.026367188 594.68359375 702.42578125 595.583984375 703.942382812 596.5 c 0
 705.79296875 597.600585938 707.725585938 598.700195312 709.359375 599.783203125 c 0
 710.725585938 600.733398438 711.79296875 601.650390625 712.993164062 602.567382812 c 0
 714.392578125 603.650390625 715.892578125 604.733398438 717.076171875 605.80078125 c 0
 718.076171875 606.716796875 718.79296875 607.633789062 719.642578125 608.55078125 c 0
 720.609375 609.583984375 721.659179688 610.650390625 722.409179688 611.68359375 c 0
 723.04296875 612.583984375 723.375976562 613.466796875 723.842773438 614.333984375 c 0
 724.359375 615.383789062 725.009765625 616.416992188 725.309570312 617.416992188 c 2
 725.759765625 620.900390625 l 2
 723.458984375 650.817382812 600.993164062 704.666992188 427.159179688 704.666992188 c 0
800.208984375 333.383789062 m 0
 801.875976562 324.450195312 799.592773438 315.700195312 793.743164062 308.75 c 0
 786.659179688 300.30078125 775.54296875 296.100585938 759.026367188 296.100585938 c 0
 747.592773438 296.100585938 733.559570312 298.133789062 716.475585938 302.150390625 c 1
 687.54296875 87.216796875 l 2
 686.809570312 66.2001953125 668.142578125 48.2666015625 632.026367188 33.9833984375 c 0
 617.975585938 28.4501953125 601.592773438 23.5 583.276367188 19.2666015625 c 0
 537.859375 8.7666015625 482.409179688 3 427.159179688 3 c 0
 327.192382812 3 169.009765625 25.900390625 166.826171875 87.216796875 c 2
 96.2763671875 611.333984375 l 1
 96.2763671875 611.350585938 l 1
 96.2763671875 611.3671875 l 1
 95.4091796875 617.850585938 l 2
 95.3095703125 618.583984375 95.259765625 619.317382812 95.259765625 620.05078125 c 0
 95.259765625 689.567382812 270.17578125 738 427.159179688 738 c 0
 584.17578125 738 759.125976562 689.567382812 759.125976562 620.05078125 c 0
 759.125976562 619.317382812 759.076171875 618.583984375 758.975585938 617.850585938 c 2
 758.109375 611.3671875 l 1
 758.109375 611.350585938 l 1
 758.109375 611.333984375 l 1
 729.475585938 398.55078125 l 2
 774.493164062 372.93359375 796.609375 352.6171875 800.208984375 333.383789062 c 0
EndSplineSet
Validated: 524321
EndChar

StartChar: uniE92D
Encoding: 59693 59693 38
Width: 1060
Flags: W
HStem: 72.375 86.874<457.496 603.963> 151.958 86.8721<134.102 223.415 837.095 925.873> 361.125 86.917<134.102 223.422 837.07 928.381> 440.75 86.875<457.567 603.963>
VStem: 30 86.8594<256.098 343.902> 239.125 150.903<254.423 345.342> 671.5 149.318<254.658 345.342> 943.125 86.875<254.831 345.166>
LayerCount: 2
Fore
SplineSet
530.75 527.625 m 0x1f
 634.375 527.666992188 721.416992188 457.083007812 748.666992188 361.916992188 c 1
 772.375 412.291992188 822.958007812 448.041992188 881.958007812 448.041992188 c 0
 963.495117188 447.676757812 1029.63574219 381.537109375 1030 300 c 0
 1029.65820312 218.452148438 963.505859375 152.30078125 881.958007812 151.958007812 c 0x6f
 823 151.958007812 772.416992188 187.666992188 748.708007812 238.083007812 c 1
 721.416992188 142.916992188 634.375 72.375 530.75 72.375 c 0x8f
 426.583007812 72.375 339.041992188 143.708007812 312.333007812 239.708007812 c 1
 289 188.375 237.666992188 151.958007812 178 151.958007812 c 0
 96.482421875 152.345703125 30.3642578125 218.4765625 30 300 c 0
 30.3642578125 381.5234375 96.482421875 447.654296875 178 448.041992188 c 0x6f
 237.666992188 448.041992188 289.041992188 411.666992188 312.375 360.333007812 c 1
 339.083007812 456.291992188 426.583007812 527.625 530.75 527.625 c 0x1f
530.75 440.75 m 0x9f
 452.541992188 440.75 390.041992188 378.25 390.041992188 300 c 0
 390.041015625 299.7734375 390.028320312 299.55859375 390.028320312 299.33203125 c 0
 390.028320312 222.017578125 452.796875 159.249023438 530.111328125 159.249023438 c 0
 530.32421875 159.249023438 530.537109375 159.249023438 530.75 159.25 c 0
 609 159.25 671.5 221.75 671.5 300 c 0
 671.5 378.25 609 440.75 530.75 440.75 c 0x9f
178 361.166992188 m 2
 178 361.125 l 2
 143.708007812 361.125 116.875 334.291992188 116.875 300 c 0
 116.872070312 299.772460938 116.859375 299.557617188 116.859375 299.330078125 c 0
 116.859375 265.939453125 143.96875 238.830078125 177.359375 238.830078125 c 0x6f
 177.573242188 238.830078125 177.787109375 238.831054688 178 238.833007812 c 0
 212.291992188 238.875 239.125 265.708007812 239.125 300 c 0
 239.125 334.291992188 212.25 361.166992188 178 361.166992188 c 2
881.958007812 361.166992188 m 2
 881.958007812 361.125 l 2
 847.666992188 361.125 820.833007812 334.291992188 820.833007812 300 c 0
 820.831054688 299.772460938 820.818359375 299.557617188 820.818359375 299.330078125 c 0
 820.818359375 265.939453125 847.926757812 238.830078125 881.318359375 238.830078125 c 0
 881.53125 238.830078125 881.745117188 238.831054688 881.958007812 238.833007812 c 0
 916.25 238.833007812 943.125 265.708007812 943.125 300 c 0
 943.125 334.291992188 916.25 361.166992188 881.958007812 361.166992188 c 2
EndSplineSet
Validated: 524321
EndChar

StartChar: uniE92E
Encoding: 59694 59694 39
Width: 1000
Flags: W
HStem: -15.3164 27.873<323.159 567.149> 707.998 126.688<424.868 575.452>
VStem: 225.237 126.367<424.452 635.056> 648.077 127.004<424.452 635.054>
LayerCount: 2
Fore
SplineSet
180.116210938 424.452148438 m 5
 225.237304688 424.452148438 l 5
 225.237304688 559.744140625 l 5
 225.237304688 559.852539062 l 6
 225.237304688 711.537109375 348.385742188 834.685546875 500.071289062 834.685546875 c 6
 500.176757812 834.68359375 l 5
 500.249023438 834.68359375 l 6
 651.93359375 834.68359375 775.083007812 711.53515625 775.083007812 559.850585938 c 6
 775.081054688 559.744140625 l 5
 775.081054688 425.762695312 l 6
 774.443359375 425.408203125 773.770507812 424.771484375 773.09765625 424.452148438 c 6
 772.744140625 424.098632812 l 5
 772.459960938 423.78125 l 5
 772.106445312 423.78125 l 5
 771.751953125 423.427734375 l 5
 771.431640625 423.110351562 l 5
 770.439453125 423.110351562 l 5
 769.801757812 422.473632812 l 5
 769.09375 422.473632812 l 5
 768.456054688 422.119140625 l 5
 768.102539062 422.119140625 l 5
 767.78515625 421.764648438 l 5
 767.46484375 421.448242188 l 5
 767.110351562 421.448242188 l 5
 766.793945312 421.131835938 l 5
 766.47265625 420.77734375 l 5
 766.119140625 420.4609375 l 5
 765.797851562 420.143554688 l 5
 764.806640625 419.470703125 l 5
 764.133789062 419.1171875 l 5
 763.141601562 418.479492188 l 5
 762.50390625 418.125 l 5
 761.795898438 417.80859375 l 5
 760.83984375 417.170898438 l 5
 760.166992188 416.817382812 l 5
 759.8125 416.5 l 5
 758.856445312 415.827148438 l 5
 758.147460938 415.473632812 l 5
 756.518554688 414.516601562 l 5
 755.845703125 414.163085938 l 5
 755.208007812 413.841796875 l 5
 754.5 413.487304688 l 5
 754.220703125 413.487304688 l 5
 752.202148438 412.516601562 l 5
 751.529296875 412.516601562 l 6
 750.891601562 412.163085938 750.21875 411.80859375 749.227539062 411.170898438 c 6
 748.873046875 411.170898438 l 5
 748.551757812 410.817382812 l 5
 747.560546875 410.1796875 l 5
 746.922851562 409.825195312 l 5
 745.895507812 409.1875 l 5
 745.258789062 408.833984375 l 5
 744.904296875 408.833984375 l 5
 743.912109375 408.196289062 l 5
 743.275390625 407.841796875 l 5
 742.56640625 407.525390625 l 6
 741.928710938 407.170898438 740.9375 406.852539062 740.264648438 406.533203125 c 6
 739.626953125 406.1796875 l 5
 738.918945312 405.862304688 l 5
 737.608398438 405.225585938 l 5
 736.297851562 404.516601562 l 5
 734.633789062 403.879882812 l 5
 732.96875 403.206054688 l 5
 732.295898438 402.889648438 l 5
 730.985351562 402.216796875 l 5
 730.3125 401.862304688 l 6
 675.59375 375.689453125 588.043945312 348.170898438 421.904296875 336.235351562 c 4
 302.833007812 327.59375 230.547851562 275.212890625 183.762695312 212.206054688 c 5
 180.116210938 424.452148438 l 5
351.604492188 424.452148438 m 5
 648.077148438 424.452148438 l 5
 648.077148438 559.744140625 l 5
 648.077148438 559.81640625 l 6
 648.077148438 641.600585938 581.678710938 708 499.893554688 708 c 6
 499.823242188 707.998046875 l 5
 499.787109375 707.998046875 l 6
 418.001953125 707.998046875 351.603515625 641.599609375 351.603515625 559.814453125 c 6
 351.604492188 559.744140625 l 5
 351.604492188 424.452148438 l 5
819.883789062 372.708984375 m 5
 819.883789062 -15.31640625 l 5
 272.341796875 -15.31640625 l 5
 332.69140625 18.1875 377.458007812 14.8583984375 452.081054688 12.556640625 c 4
 553.549804688 9.2275390625 665.643554688 51.6923828125 720.716796875 108.040039062 c 4
 775.75390625 164.422851562 715.758789062 121.321289062 653.389648438 105.418945312 c 4
 591.056640625 89.4814453125 470.28515625 87.8173828125 389.393554688 109.067382812 c 5
 643.4375 105.737304688 742.604492188 187.65625 798.633789062 261.606445312 c 4
 854.698242188 335.237304688 774.443359375 274.533203125 722.380859375 248.998046875 c 4
 670.318359375 223.498046875 579.439453125 205.541992188 479.28125 218.823242188 c 5
 630.510742188 219.177734375 745.614257812 294.756835938 819.529296875 372.708984375 c 6
 819.883789062 372.708984375 l 5
EndSplineSet
Validated: 524321
EndChar

StartChar: uniE91D
Encoding: 59677 59677 40
Width: 942
Flags: W
HStem: 51.8672 1.5<71 181.4> 176.034 34.666<100.17 113.166 126.006 131.4 132.5 137.873> 226.4 47.9336<99.536 113.166 126.006 137.925> 383.667 77.4668<312.659 414.314>
VStem: 71 26.5996<160.367 173.53 210.701 224.063> 113.167 10.7666<162.643 173.53 211.133 224.063>
LayerCount: 2
Fore
SplineSet
871 51.8671875 m 5
 71 51.8671875 l 5
 71 53.3671875 l 6
 181.400390625 70.2001953125 312.200195312 97.7001953125 463.333007812 135.8671875 c 4
 625.599609375 176.8671875 761.5 218.8671875 871 262.067382812 c 5
 871 51.8671875 l 5
71 274.3671875 m 5
 71 274.333984375 l 5
 93.7001953125 275.600585938 120 277.5 149.866210938 280 c 4
 212.666992188 285.233398438 291.533203125 293 386.533203125 303.133789062 c 4
 447.733398438 309.534179688 499 314.333984375 540.200195312 317.333984375 c 4
 581.333007812 320.333984375 613.56640625 322 637 322.333984375 c 4
 682.700195312 322 707.333007812 314.833984375 710.900390625 300.833984375 c 4
 714.900390625 284.733398438 690.299804688 264.93359375 636.900390625 241.5 c 4
 583.5 218 507.400390625 193.767578125 408.666992188 168.833984375 c 4
 308.200195312 143.466796875 195.599609375 121.600585938 71 103.267578125 c 5
 71 274.3671875 l 5
105.5 176.034179688 m 5
 106.099609375 175.600585938 l 5
 103.599609375 175.600585938 101.599609375 175.100585938 100.099609375 173.600585938 c 4
 98.599609375 172.100585938 97.599609375 170.100585938 97.599609375 168.100585938 c 4
 97.599609375 166.600585938 98.1337890625 165.600585938 98.1337890625 165.100585938 c 4
 98.466796875 164.100585938 99.033203125 163.100585938 99.7998046875 162.633789062 c 4
 100.5 161.966796875 101.299804688 161.3671875 102.299804688 160.966796875 c 4
 103.233398438 160.567382812 104.299804688 160.3671875 105.366210938 160.3671875 c 4
 107.366210938 160.3671875 109.266601562 161.067382812 110.833007812 162.567382812 c 4
 112.366210938 164.166992188 113.166992188 165.966796875 113.166992188 168.166992188 c 4
 113.166992188 170.267578125 112.366210938 172.166992188 110.833007812 173.700195312 c 4
 109.299804688 175.200195312 107.5 176.034179688 105.5 176.034179688 c 5
132.5 176.034179688 m 6
 131.400390625 175.600585938 l 6
 129.400390625 175.600585938 127.466796875 175.100585938 125.93359375 173.600585938 c 4
 124.400390625 172.100585938 123.93359375 170.100585938 123.93359375 168.100585938 c 4
 123.93359375 166.600585938 123.93359375 165.600585938 124.43359375 165.100585938 c 4
 124.93359375 164.100585938 125.43359375 163.100585938 126.43359375 162.633789062 c 4
 126.966796875 161.966796875 127.966796875 161.3671875 128.966796875 160.966796875 c 4
 129.966796875 160.567382812 130.966796875 160.3671875 131.966796875 160.3671875 c 4
 134.43359375 160.3671875 135.966796875 161.067382812 137.966796875 162.567382812 c 4
 139.466796875 164.166992188 140.200195312 165.966796875 140.200195312 168.166992188 c 4
 140.200195312 170.267578125 139.5 172.166992188 138 173.700195312 c 4
 136.400390625 175.200195312 134.599609375 176.034179688 132.5 176.034179688 c 6
105.5 226.3671875 m 6
 105 226.400390625 l 6
 103 226.400390625 100.93359375 225.633789062 99.466796875 224.133789062 c 4
 98 222.633789062 97.466796875 220.767578125 97.466796875 218.534179688 c 4
 97.466796875 216.43359375 98.2998046875 214.534179688 99.7998046875 213.034179688 c 4
 101.299804688 211.5 103.200195312 210.700195312 105.366210938 210.700195312 c 4
 107.5 210.700195312 109.299804688 211.534179688 110.833007812 213.034179688 c 4
 112.366210938 214.534179688 113.166992188 216.400390625 113.166992188 218.534179688 c 4
 113.166992188 220.700195312 112.366210938 222.534179688 110.833007812 224.034179688 c 4
 109.299804688 225.633789062 107.5 226.3671875 105.5 226.3671875 c 6
132.5 226.3671875 m 6
 131.400390625 226.400390625 l 6
 129.400390625 226.400390625 127.466796875 225.633789062 125.93359375 224.133789062 c 4
 124.400390625 222.633789062 123.93359375 220.767578125 123.93359375 218.534179688 c 4
 123.93359375 216.43359375 124.93359375 214.534179688 126.43359375 213.034179688 c 4
 127.966796875 211.5 129.5 210.700195312 131.966796875 210.700195312 c 4
 134.43359375 210.700195312 135.966796875 211.534179688 137.966796875 213.034179688 c 4
 139.466796875 214.534179688 140.200195312 216.400390625 140.200195312 218.534179688 c 4
 140.200195312 220.700195312 139.5 222.534179688 138 224.034179688 c 4
 136.400390625 225.633789062 134.599609375 226.3671875 132.5 226.3671875 c 6
871 590.400390625 m 5
 871 429.966796875 l 6
 816.5 426.633789062 748.333007812 420.733398438 666.400390625 412.166992188 c 4
 583.400390625 403.166992188 515.733398438 396.166992188 463.299804688 391.666992188 c 4
 410.766601562 386.666992188 372.866210938 384.133789062 349.633789062 383.666992188 c 4
 304.200195312 382.666992188 279.966796875 388.666992188 276.466796875 402.133789062 c 4
 272.966796875 417.133789062 299.966796875 437.133789062 357.966796875 461.133789062 c 4
 415.966796875 485.633789062 492.966796875 510.133789062 587.966796875 534.133789062 c 4
 671.466796875 555.133789062 765.966796875 573.633789062 870.966796875 589.133789062 c 6
 871 590.400390625 l 5
842.5 635.400390625 m 6
 734 615.233398438 621.599609375 590.400390625 505.366210938 561.067382812 c 4
 323.900390625 515.233398438 179.133789062 469.633789062 71 424.534179688 c 5
 71 635.3671875 l 5
 842.533203125 635.3671875 l 5
 842.5 635.400390625 l 6
EndSplineSet
Validated: 524325
EndChar

StartChar: uniE91E
Encoding: 59678 59678 41
Width: 1000
Flags: W
VStem: 100 181.833<10.7382 308.998> 718.167 181.833<10.7608 308.998>
LayerCount: 2
Fore
SplineSet
900 518.09765625 m 2
 900 54.46484375 l 2
 900 24.3310546875 875.599609375 -0.068359375 845.466796875 -0.068359375 c 2
 718.166992188 -0.068359375 l 1
 718.166992188 308.998046875 l 1
 500 145.331054688 l 1
 281.833007812 308.998046875 l 1
 281.833007812 -0.1015625 l 1
 154.533203125 -0.1015625 l 2
 124.435546875 -0.1015625 100 24.333984375 100 54.431640625 c 2
 100 54.46484375 l 1
 100 518.09765625 l 2
 100 585.53125 176.966796875 624.03125 230.900390625 583.564453125 c 2
 281.833007812 545.331054688 l 1
 500 381.731445312 l 1
 718.166992188 545.3984375 l 1
 769.099609375 583.564453125 l 2
 823 623.998046875 900 585.53125 900 518.09765625 c 2
EndSplineSet
Validated: 524321
EndChar

StartChar: uniE91B
Encoding: 59675 59675 42
Width: 906
Flags: W
HStem: 54.4668 68.2715<399.436 609.207> 164.508 45.3662<520.481 542.869> 200.496 45.5039<451.382 461.669> 486.566 61.0664<135.404 208.803>
VStem: 439.071 45.3242<210.043 228.354> 519.311 45.4004<164.537 193.867> 549.235 303.767<384.183 533.1> 568.702 17.9336<261.542 289.329>
LayerCount: 2
Fore
SplineSet
193.302734375 547.6328125 m 6x9a
 193.302734375 547.666015625 l 6
 201.536132812 547.666015625 208.668945312 546.966796875 214.90234375 546.599609375 c 4
 234.502929688 544.799804688 414.46875 535.799804688 414.46875 535.799804688 c 5
 414.46875 535.799804688 491.069335938 532.466796875 527.96875 533 c 5
 527.96875 533 528.102539062 440.333007812 528.102539062 394 c 6
 549.235351562 383.966796875 l 5
 549.235351562 533.099609375 l 6
 565.90234375 533.233398438 582.702148438 533.6328125 599.635742188 534 c 4
 676.869140625 535.799804688 826.036132812 544.200195312 826.036132812 544.200195312 c 5
 826.036132812 544.200195312 833.036132812 544.299804688 838.235351562 539.099609375 c 4
 840.76953125 536.533203125 851.602539062 528.799804688 853.001953125 484.866210938 c 4
 853.001953125 339.799804688 782.76953125 190.766601562 782.76953125 190.766601562 c 6
 777.668945312 179.466796875 771.8359375 167.5 764.8359375 155.166015625 c 4
 741.90234375 115.06640625 725.501953125 97.5 725.501953125 97.5 c 5
 725.501953125 97.5 709.569335938 78.533203125 691.735351562 67.7333984375 c 4
 671.001953125 54.466796875 655.735351562 54.599609375 655.735351562 54.599609375 c 5
 655.735351562 54.599609375 495.536132812 54.466796875 415.3359375 54.466796875 c 4
 383.536132812 58.4326171875 350.8359375 91.2666015625 319.002929688 133.366210938 c 4
 295.46875 167.233398438 280.069335938 204 280.069335938 204 c 5
 280.069335938 204 154.602539062 202.366210938 96.302734375 273.733398438 c 4
 64.7353515625 309.766601562 58.1357421875 351.1328125 55.96875 366 c 4
 54.1689453125 378.233398438 39.5693359375 459.399414062 96.8359375 510.466796875 c 4
 122.635742188 535.266601562 154.202148438 542.366210938 165.302734375 544.700195312 c 4
 175.802734375 546.966796875 185.069335938 547.6328125 193.302734375 547.6328125 c 6x9a
205.102539062 486.56640625 m 6
 198.135742188 486.56640625 182.536132812 486.099609375 169.369140625 482.56640625 c 4
 131.036132812 473.033203125 120.369140625 444.399414062 120.369140625 444.399414062 c 5
 120.369140625 444.399414062 101.135742188 410.06640625 122.135742188 353.799804688 c 4
 134.3359375 320.166015625 158.668945312 303.1328125 158.668945312 303.1328125 c 5
 158.668945312 303.1328125 172.635742188 290.1328125 205.635742188 279.333007812 c 4
 227.135742188 271.700195312 260.3359375 267.733398438 260.3359375 267.733398438 c 5
 260.3359375 267.733398438 237.96875 329.5 228.802734375 366.666015625 c 4
 217.8359375 410.932617188 208.802734375 486.56640625 208.802734375 486.56640625 c 5
 205.102539062 486.56640625 l 6
482.76953125 401.432617188 m 4
 478.620117188 401.41015625 474.653320312 400.485351562 471.102539062 398.866210938 c 4
 461.668945312 394.6328125 455.569335938 382.299804688 455.569335938 382.299804688 c 5
 386.46875 239.899414062 l 5
 386.46875 239.899414062 380.235351562 227.200195312 383.001953125 216.866210938 c 4
 385.435546875 204.266601562 399.3359375 197 399.3359375 197 c 5
 543.001953125 127 l 5
 549.735351562 124.333007812 l 6
 553.059570312 123.301757812 556.560546875 122.73828125 560.221679688 122.73828125 c 4
 561.100585938 122.73828125 561.97265625 122.770507812 562.8359375 122.833007812 c 4
 580.036132812 123.966796875 587.76953125 142.432617188 587.76953125 142.432617188 c 5
 587.76953125 142.432617188 649.76953125 266.766601562 657.76953125 286.333007812 c 4
 659.435546875 290.432617188 662.501953125 298.833007812 660.069335938 308.233398438 c 4
 656.635742188 321.599609375 640.635742188 328.866210938 640.635742188 328.866210938 c 5
 544.302734375 375.56640625 l 5
 527.102539062 340.166015625 l 6
 529.264648438 337.881835938 530.954101562 335.154296875 532.036132812 332.1328125 c 4
 533.435546875 328.333007812 533.435546875 323.1328125 533.435546875 323.1328125 c 5
 533.435546875 323.1328125 555.069335938 313.833007812 570.635742188 303.799804688 c 6
 570.635742188 303.799804688 583.46875 297.033203125 586.635742188 282.533203125 c 4
 590.46875 268.533203125 584.369140625 257.599609375 583.202148438 255.399414062 c 6
 583.202148438 255.399414062 572.369140625 229.966796875 566.036132812 216.733398438 c 4
 563.602539062 211.766601562 561.3359375 207.06640625 558.90234375 202.366210938 c 4
 562.508789062 198.34765625 564.7109375 193.02734375 564.7109375 187.20703125 c 4
 564.7109375 174.678710938 554.5390625 164.5078125 542.010742188 164.5078125 c 4
 529.482421875 164.5078125 519.310546875 174.678710938 519.310546875 187.20703125 c 4
 519.310546875 189.560546875 519.669921875 191.831054688 520.3359375 193.966796875 c 4
 523.349609375 203.19921875 532.01953125 209.874023438 542.252929688 209.874023438 c 4xdd
 542.458984375 209.874023438 542.6640625 209.872070312 542.869140625 209.866210938 c 6
 542.869140625 209.866210938 563.369140625 251.866210938 566.26953125 261.533203125 c 6
 566.26953125 261.533203125 571.135742188 273.5 568.702148438 280.5 c 4
 566.41796875 284.44140625 563.145507812 287.668945312 559.168945312 289.899414062 c 4
 548.338867188 296.263671875 536.959960938 302.005859375 525.302734375 306.966796875 c 4
 522.736328125 304.799804688 519.641601562 303.20703125 516.26953125 302.399414062 c 4
 514.420898438 301.901367188 512.506835938 301.631835938 510.501953125 301.631835938 c 4
 509.782226562 301.631835938 509.071289062 301.666015625 508.369140625 301.733398438 c 6
 477.8359375 239.266601562 l 6
 481.901367188 235.126953125 484.395507812 229.4296875 484.395507812 223.17578125 c 4
 484.395507812 218.21484375 482.817382812 213.620117188 480.135742188 209.866210938 c 4
 475.975585938 204.166992188 469.233398438 200.49609375 461.643554688 200.49609375 c 4
 457.896484375 200.49609375 454.358398438 201.399414062 451.235351562 203 c 4
 443.987304688 206.845703125 439.071289062 214.444335938 439.071289062 223.215820312 c 4
 439.071289062 225.009765625 439.278320312 226.756835938 439.668945312 228.432617188 c 4
 442.08984375 238.393554688 451.006835938 245.837890625 461.668945312 246 c 6xbd
 492.96875 310.1328125 l 6
 489.776367188 314.060546875 487.868164062 319.107421875 487.868164062 324.55859375 c 4
 487.868164062 328.454101562 488.845703125 332.123046875 490.569335938 335.333007812 c 4
 494.439453125 342.473632812 501.979492188 347.302734375 510.666015625 347.302734375 c 4
 510.7890625 347.302734375 510.913085938 347.301757812 511.036132812 347.299804688 c 6
 528.668945312 383.1328125 l 5
 499.735351562 397.200195312 l 5
 499.735351562 397.200195312 491.435546875 401.333007812 482.76953125 401.432617188 c 4
EndSplineSet
Validated: 524321
EndChar

StartChar: uniE91F
Encoding: 59679 59679 43
Width: 942
Flags: W
HStem: 2.66699 50<321 734> 152.667 67.333<196.476 271.333 321 344.004> 273.667 157.667<225.731 317.351> 327.667 50<496 621 671 771> 477.667 50<496 621 671 771> 485.667 67<198.127 320.633> 627.667 75<371 446 496 621 671 771>
VStem: 71 75<271.016 432.152> 209 124.667<289.286 415.399> 271.333 49.667<52.667 152.667> 321 50<552.667 627.667> 396 100<273.26 327.667 377.667 434.528> 446 50<551 627.667> 621 50<266.667 327.667 377.667 477.667 527.667 627.667> 771 50<391 477.667 527.667 627.667> 821 50<57 298.334>
LayerCount: 2
Fore
SplineSet
333.666992188 351.333984375 m 0xe384
 333.666992188 341.333984375 332.444335938 331.666992188 330 322.333984375 c 0
 327.778320312 313.22265625 324.111328125 305 319 297.666992188 c 0
 314.111328125 290.333984375 307.666992188 284.555664062 299.666992188 280.333984375 c 0
 291.444335938 275.889648438 281.77734375 273.666992188 270.666992188 273.666992188 c 0
 259.555664062 273.666992188 250.111328125 275.889648438 242.333007812 280.333984375 c 0
 234.555664062 285.000976562 228.22265625 291.111328125 223.333007812 298.666992188 c 0
 218.444335938 306 214.77734375 314.333984375 212.333007812 323.666992188 c 0
 210.111328125 333 209 342.555664062 209 352.333984375 c 0
 209 362.111328125 210.111328125 371.778320312 212.333007812 381.333984375 c 0
 214.555664062 390.889648438 218.333984375 399.333984375 223.666992188 406.666992188 c 0
 228.555664062 414.22265625 235.111328125 420.22265625 243.333007812 424.666992188 c 0
 251.333007812 429.111328125 261 431.333984375 272.333007812 431.333984375 c 0
 283.666015625 431.333984375 293.221679688 429.111328125 301 424.666992188 c 0
 308.778320312 420 315.111328125 413.889648438 320 406.333984375 c 0
 324.888671875 398.778320312 328.333007812 390.22265625 330.333007812 380.666992188 c 0
 332.555664062 371.111328125 333.666992188 361.333984375 333.666992188 351.333984375 c 0xe384
871 352.666992188 m 2xc705
 871 40 l 2
 871 29.7783203125 867.333007812 20.8896484375 860 13.333984375 c 0
 852.666992188 6.22265625 843.77734375 2.6669921875 833.333007812 2.6669921875 c 2
 308.666992188 2.6669921875 l 2
 298.444335938 2.6669921875 289.555664062 6.333984375 282 13.6669921875 c 0
 274.888671875 21 271.333007812 29.8896484375 271.333007812 40.333984375 c 2
 271.333007812 152.666992188 l 1xc745
 104.333007812 152.666992188 l 2
 95.22265625 152.666992188 87.4443359375 156 81 162.666992188 c 0
 74.3330078125 169.111328125 71 176.889648438 71 186 c 2
 71 519.333984375 l 2
 71 528.444335938 74.3330078125 536.22265625 81 542.666992188 c 0
 87.2216796875 549.333984375 95 552.666992188 104.333007812 552.666992188 c 2
 321 552.666992188 l 1
 321 667.666992188 l 2
 321 677.4453125 324.333007812 685.778320312 331 692.666992188 c 0
 337.666992188 699.333984375 346 702.666992188 356 702.666992188 c 2
 786 702.666992188 l 2
 795.778320312 702.666992188 804.111328125 699.333984375 811 692.666992188 c 0
 817.666992188 686 821 677.666992188 821 667.666992188 c 2xc725
 821 391 l 1xc706
 862.333007812 367 l 1
 862.666992188 367 l 2
 864.888671875 365.444335938 866.888671875 363.444335938 868.666992188 361 c 0
 870.22265625 358.333007812 871 355.555664062 871 352.666992188 c 2xc705
671 627.666992188 m 1
 671 527.666992188 l 1
 771 527.666992188 l 1
 771 627.666992188 l 1xcb06
 671 627.666992188 l 1
671 477.666992188 m 1
 671 377.666992188 l 1
 771 377.666992188 l 1xdb06
 771 477.666992188 l 1
 671 477.666992188 l 1
671 327.666992188 m 1
 671 266.666992188 l 1
 772.666992188 327.666992188 l 1
 671 327.666992188 l 1
496 627.666992188 m 1xcb0c
 496 527.666992188 l 1
 621 527.666992188 l 1
 621 627.666992188 l 1
 496 627.666992188 l 1xcb0c
496 477.666992188 m 1
 496 377.666992188 l 1
 621 377.666992188 l 1xdb14
 621 477.666992188 l 1
 496 477.666992188 l 1
496 327.666992188 m 1
 496 260 l 1xd30c
 576.333007812 210 l 1
 621 236.666992188 l 1
 621 327.666992188 l 1
 496 327.666992188 l 1
371 627.666992188 m 1xc72c
 371 552.666992188 l 1
 437.666992188 552.666992188 l 1
 442 552.333984375 l 1
 446 551 l 1
 446 627.666992188 l 1
 371 627.666992188 l 1xc72c
270.333007812 220 m 1
 290.333007812 220 308.111328125 223.333007812 323.666992188 230 c 0
 339.22265625 237.111328125 352.444335938 246.666992188 363.333007812 258.666992188 c 0
 374 270.888671875 382.111328125 285.111328125 387.666992188 301.333984375 c 0
 393.22265625 317.778320312 396 335.666992188 396 355 c 0xc714
 396 373.444335938 393.22265625 390.666992188 387.666992188 406.666992188 c 0
 382.333984375 422.4453125 374.444335938 436.22265625 364 448 c 0
 353.555664062 459.778320312 340.77734375 469 325.666992188 475.666992188 c 0
 310.555664062 482.333984375 293.333007812 485.666992188 274 485.666992188 c 0
 253.555664062 485.666992188 235.333007812 482.333984375 219.333007812 475.666992188 c 0
 203.555664062 469 190.22265625 459.555664062 179.333007812 447.333984375 c 0
 168.22265625 435.333984375 159.888671875 420.889648438 154.333007812 404 c 0
 148.77734375 387.555664062 146 369.4453125 146 349.666992188 c 0
 146 330.778320312 148.888671875 313.4453125 154.666992188 297.666992188 c 0
 160.444335938 281.666992188 168.666015625 268 179.333007812 256.666992188 c 0
 190 245.111328125 203 236.111328125 218.333007812 229.666992188 c 0
 233.666015625 223 251 219.666992188 270.333007812 219.666992188 c 1
 270.333007812 220 l 1
321 52.6669921875 m 1xc344
 734 52.6669921875 l 1
 471 216.666992188 l 1
 471 186 l 2
 471 176.889648438 467.666992188 169.111328125 461 162.666992188 c 0
 454.555664062 156 446.77734375 152.666992188 437.666992188 152.666992188 c 2
 321 152.666992188 l 1
 321 52.6669921875 l 1xc344
821 57 m 1xc305
 821 298.333984375 l 1
 624.333007812 180.333984375 l 1
 821 57 l 1xc305
EndSplineSet
Validated: 524289
EndChar

StartChar: uniE920
Encoding: 59680 59680 44
Width: 964
Flags: W
HStem: 772 23.333<406.669 555.307>
LayerCount: 2
Fore
SplineSet
745.333007812 508.666015625 m 0
 745.333007812 655.333007812 628.666992188 772 478.666992188 772 c 0
 335.333007812 772 215.333007812 655.333007812 215.333007812 508.666015625 c 0
 215.333007812 468.666015625 222 432 238.666992188 398.666015625 c 1
 208.666992188 415.333007812 l 1
 105.333007812 475.333007812 l 1
 195.333007812 528.666015625 l 2
 205.333007812 678.666015625 328.666992188 795.333007812 482 795.333007812 c 0
 635.333007812 795.333007812 758.666992188 678.666015625 768.666992188 528.666015625 c 2
 858.666992188 478.666015625 l 1
 745.333007812 412 l 1
 722 398.666015625 l 1
 735.333007812 432 745.333007812 468.666015625 745.333007812 508.666015625 c 0
85.3330078125 218.666015625 m 1
 85.3330078125 465.333007812 l 1
 472 242 l 1
 472 -4.6669921875 l 1
 85.3330078125 218.666015625 l 1
492 242 m 1
 878.666992188 465.333007812 l 1
 878.666992188 218.666015625 l 1
 492 -4.6669921875 l 1
 492 242 l 1
EndSplineSet
Validated: 524289
EndChar

StartChar: uniE921
Encoding: 59681 59681 45
Width: 860
Flags: W
HStem: 158.998 286.9<379.173 480.837>
VStem: 145.5 123.033<445.898 589.022> 591.533 122.967<445.898 589.099>
LayerCount: 2
Fore
SplineSet
430 118.764648438 m 1
 430 118.731445312 l 1
 430 118.731445312 466.5 122.365234375 495.166992188 142.198242188 c 0
 523.733398438 162.131835938 714.5 298.53125 714.5 298.53125 c 1
 714.5 28.53125 l 1
 714.5 28.53125 712.866210938 -2.8681640625 678.333007812 -2.8681640625 c 2
 181.666992188 -2.8681640625 l 2
 147.099609375 -2.8681640625 145.5 28.5986328125 145.5 28.5986328125 c 1
 145.5 298.53125 l 1
 145.5 298.53125 336.166992188 162.131835938 364.833007812 142.264648438 c 0
 393.466796875 122.365234375 430 118.764648438 430 118.764648438 c 1
430 797.098632812 m 1
 430 797.03125 l 1
 430 797.03125 665.833007812 804.764648438 714.5 543.131835938 c 2
 714.5 364.797851562 l 1
 714.5 364.797851562 712.466796875 345.698242188 658.900390625 306.8984375 c 0
 605.200195312 268.098632812 466.333007812 158.998046875 430.06640625 158.998046875 c 0
 393.599609375 158.998046875 254.733398438 268.131835938 201.166992188 306.865234375 c 0
 147.5 345.631835938 145.5 364.698242188 145.5 364.698242188 c 1
 145.5 543.03125 l 2
 194.166992188 804.797851562 430 797.098632812 430 797.098632812 c 1
591.533203125 445.8984375 m 1
 591.533203125 542.998046875 l 2
 558.766601562 672.998046875 430 674.797851562 430 674.797851562 c 1
 430 674.797851562 301.333007812 673.03125 268.533203125 543.03125 c 2
 268.533203125 445.8984375 l 1
 591.533203125 445.8984375 l 1
EndSplineSet
Validated: 524321
EndChar

StartChar: uniE922
Encoding: 59682 59682 46
Width: 954
Flags: W
HStem: -2 218.22<433.202 600.152> 252.533 290.934<401.594 552.406> 579.833 218.564<392.499 548.03>
VStem: 331.533 290.934<322.594 473.406> 659.032 217.968<314.792 483.679>
LayerCount: 2
Fore
SplineSet
477 798 m 1
 476.846679688 798.397460938 l 1
 632.313476562 798.397460938 767.182617188 709.513671875 833.366210938 579.833007812 c 1
 477 579.833007812 l 2
 384.059570312 579.831054688 307.30859375 509.748046875 296.5 419.700195312 c 1
 164.733398438 647.966796875 l 2
 238.033203125 739.43359375 350.666992188 798 477 798 c 1
141.366210938 615.666992188 m 1
 319.56640625 307.099609375 l 2
 350.950195312 252.63671875 409.782226562 216.219726562 477.1015625 216.219726562 c 0
 502.404296875 216.219726562 526.504882812 221.403320312 548.400390625 230.766601562 c 1
 416.6328125 2.533203125 l 1
 224.333007812 31.6337890625 77 197.599609375 77 398 c 0
 77 398.212890625 77.2431640625 398.825195312 77.2431640625 399.0390625 c 0
 77.2431640625 478.903320312 100.811523438 553.306640625 141.366210938 615.666992188 c 1
586.099609375 543.466796875 m 1
 849.733398438 543.466796875 l 2
 867.333007812 498.366210938 877 449.333007812 877 398 c 0
 877 177.099609375 697.900390625 -2 477 -2 c 0
 470.06640625 -2 463.166992188 -1.7998046875 456.299804688 -1.466796875 c 1
 634.43359375 307.099609375 l 1
 634.5 307.099609375 l 1
 634.43359375 307.133789062 l 1
 649.904296875 333.845703125 659.032226562 364.96484375 659.032226562 398.029296875 c 0
 659.032226562 457.510742188 630.362304688 510.348632812 586.099609375 543.466796875 c 1
477 252.533203125 m 0
 396.71484375 252.533203125 331.533203125 317.71484375 331.533203125 398 c 0
 331.533203125 478.28515625 396.71484375 543.466796875 477 543.466796875 c 0
 557.28515625 543.466796875 622.466796875 478.28515625 622.466796875 398 c 0
 622.466796875 317.71484375 557.28515625 252.533203125 477 252.533203125 c 0
EndSplineSet
Validated: 524289
EndChar

StartChar: uniE92F
Encoding: 59695 59695 47
Width: 908
Flags: W
VStem: 309 22.7666<484.6 578.134> 363.866 22.0342<167 255.467> 442.934 21.9668<65.2998 168.866 419.066 537.366> 522.066 22.0332<167 255.434> 576.267 22.667<484.6 578.134>
LayerCount: 2
Fore
SplineSet
724.166992188 402.966796875 m 1
 834.43359375 279.366210938 l 1
 672.633789062 244.033203125 l 1
 689.133789062 79.43359375 l 1
 537.466796875 145.900390625 l 1
 454 3 l 1
 370.466796875 145.900390625 l 1
 218.700195312 79.43359375 l 1
 235.366210938 244.266601562 l 1
 73.56640625 279.366210938 l 1
 183.733398438 403.133789062 l 1
 73.56640625 526.700195312 l 1
 235.366210938 561.833007812 l 1
 218.900390625 726.633789062 l 1
 370.5 660.099609375 l 1
 454 803 l 1
 537.43359375 660.133789062 l 1
 689.099609375 726.666992188 l 1
 672.599609375 561.866210938 l 1
 834.400390625 526.56640625 l 1
 724.166992188 402.966796875 l 1
777.666992188 309.900390625 m 1
 703.200195312 393.599609375 l 1
 619 425 l 1
 682.299804688 342.633789062 l 1
 777.666992188 309.900390625 l 1
792.966796875 513.099609375 m 1
 665.5 540.93359375 l 1
 604.033203125 453.866210938 l 1
 706.233398438 415.833007812 l 1
 792.966796875 513.099609375 l 1
650.033203125 557.233398438 m 1
 661.466796875 670.5 l 1
 601.866210938 590 l 1
 598.93359375 484.599609375 l 1
 650.033203125 557.233398438 l 1
539.900390625 637.200195312 m 1
 485.900390625 568.099609375 l 1
 584 603.06640625 l 1
 642.93359375 682.333007812 l 1
 539.900390625 637.200195312 l 1
579.466796875 578.133789062 m 1
 464.900390625 537.366210938 l 1
 464.900390625 419.06640625 l 1
 576.266601562 456.400390625 l 1
 579.466796875 578.133789062 l 1
454 759.400390625 m 1
 388.299804688 647.06640625 l 1
 454 563.033203125 l 1
 519.633789062 647.033203125 l 1
 454 759.400390625 l 1
368.099609375 637.200195312 m 1
 265.06640625 682.333007812 l 1
 323.799804688 603.06640625 l 1
 422.06640625 568.133789062 l 1
 368.099609375 637.200195312 l 1
442.93359375 537.366210938 m 1
 328.366210938 578.133789062 l 1
 331.766601562 456.400390625 l 1
 442.93359375 419.06640625 l 1
 442.93359375 537.366210938 l 1
306.133789062 590 m 1
 246.56640625 670.466796875 l 1
 257.93359375 557.233398438 l 1
 309 484.599609375 l 1
 306.133789062 590 l 1
115 513.266601562 m 1
 201.599609375 416 l 1
 303.766601562 453.866210938 l 1
 242.466796875 540.93359375 l 1
 115 513.266601562 l 1
204.799804688 393.766601562 m 1
 130.299804688 310.06640625 l 1
 225.666992188 342.633789062 l 1
 289 425 l 1
 204.799804688 393.766601562 l 1
135.033203125 288.466796875 m 1
 246.766601562 264.033203125 l 1
 334.166992188 291.93359375 l 1
 232.666992188 321.799804688 l 1
 135.033203125 288.466796875 l 1
244.366210938 114.733398438 m 1
 363.866210938 167 l 1
 361.133789062 277.333007812 l 1
 257.43359375 244.599609375 l 1
 244.366210938 114.733398438 l 1
367.400390625 305 m 1
 436.166992188 398.200195312 l 1
 325 435.733398438 l 1
 250.799804688 339.333007812 l 1
 367.400390625 305 l 1
442.93359375 65.2998046875 m 1
 442.93359375 168.900390625 l 1
 383.700195312 255.466796875 l 1
 385.900390625 163.099609375 l 1
 442.93359375 65.2998046875 l 1
385.266601562 291.966796875 m 1
 454 191.799804688 l 1
 522.766601562 291.966796875 l 1
 454 385.266601562 l 1
 385.266601562 291.966796875 l 1
522.06640625 163.099609375 m 1
 524.299804688 255.43359375 l 1
 464.900390625 168.866210938 l 1
 464.900390625 65.2998046875 l 1
 522.06640625 163.099609375 l 1
471.599609375 398.166992188 m 1
 540.366210938 304.966796875 l 1
 657 339.299804688 l 1
 582.966796875 435.700195312 l 1
 471.599609375 398.166992188 l 1
544.099609375 167 m 1
 663.400390625 114.56640625 l 1
 650.533203125 244.599609375 l 1
 546.666992188 277.333007812 l 1
 544.099609375 167 l 1
661.233398438 264.06640625 m 1
 772.966796875 288.400390625 l 1
 675.366210938 321.833007812 l 1
 573.733398438 291.966796875 l 1
 661.233398438 264.06640625 l 1
EndSplineSet
Validated: 524289
EndChar

StartChar: uniE930
Encoding: 59696 59696 48
Width: 894
Flags: W
HStem: 501.333 33<375.02 517.442>
LayerCount: 2
Fore
SplineSet
571.666992188 444.333007812 m 2
 571.666992188 444 l 2
 589.666992188 393 656.333007812 331.666992188 656.333007812 331.666992188 c 1
 656.333007812 331.666992188 575.666992188 329 524.333007812 293.333007812 c 0
 473 258 447 179.666992188 447 179.666992188 c 1
 447 179.666992188 408.666992188 266 366.333007812 295 c 0
 324 324 238 331.666992188 238 331.666992188 c 1
 238 331.666992188 304.333007812 390.333007812 320.333007812 443 c 0
 336.666992188 495.666992188 318 577.666992188 318 577.666992188 c 1
 318 577.666992188 389 534.666992188 444.666992188 534.333007812 c 0
 500.333007812 534 576.333007812 577.666992188 576.333007812 577.666992188 c 1
 576.333007812 577.666992188 554 495.333007812 571.666992188 444.333007812 c 2
505 321.333007812 m 0
 541 348.666992188 593 354.333007812 593 354.333007812 c 1
 593 354.333007812 555.333007812 396.666992188 540.666992188 434.666992188 c 0
 525.666992188 472 538.333007812 524.666992188 538.333007812 524.666992188 c 1
 538.333007812 524.666992188 502 501.333007812 445.333007812 501.333007812 c 0
 388.666992188 501.333007812 358 524.666992188 358 524.666992188 c 1
 358 524.666992188 367.333007812 485 352 433.666992188 c 0
 342.71484375 402.638671875 324.84765625 375.374023438 301 354.666992188 c 1
 301 354.666992188 351.666992188 348.666992188 386.666992188 322.333007812 c 0
 421.333007812 296 446.666992188 248.333007812 446.666992188 248.333007812 c 1
 446.666992188 248.333007812 468.666992188 294.333007812 505 321.333007812 c 0
504.666992188 481 m 1
 504.666992188 481 497.333007812 448.666992188 506.666992188 422.666992188 c 0
 516 396.333007812 540.666992188 370.333007812 540.666992188 370.333007812 c 1
 521.333007812 365.333007812 503 357.333007812 486.333007812 347 c 0
 462 331 447 302.666992188 447 302.666992188 c 1
 427.004882812 336.806640625 393.043945312 361.653320312 353 369.666992188 c 1
 353 369.666992188 374.333007812 395.666992188 383.333007812 424.333007812 c 0
 389 442.666992188 390.666992188 461.666992188 389 481 c 1
 389 481 418.333007812 468.666992188 445.666992188 468.666992188 c 0
 473 468.333007812 504.666992188 481 504.666992188 481 c 1
717 401 m 1
 717.333007812 401 l 1
 827.333007812 277.333007812 l 1
 665.666992188 242 l 1
 682.333007812 77.3330078125 l 1
 530.333007812 144 l 1
 447 1 l 1
 363.666992188 144 l 1
 212 77.3330078125 l 1
 228.666992188 242 l 1
 67 277.666992188 l 1
 176.666992188 401 l 1
 66.6669921875 524.666992188 l 1
 228.333007812 559.666992188 l 1
 212 724.666992188 l 1
 363.666992188 658 l 1
 447 801 l 1
 530.333007812 658 l 1
 682.333007812 724.666992188 l 1
 665.666992188 560 l 1
 827.333007812 524.333007812 l 1
 717 401 l 1
541.333007812 269.333007812 m 1
 541 269.333007812 l 1
 569 289.333007812 725.666992188 310 725.666992188 310 c 1
 725.666992188 310 611.333007812 424 601.333007812 456 c 0
 591.666992188 488 619 638 619 638 c 1
 619 638 516 568 443.666992188 568 c 0
 371 568 274.333007812 638 274.333007812 638 c 1
 274.333007812 638 306.333007812 529 286.666992188 459 c 0
 267.333007812 389 167.666992188 310 167.666992188 310 c 1
 167.666992188 310 297.666992188 302.666992188 347 269.333007812 c 0
 397 236 447 107.333007812 447 107.333007812 c 1
 447 107.333007812 513.666992188 249 541.333007812 269.333007812 c 1
EndSplineSet
Validated: 524321
EndChar

StartChar: uniE931
Encoding: 59697 59697 49
Width: 890
Flags: W
VStem: 293.167 136.5<76.5 543.8> 460.333 136.5<76.5 301.566 454.434 543.8>
LayerCount: 2
Fore
SplineSet
88.06640625 602.033203125 m 1
 429.666992188 797.233398438 l 1
 429.666992188 -2.7666015625 l 1
 293.166992188 76.5 l 1
 293.166992188 543.799804688 l 1
 87.56640625 425 l 1
 88.06640625 602 l 1
 88.06640625 602.033203125 l 1
802.400390625 425 m 1
 802.43359375 425 l 1
 596.833007812 543.799804688 l 1
 596.833007812 454.43359375 l 1
 699.299804688 395.900390625 l 1
 699.900390625 241.966796875 l 1
 596.833007812 301.56640625 l 1
 596.833007812 76.5 l 1
 460.333007812 -2.7666015625 l 1
 460.333007812 797.233398438 l 1
 801.93359375 602 l 1
 802.400390625 425 l 1
EndSplineSet
Validated: 524293
EndChar

StartChar: uniE932
Encoding: 59698 59698 50
Width: 1058
Flags: W
HStem: 1.33398 102.541<494.336 749.166>
LayerCount: 2
Fore
SplineSet
994.875 753.5 m 6
 1018.54199219 753.5 1033.33300781 734.208984375 1027.875 710.375 c 6
 875.416992188 44.458984375 l 6
 870 20.625 846.375 1.333984375 822.708007812 1.333984375 c 6
 63.125 1.333984375 l 6
 39.4580078125 1.333984375 24.6669921875 20.625 30.125 44.458984375 c 6
 182.583007812 710.375 l 6
 188 734.208984375 211.625 753.5 235.291992188 753.5 c 6
 994.875 753.5 l 6
645.916992188 364.083984375 m 5
 656.375 380.5 655.375 401.791992188 642.166992188 415.875 c 6
 409.083007812 663.875 l 6
 393.25 680.708984375 365.875 680.833984375 348 664 c 4
 330.125 647.25 328.5 620 344.333007812 603.166992188 c 6
 538.583007812 396.5 l 5
 538.583007812 391.916992188 l 5
 229.416992188 168 l 6
 210.666992188 154.375 207.208007812 127.291992188 221.625 107.458984375 c 4
 236.041992188 87.625 262.916992188 82.583984375 281.625 96.208984375 c 6
 624.5 342.458984375 l 6
 636.166992188 350.625 642.75 357.666992188 645.916992188 364.125 c 5
 645.916992188 364.083984375 l 5
529.416992188 180.791992188 m 6
 529.33203125 180.79296875 529.24609375 180.79296875 529.161132812 180.79296875 c 4
 507.891601562 180.79296875 490.614257812 163.577148438 490.5 142.333984375 c 4
 490.5 121.083984375 507.916992188 103.875 529.416992188 103.875 c 6
 714.125 103.875 l 6
 714.209960938 103.875 714.294921875 103.874023438 714.379882812 103.874023438 c 4
 735.650390625 103.874023438 752.927734375 121.08984375 753.041992188 142.333984375 c 4
 752.927734375 163.577148438 735.645507812 180.7890625 714.375976562 180.7890625 c 4
 714.290039062 180.7890625 714.209960938 180.79296875 714.125 180.791992188 c 6
 529.416992188 180.791992188 l 6
EndSplineSet
Validated: 524321
EndChar

StartChar: uniE933
Encoding: 59699 59699 51
Width: 812
Flags: W
HStem: 0 119.934<139.27 231.006> 100 95.0332<305.009 528.943> 638.233 95.0332<304.708 529.145> 653.667 70.333<105.404 169.657> 704.833 95.167<605.152 684.649>
VStem: 102.65 69.7656<656.438 721.223> 125.684 118.9<13.7121 106.221> 597.717 94.3672<712.331 792.502>
LayerCount: 2
Fore
SplineSet
244.583984375 59.966796875 m 0x83
 244.583984375 26.8818359375 217.955078125 0.0185546875 185.150390625 0 c 0
 152.330078125 0 125.68359375 26.8701171875 125.68359375 59.966796875 c 0
 125.68359375 93.0634765625 152.330078125 119.93359375 185.150390625 119.93359375 c 0
 217.955078125 119.915039062 244.583984375 93.0517578125 244.583984375 59.966796875 c 0x83
692.083984375 752.43359375 m 2
 692.083984375 752.399414062 l 2
 692.083984375 726.146484375 670.94921875 704.833007812 644.916015625 704.833007812 c 2
 644.8828125 704.833007812 l 2
 618.8515625 704.833007812 597.716796875 726.147460938 597.716796875 752.400390625 c 2
 597.716796875 752.43359375 l 2
 597.716796875 778.686523438 618.8515625 800 644.8828125 800 c 2
 644.916015625 800 l 2x09
 670.94921875 800 692.083984375 778.686523438 692.083984375 752.43359375 c 2
172.416015625 688.799804688 m 0x15
 172.380859375 669.415039062 156.7734375 653.685546875 137.55078125 653.666992188 c 0
 118.298828125 653.666992188 102.66796875 669.421875 102.650390625 688.833007812 c 0
 102.66796875 708.245117188 118.298828125 724 137.55078125 724 c 0
 156.796875 723.981445312 172.416015625 708.215820312 172.416015625 688.799804688 c 0x15
416.94921875 638.233398438 m 0x21
 291.349609375 638.233398438 181.650390625 592.099609375 124.55078125 524.099609375 c 1
 145.892578125 585.728515625 185.638671875 638.374023438 237.68359375 675.666992188 c 0
 288.1171875 711.793945312 350.177734375 733.240234375 416.8828125 733.266601562 c 0
 483.6015625 733.248046875 545.673828125 711.799804688 596.1171875 675.666992188 c 0
 648.1484375 638.370117188 687.884765625 585.724609375 709.216796875 524.099609375 c 1
 652.283203125 592.233398438 542.583984375 638.233398438 416.94921875 638.233398438 c 0x21
416.984375 195.06640625 m 1
 416.94921875 195.033203125 l 1
 542.583984375 195.033203125 652.283203125 241.06640625 709.349609375 309.200195312 c 1
 688.017578125 247.575195312 648.28125 194.930664062 596.25 157.633789062 c 0
 545.810546875 121.48828125 483.73828125 100.029296875 417.017578125 100 c 0x41
 350.318359375 100.053710938 288.267578125 121.522460938 237.849609375 157.666992188 c 0
 185.8046875 194.958984375 146.05859375 247.604492188 124.716796875 309.233398438 c 1
 181.650390625 241.099609375 291.3828125 195.06640625 416.984375 195.06640625 c 1
EndSplineSet
Validated: 524289
EndChar

